<?xml version="1.0" encoding="UTF-8"?>
<svg xmlns="http://www.w3.org/2000/svg" xmlns:xlink="http://www.w3.org/1999/xlink" width="257pt" height="220pt" viewBox="0 0 257 220" version="1.1">
<defs>
<filter id="alpha" filterUnits="objectBoundingBox" x="0%" y="0%" width="100%" height="100%">
  <feColorMatrix type="matrix" in="SourceGraphic" values="0 0 0 0 1 0 0 0 0 1 0 0 0 0 1 0 0 0 1 0"/>
</filter>
<mask id="mask0">
  <g filter="url(#alpha)">
<rect x="0" y="0" width="257" height="220" style="fill:rgb(0%,0%,0%);fill-opacity:0.2;stroke:none;"/>
  </g>
</mask>
<clipPath id="clip1">
  <rect width="257" height="221"/>
</clipPath>
<g id="surface6" clip-path="url(#clip1)">
<path style=" stroke:none;fill-rule:nonzero;fill:rgb(32.156863%,45.882353%,62.745098%);fill-opacity:1;" d="M 45.214844 140.738281 C 45.214844 140.738281 29.585938 128.03125 26.289062 114.394531 C 29.65625 116.535156 32.382812 119.828125 34.429688 123.324219 C 36.285156 126.5 40.867188 131.445312 43.984375 134.667969 C 44.355469 136.371094 44.761719 138.375 45.214844 140.738281 Z M 45.214844 140.738281 "/>
</g>
<mask id="mask1">
  <g filter="url(#alpha)">
<rect x="0" y="0" width="257" height="220" style="fill:rgb(0%,0%,0%);fill-opacity:0.2;stroke:none;"/>
  </g>
</mask>
<clipPath id="clip2">
  <rect width="257" height="221"/>
</clipPath>
<g id="surface9" clip-path="url(#clip2)">
<path style=" stroke:none;fill-rule:nonzero;fill:rgb(32.156863%,45.882353%,62.745098%);fill-opacity:1;" d="M 45.933594 90.171875 C 44.5 94.5625 42.519531 98.792969 40.515625 102.96875 C 39.46875 105.152344 35.230469 110.203125 32.957031 111.164062 C 33.222656 105.46875 33.242188 98.816406 32.582031 93.066406 C 31.949219 87.527344 33.9375 83.328125 31.769531 78.191406 C 31.492188 77.535156 31.207031 76.878906 30.917969 76.21875 C 31.121094 76.285156 31.316406 76.355469 31.503906 76.4375 C 35.066406 77.96875 36.714844 81.75 37.015625 85.417969 C 37.269531 88.449219 36.722656 91.484375 36.316406 94.5 C 36.128906 95.890625 35.976562 97.3125 36.273438 98.675781 C 36.28125 98.691406 36.285156 98.703125 36.285156 98.71875 C 36.660156 100.34375 39.027344 100.25 39.328125 98.605469 L 40.277344 93.558594 C 40.558594 92.050781 40.867188 90.46875 42.101562 89.417969 C 42.589844 89 43.21875 88.738281 43.855469 88.757812 C 44.875 88.796875 45.511719 89.394531 45.933594 90.171875 Z M 45.933594 90.171875 "/>
</g>
<mask id="mask2">
  <g filter="url(#alpha)">
<rect x="0" y="0" width="257" height="220" style="fill:rgb(0%,0%,0%);fill-opacity:0.2;stroke:none;"/>
  </g>
</mask>
<clipPath id="clip3">
  <rect width="257" height="221"/>
</clipPath>
<g id="surface12" clip-path="url(#clip3)">
<path style=" stroke:none;fill-rule:nonzero;fill:rgb(32.156863%,45.882353%,62.745098%);fill-opacity:1;" d="M 94.722656 78.347656 C 94.664062 79.097656 94.6875 79.847656 94.828125 80.609375 C 93.023438 80.195312 91.773438 77.386719 90.949219 74.332031 C 90.144531 71.359375 89.742188 68.144531 89.617188 66.664062 C 89.375 63.535156 89.574219 60.363281 90.21875 57.285156 C 92.96875 61.492188 94.890625 66.175781 96.566406 70.941406 C 95.992188 72.652344 95.5 74.386719 95.09375 76.132812 C 94.917969 76.878906 94.785156 77.609375 94.722656 78.347656 Z M 94.722656 78.347656 "/>
</g>
<mask id="mask3">
  <g filter="url(#alpha)">
<rect x="0" y="0" width="257" height="220" style="fill:rgb(0%,0%,0%);fill-opacity:0.2;stroke:none;"/>
  </g>
</mask>
<clipPath id="clip4">
  <rect width="257" height="221"/>
</clipPath>
<g id="surface15" clip-path="url(#clip4)">
<path style=" stroke:none;fill-rule:nonzero;fill:rgb(32.156863%,45.882353%,62.745098%);fill-opacity:1;" d="M 107.226562 52.257812 C 106.617188 54.964844 104.984375 57.308594 103.546875 59.6875 C 102.785156 60.933594 102.078125 62.222656 101.417969 63.523438 C 100.449219 61.882812 99.78125 60.078125 99.597656 58.1875 C 99.300781 55.03125 100.503906 51.652344 103.058594 49.796875 C 104.253906 48.933594 105.65625 48.4375 107.125 48.214844 C 107.503906 49.507812 107.519531 50.949219 107.226562 52.257812 Z M 107.226562 52.257812 "/>
</g>
<mask id="mask4">
  <g filter="url(#alpha)">
<rect x="0" y="0" width="257" height="220" style="fill:rgb(0%,0%,0%);fill-opacity:0.2;stroke:none;"/>
  </g>
</mask>
<clipPath id="clip5">
  <rect width="257" height="221"/>
</clipPath>
<g id="surface18" clip-path="url(#clip5)">
<path style=" stroke:none;fill-rule:nonzero;fill:rgb(32.156863%,45.882353%,62.745098%);fill-opacity:1;" d="M 127.722656 75.828125 C 127.554688 76.867188 127.246094 77.867188 126.800781 78.828125 C 124.5 73.933594 122.476562 67.546875 121.988281 59.707031 C 121.859375 57.582031 122.449219 55.402344 123.574219 53.570312 C 123.6875 53.695312 123.785156 53.832031 123.882812 53.960938 C 125.503906 56.183594 126.335938 58.886719 126.949219 61.582031 C 128.011719 66.246094 128.488281 71.097656 127.722656 75.828125 Z M 127.722656 75.828125 "/>
</g>
<mask id="mask5">
  <g filter="url(#alpha)">
<rect x="0" y="0" width="257" height="220" style="fill:rgb(0%,0%,0%);fill-opacity:0.2;stroke:none;"/>
  </g>
</mask>
<clipPath id="clip6">
  <rect width="257" height="221"/>
</clipPath>
<g id="surface21" clip-path="url(#clip6)">
<path style=" stroke:none;fill-rule:nonzero;fill:rgb(32.156863%,45.882353%,62.745098%);fill-opacity:1;" d="M 240.347656 129.800781 C 239.527344 130.273438 238.660156 130.6875 237.789062 131.054688 C 234.398438 132.484375 230.753906 133.292969 227.082031 133.433594 C 221.730469 133.636719 216.230469 132.453125 211.097656 133.984375 C 208.742188 134.683594 206.570312 135.960938 204.789062 137.648438 C 204.609375 137.734375 204.429688 137.832031 204.253906 137.9375 C 203.824219 134.304688 212.855469 129.570312 215.601562 128.335938 C 220.558594 126.109375 226.078125 125.121094 231.496094 125.554688 C 233.867188 125.746094 236.296875 126.210938 238.253906 127.5625 C 239.09375 128.144531 239.828125 128.921875 240.347656 129.800781 Z M 240.347656 129.800781 "/>
</g>
<mask id="mask6">
  <g filter="url(#alpha)">
<rect x="0" y="0" width="257" height="220" style="fill:rgb(0%,0%,0%);fill-opacity:0.2;stroke:none;"/>
  </g>
</mask>
<clipPath id="clip7">
  <rect width="257" height="221"/>
</clipPath>
<g id="surface24" clip-path="url(#clip7)">
<path style=" stroke:none;fill-rule:nonzero;fill:rgb(32.156863%,45.882353%,62.745098%);fill-opacity:1;" d="M 213.273438 187.558594 L 50.34375 187.894531 C 48.171875 187.902344 46.402344 186.136719 46.402344 183.957031 L 46.179688 75.714844 C 46.171875 73.539062 47.933594 71.761719 50.105469 71.761719 L 213.035156 71.425781 C 215.207031 71.417969 216.976562 73.183594 216.976562 75.363281 L 217.199219 183.605469 C 217.207031 185.785156 215.449219 187.554688 213.273438 187.558594 Z M 213.273438 187.558594 "/>
</g>
<mask id="mask7">
  <g filter="url(#alpha)">
<rect x="0" y="0" width="257" height="220" style="fill:rgb(0%,0%,0%);fill-opacity:0.2;stroke:none;"/>
  </g>
</mask>
<clipPath id="clip8">
  <rect width="257" height="221"/>
</clipPath>
<g id="surface27" clip-path="url(#clip8)">
<path style=" stroke:none;fill-rule:nonzero;fill:rgb(32.156863%,45.882353%,62.745098%);fill-opacity:1;" d="M 153.488281 62.125 C 142.53125 61.707031 127.453125 69.828125 132.800781 89.691406 C 132.6875 91.371094 133.691406 92.570312 134.757812 92.246094 C 135.824219 91.917969 134.882812 88.730469 134.882812 88.730469 C 136.707031 73.960938 140.117188 71.410156 145.90625 71.464844 L 159.492188 71.4375 C 162.851562 71.929688 168.953125 74.289062 169.867188 86.109375 L 173.253906 86.734375 C 173.515625 78.191406 171.460938 62.8125 153.488281 62.125 Z M 153.488281 62.125 "/>
</g>
<mask id="mask8">
  <g filter="url(#alpha)">
<rect x="0" y="0" width="257" height="220" style="fill:rgb(0%,0%,0%);fill-opacity:0.2;stroke:none;"/>
  </g>
</mask>
<clipPath id="clip9">
  <rect width="257" height="221"/>
</clipPath>
<g id="surface30" clip-path="url(#clip9)">
<path style=" stroke:none;fill-rule:nonzero;fill:rgb(32.156863%,45.882353%,62.745098%);fill-opacity:1;" d="M 103.96875 159.878906 C 102.476562 163.9375 101.140625 167.90625 99.960938 171.660156 C 99.511719 165.914062 99.066406 161.296875 98.808594 160.363281 L 100.550781 159.976562 Z M 103.96875 159.878906 "/>
</g>
</defs>
<g id="surface1">
<path style=" stroke:none;fill-rule:nonzero;fill:rgb(92.54902%,95.294118%,100%);fill-opacity:1;" d="M 53.996094 27.972656 C 62.457031 28.542969 65.996094 22.753906 69.964844 15.3125 C 80.84375 -5.050781 105.078125 -3.089844 113.207031 9.449219 C 118.960938 18.332031 131.378906 16.503906 141.417969 13.027344 C 151.300781 9.605469 168.140625 6.320312 181.558594 10.410156 C 193.277344 13.984375 198.078125 26.863281 208.761719 26.070312 C 232.0625 24.34375 243.808594 47.40625 239.585938 57.46875 C 236.828125 64.035156 235.464844 71.382812 237.699219 78.136719 C 240.164062 85.578125 245.800781 91.46875 250.355469 97.867188 C 254.910156 104.261719 258.574219 112.261719 256.3125 119.765625 C 254.375 126.191406 248.597656 130.632812 245.011719 136.308594 C 233.871094 153.941406 244.890625 180.964844 230.050781 195.667969 C 219.425781 206.183594 202.109375 203.757812 187.242188 205.765625 C 174.847656 207.441406 163.183594 212.664062 150.84375 214.707031 C 125.855469 218.847656 100.621094 209.726562 75.289062 209.464844 C 66.367188 209.371094 57.273438 210.371094 48.632812 208.167969 C 37.097656 205.222656 27.285156 196.324219 23.285156 185.1875 C 17.761719 169.816406 22.992188 152.027344 16.757812 136.933594 C 11.679688 124.632812 -0.746094 114.625 0.0390625 101.351562 C 0.523438 93.085938 6.152344 86.179688 10.023438 78.847656 C 15.773438 67.960938 8.15625 24.898438 53.996094 27.972656 Z M 127.738281 8.019531 C 125.511719 8.019531 123.714844 9.40625 123.714844 11.109375 C 123.714844 12.816406 125.523438 14.054688 127.738281 14.199219 C 134.96875 14.679688 134.96875 11.75 134.96875 10.039062 C 134.96875 7.316406 129.960938 8.019531 127.738281 8.019531 Z M 201.148438 21.207031 C 203.082031 22.808594 205.546875 23.761719 208.058594 23.894531 C 208.730469 23.925781 209.460938 23.882812 209.976562 23.460938 C 210.613281 22.933594 210.683594 21.851562 210.117188 21.25 C 209.757812 20.867188 209.238281 20.699219 208.753906 20.5 C 207.925781 20.164062 207.117188 19.679688 206.644531 18.925781 C 206.511719 18.707031 206.390625 18.453125 206.167969 18.328125 C 204.777344 17.539062 198.605469 19.097656 201.148438 21.207031 Z M 213.464844 23.9375 C 214.101562 24.160156 214.796875 23.953125 215.441406 23.746094 C 215.851562 23.609375 216.355469 23.316406 216.246094 22.90625 C 216.191406 22.703125 216.007812 22.574219 215.824219 22.476562 C 214.980469 22.027344 213.886719 21.6875 213.039062 22.269531 C 212.191406 22.84375 212.828125 23.71875 213.464844 23.9375 Z M 242.863281 82.1875 C 242.96875 83.148438 243.566406 83.980469 244.132812 84.761719 C 245.238281 86.273438 246.359375 87.804688 247.816406 88.980469 C 248.433594 89.480469 249.148438 89.925781 249.945312 89.953125 C 250.667969 89.980469 251.363281 89.648438 251.949219 89.226562 C 253.378906 88.199219 254.339844 86.554688 254.542969 84.8125 C 254.8125 82.421875 253.703125 80.09375 252.414062 78.054688 C 251.613281 76.796875 250.679688 75.535156 249.347656 74.863281 C 247.105469 73.726562 245.628906 74.714844 245 76.710938 C 244.429688 78.542969 242.628906 80.148438 242.863281 82.1875 Z M 4.398438 137.851562 C 3.214844 138.890625 4.28125 141.945312 4.628906 143.957031 C 4.734375 144.5625 4.875 145.1875 5.253906 145.667969 C 5.773438 146.328125 6.636719 146.597656 7.445312 146.835938 C 8.878906 147.253906 10.625 147.609375 11.722656 146.597656 C 12.535156 145.847656 12.65625 144.621094 12.648438 143.519531 C 12.648438 142.507812 12.59375 141.503906 12.488281 140.5 C 12.4375 140.015625 12.367188 139.523438 12.109375 139.109375 C 11.777344 138.582031 11.191406 138.277344 10.625 138.035156 C 8.570312 137.164062 5.578125 136.8125 4.398438 137.851562 Z M 76.535156 214.292969 C 75.835938 214.433594 75.003906 214.738281 74.898438 215.4375 C 74.820312 216.019531 75.300781 216.511719 75.773438 216.863281 C 79.621094 219.746094 84.808594 219.929688 89.628906 219.996094 C 90.191406 220 90.777344 220.003906 91.289062 219.789062 C 92.320312 219.355469 92.816406 217.992188 92.335938 216.984375 C 92.164062 216.617188 91.886719 216.308594 91.59375 216.023438 C 87.726562 212.238281 81.359375 213.328125 76.535156 214.292969 Z M 172.738281 212.34375 C 168.390625 215.53125 172.785156 218.382812 178.277344 216.269531 C 181.234375 215.128906 184.070312 214.003906 187.101562 213.246094 C 188.082031 213 194.003906 211.714844 194.003906 210.382812 C 194.003906 206.847656 187.335938 207.683594 183.140625 208.269531 C 179.753906 208.742188 176.320312 209.714844 172.738281 212.34375 Z M 172.738281 212.34375 "/>
<path style=" stroke:none;fill-rule:nonzero;fill:rgb(78.431373%,85.882353%,98.431373%);fill-opacity:1;" d="M 91.03125 203.128906 C 102.589844 203.128906 111.960938 202.25 111.960938 201.167969 C 111.960938 200.085938 102.589844 199.207031 91.03125 199.207031 C 79.472656 199.207031 70.101562 200.085938 70.101562 201.167969 C 70.101562 202.25 79.472656 203.128906 91.03125 203.128906 Z M 91.03125 203.128906 "/>
<path style=" stroke:none;fill-rule:nonzero;fill:rgb(78.431373%,85.882353%,98.431373%);fill-opacity:1;" d="M 198.546875 203.128906 C 210.105469 203.128906 219.472656 202.25 219.472656 201.167969 C 219.472656 200.085938 210.105469 199.207031 198.546875 199.207031 C 186.988281 199.207031 177.617188 200.085938 177.617188 201.167969 C 177.617188 202.25 186.988281 203.128906 198.546875 203.128906 Z M 198.546875 203.128906 "/>
<path style="fill:none;stroke-width:1;stroke-linecap:round;stroke-linejoin:round;stroke:rgb(78.431373%,85.882353%,98.431373%);stroke-opacity:1;stroke-miterlimit:4;" d="M 485.53125 125.947479 C 485.40625 125.222567 485.28125 124.505451 485.140625 123.811719 " transform="matrix(0.5,0,0,0.501139,0,0)"/>
<path style="fill:none;stroke-width:1;stroke-linecap:round;stroke-linejoin:round;stroke:rgb(78.431373%,85.882353%,98.431373%);stroke-opacity:1;stroke-dasharray:3.99,3.99;stroke-miterlimit:4;" d="M 484.109375 119.618146 C 476.648438 94.176101 452.828125 96.63924 431.3125 96.678214 C 408.148438 96.724982 49.546875 97.473278 49.546875 97.473278 C 13.507812 97.54343 17 149.604528 45.21875 149.534375 C 61.4375 149.503196 67.609375 179.988441 39.5625 180.043004 C 22.734375 180.074183 22.1875 201.416193 33.507812 205.703303 " transform="matrix(0.5,0,0,0.501139,0,0)"/>
<path style="fill:none;stroke-width:1;stroke-linecap:round;stroke-linejoin:round;stroke:rgb(78.431373%,85.882353%,98.431373%);stroke-opacity:1;stroke-miterlimit:4;" d="M 35.585938 206.256729 C 36.265625 206.373651 36.992188 206.436009 37.75 206.428214 " transform="matrix(0.5,0,0,0.501139,0,0)"/>
<path style=" stroke:none;fill-rule:nonzero;fill:rgb(31.764706%,57.647059%,95.686275%);fill-opacity:1;" d="M 21.085938 102.953125 C 21.324219 104.371094 20.375 105.710938 18.964844 105.957031 C 17.550781 106.195312 16.210938 105.246094 15.96875 103.828125 C 15.730469 102.410156 16.679688 101.070312 18.089844 100.824219 C 19.503906 100.585938 20.847656 101.542969 21.085938 102.953125 Z M 21.085938 102.953125 "/>
<path style=" stroke:none;fill-rule:nonzero;fill:rgb(31.764706%,57.647059%,95.686275%);fill-opacity:1;" d="M 245.316406 64.289062 C 245.058594 65.703125 243.707031 66.640625 242.296875 66.378906 C 240.890625 66.125 239.953125 64.769531 240.214844 63.355469 C 240.46875 61.945312 241.820312 61.003906 243.230469 61.265625 C 244.636719 61.519531 245.570312 62.871094 245.316406 64.289062 Z M 245.316406 64.289062 "/>
<path style=" stroke:none;fill-rule:nonzero;fill:rgb(31.764706%,57.647059%,95.686275%);fill-opacity:1;" d="M 47.523438 83.957031 C 47.148438 86.070312 46.601562 88.136719 45.933594 90.171875 C 44.5 94.5625 42.519531 98.792969 40.515625 102.96875 C 39.46875 105.152344 35.230469 110.203125 32.957031 111.164062 C 33.222656 105.46875 33.242188 98.816406 32.582031 93.066406 C 31.949219 87.527344 33.9375 83.328125 31.769531 78.191406 C 31.492188 77.535156 31.207031 76.878906 30.917969 76.222656 C 29.84375 73.777344 28.773438 71.320312 28.4375 68.6875 C 28.007812 65.347656 29.039062 61.542969 31.921875 59.804688 C 33.996094 58.554688 36.699219 58.621094 38.910156 59.601562 C 41.125 60.585938 42.902344 62.382812 44.25 64.398438 C 48.027344 70.023438 48.707031 77.289062 47.523438 83.957031 Z M 47.523438 83.957031 "/>
<path style="fill:none;stroke-width:1;stroke-linecap:round;stroke-linejoin:round;stroke:rgb(4.313725%,26.27451%,64.313725%);stroke-opacity:1;stroke-miterlimit:10;" d="M 74.898438 130.725657 C 83.382812 142.706179 84.117188 156.666566 84.851562 171.32848 C 85.585938 185.990394 82.070312 200.847177 74.820312 213.607173 " transform="matrix(0.5,0,0,0.501139,0,0)"/>
<path style=" stroke:none;fill-rule:nonzero;fill:rgb(0%,67.843137%,62.352941%);fill-opacity:1;" d="M 37.269531 176.28125 C 34.296875 173.648438 31.292969 170.972656 29.09375 167.660156 C 27.183594 164.777344 25.949219 161.503906 24.28125 158.46875 C 23.203125 156.507812 21.925781 154.613281 21.300781 152.460938 C 20.679688 150.3125 20.824219 147.761719 22.351562 146.125 C 23.945312 144.414062 26.679688 144.152344 28.839844 145.035156 C 31 145.914062 32.652344 147.738281 33.910156 149.703125 C 35.582031 152.316406 36.703125 155.285156 37.167969 158.355469 C 37.589844 161.136719 37.484375 163.980469 37.914062 166.761719 C 38.316406 169.351562 39.1875 171.839844 40.28125 174.210938 C 41.273438 176.363281 43.789062 180.199219 44.429688 182.40625 C 42.648438 183.292969 38.539062 177.402344 37.269531 176.28125 Z M 37.269531 176.28125 "/>
<path style="fill:none;stroke-width:1;stroke-linecap:round;stroke-linejoin:round;stroke:rgb(0%,67.843137%,62.352941%);stroke-opacity:1;stroke-miterlimit:10;" d="M 53.757812 297.252575 C 59.414062 299.723509 61.65625 306.473757 62.835938 312.530273 C 64.179688 319.428622 63.875 326.888192 67.039062 333.162962 C 72.992188 344.987589 80.734375 358.433523 86.5 362.455611 " transform="matrix(0.5,0,0,0.501139,0,0)"/>
<path style=" stroke:none;fill-rule:nonzero;fill:rgb(0%,33.72549%,92.54902%);fill-opacity:1;" d="M 22.644531 168.179688 C 20.179688 167.199219 16.882812 166.800781 15.300781 168.933594 C 13.980469 170.71875 14.664062 173.253906 15.578125 175.28125 C 16.351562 176.992188 17.332031 178.734375 18.957031 179.664062 C 20.066406 180.296875 21.371094 180.488281 22.644531 180.640625 C 26.191406 181.066406 29.761719 181.269531 33.335938 181.261719 C 37.472656 181.25 42.484375 182.941406 45.914062 185.535156 C 41.515625 177.34375 30.945312 171.464844 22.644531 168.179688 Z M 22.644531 168.179688 "/>
<path style="fill:none;stroke-width:1;stroke-linecap:round;stroke-linejoin:round;stroke:rgb(4.313725%,26.27451%,64.313725%);stroke-opacity:1;stroke-miterlimit:10;" d="M 36.640625 346.211364 C 42.921875 346.48418 49.257812 346.912891 55.273438 348.705682 C 61.4375 350.521857 85.148438 361.411115 88.851562 366.041193 " transform="matrix(0.5,0,0,0.501139,0,0)"/>
<path style=" stroke:none;fill-rule:nonzero;fill:rgb(32.156863%,82.352941%,73.72549%);fill-opacity:1;" d="M 49.546875 151.367188 C 46.335938 146.328125 40.84375 142.808594 34.9375 142.007812 C 30.574219 141.421875 26.082031 142.238281 21.773438 141.332031 C 17.246094 140.378906 13.164062 137.453125 10.804688 133.460938 C 8.441406 129.472656 7.824219 124.484375 9.152344 120.039062 C 10.164062 116.660156 12.476562 113.457031 15.824219 112.375 C 17.648438 111.789062 19.640625 111.871094 21.503906 112.316406 C 23.226562 112.730469 24.820312 113.449219 26.296875 114.390625 C 29.664062 116.53125 32.386719 119.820312 34.433594 123.316406 C 36.292969 126.496094 40.871094 131.441406 43.992188 134.660156 C 45.820312 136.539062 47.148438 137.828125 47.148438 137.828125 C 49.28125 140.5 48.28125 148.1875 49.546875 151.367188 Z M 49.546875 151.367188 "/>
<path style="fill:none;stroke-width:1;stroke-linecap:round;stroke-linejoin:round;stroke:rgb(0%,67.843137%,62.352941%);stroke-opacity:1;stroke-miterlimit:10;" d="M 29.6875 243.73386 C 50.664062 253.204474 73.539062 265.621502 88.414062 283.198651 " transform="matrix(0.5,0,0,0.501139,0,0)"/>
<use xlink:href="#surface6" mask="url(#mask0)"/>
<use xlink:href="#surface9" mask="url(#mask1)"/>
<path style=" stroke:none;fill-rule:nonzero;fill:rgb(49.411765%,90.980392%,83.137255%);fill-opacity:1;" d="M 45.214844 137.554688 C 42.746094 124.625 41.445312 122.632812 42.535156 119.390625 C 43.921875 115.257812 43.140625 111.109375 44.445312 106.949219 C 45.75 102.796875 46.640625 98.328125 45.589844 94.097656 C 45.257812 92.761719 44.582031 91.304688 42.980469 91.246094 C 42.335938 91.222656 41.710938 91.484375 41.222656 91.902344 C 39.988281 92.957031 39.679688 94.535156 39.398438 96.046875 L 38.457031 101.089844 C 38.148438 102.730469 35.789062 102.828125 35.414062 101.199219 C 35.410156 101.183594 35.410156 101.171875 35.402344 101.15625 C 35.101562 99.792969 35.257812 98.371094 35.441406 96.980469 C 35.847656 93.960938 36.394531 90.929688 36.144531 87.894531 C 35.839844 84.226562 34.195312 80.445312 30.628906 78.917969 C 29.367188 78.375 27.9375 78.257812 26.605469 78.597656 C 22.882812 79.554688 21.917969 83.203125 22.46875 86.316406 C 22.851562 88.507812 23.875 90.523438 24.800781 92.542969 C 27.0625 97.480469 25.402344 102.007812 25.714844 107.433594 C 26.582031 122.417969 45.214844 137.554688 45.214844 137.554688 Z M 45.214844 137.554688 "/>
<path style="fill:none;stroke-width:1;stroke-linecap:round;stroke-linejoin:round;stroke:rgb(0%,67.843137%,62.352941%);stroke-opacity:1;stroke-miterlimit:10;" d="M 57.226562 164.663974 C 60.898438 183.020597 64.609375 201.50973 71.734375 218.821857 C 73.828125 223.896236 74.84375 230.576332 86.945312 244.388619 " transform="matrix(0.5,0,0,0.501139,0,0)"/>
<path style=" stroke:none;fill-rule:nonzero;fill:rgb(31.764706%,57.647059%,95.686275%);fill-opacity:1;" d="M 100.226562 84.875 C 98.324219 82.699219 96.570312 80.484375 94.722656 78.347656 C 93.527344 76.964844 92.292969 75.613281 90.949219 74.332031 C 90.285156 73.691406 89.597656 73.070312 88.871094 72.46875 C 84.582031 68.917969 79.796875 65.96875 74.679688 63.773438 C 71.589844 62.449219 68.332031 61.359375 65.710938 59.246094 C 63.089844 57.136719 61.207031 53.671875 62.078125 50.421875 C 62.710938 48.074219 64.699219 46.25 66.976562 45.414062 C 69.253906 44.582031 71.777344 44.648438 74.140625 45.160156 C 80.746094 46.585938 86.265625 51.351562 90.019531 56.980469 C 90.082031 57.078125 90.152344 57.179688 90.21875 57.285156 C 92.96875 61.492188 94.890625 66.175781 96.566406 70.941406 C 97.101562 72.472656 97.609375 74.015625 98.113281 75.550781 C 98.871094 77.847656 101.199219 82.601562 100.226562 84.875 Z M 100.226562 84.875 "/>
<path style="fill:none;stroke-width:1;stroke-linecap:round;stroke-linejoin:round;stroke:rgb(4.313725%,26.27451%,64.313725%);stroke-opacity:1;stroke-miterlimit:10;" d="M 140.007812 101.152397 C 154.421875 103.903942 164.625 113.452504 175.3125 123.507724 C 186.007812 133.562944 193.757812 146.712678 197.390625 160.938086 " transform="matrix(0.5,0,0,0.501139,0,0)"/>
<use xlink:href="#surface12" mask="url(#mask2)"/>
<path style=" stroke:none;fill-rule:nonzero;fill:rgb(32.156863%,82.352941%,73.72549%);fill-opacity:1;" d="M 107.226562 52.257812 C 106.617188 54.964844 104.984375 57.308594 103.546875 59.683594 C 102.785156 60.933594 102.078125 62.222656 101.417969 63.523438 C 99.300781 67.695312 97.6875 72.121094 96.621094 76.675781 C 96.265625 78.171875 96.074219 79.636719 96.355469 81.152344 C 92.800781 80.335938 91.382812 70.210938 91.144531 67.199219 C 90.71875 61.78125 91.636719 56.226562 93.863281 51.261719 C 94.832031 49.085938 96.089844 46.945312 98.023438 45.550781 C 99.949219 44.152344 102.679688 43.664062 104.71875 44.882812 C 105.949219 45.613281 106.738281 46.832031 107.125 48.214844 C 107.503906 49.507812 107.519531 50.949219 107.226562 52.257812 Z M 107.226562 52.257812 "/>
<path style="fill:none;stroke-width:1;stroke-linecap:round;stroke-linejoin:round;stroke:rgb(0%,67.843137%,62.352941%);stroke-opacity:1;stroke-miterlimit:10;" d="M 190 155.972834 C 185.578125 144.865323 188.265625 121.364169 195.351562 106.593129 C 197.484375 102.14233 200.523438 97.972141 204.78125 95.485618 " transform="matrix(0.5,0,0,0.501139,0,0)"/>
<use xlink:href="#surface15" mask="url(#mask3)"/>
<path style=" stroke:none;fill-rule:nonzero;fill:rgb(0%,67.843137%,62.352941%);fill-opacity:1;" d="M 127.722656 75.828125 C 127.554688 76.867188 127.246094 77.867188 126.800781 78.828125 C 125.226562 82.25 121.917969 85.179688 116.964844 87.570312 C 116.964844 87.570312 116.6875 82.160156 116.628906 80.710938 C 116.382812 74.511719 109.675781 71.082031 105.429688 66.558594 C 103.269531 64.253906 101.628906 61.339844 101.324219 58.1875 C 101.027344 55.03125 102.230469 51.652344 104.785156 49.796875 C 106.929688 48.242188 109.734375 47.90625 112.378906 48.109375 C 116.632812 48.449219 120.925781 50.234375 123.574219 53.570312 C 123.6875 53.695312 123.785156 53.832031 123.882812 53.960938 C 125.503906 56.183594 126.335938 58.886719 126.949219 61.582031 C 128.011719 66.246094 128.488281 71.097656 127.722656 75.828125 Z M 127.722656 75.828125 "/>
<path style="fill:none;stroke-width:1;stroke-linecap:round;stroke-linejoin:round;stroke:rgb(0%,67.843137%,62.352941%);stroke-opacity:1;stroke-miterlimit:10;" d="M 213.234375 106.000728 C 222.523438 110.810085 231.828125 116.61717 237.226562 125.565536 C 244.78125 138.060511 243.132812 154.312553 237.320312 167.696129 " transform="matrix(0.5,0,0,0.501139,0,0)"/>
<path style=" stroke:none;fill-rule:nonzero;fill:rgb(32.156863%,82.352941%,73.72549%);fill-opacity:1;" d="M 205.429688 115.824219 C 208.390625 110.9375 206.875 104.648438 207.90625 99.027344 C 208.699219 94.707031 211.097656 90.699219 214.53125 87.960938 C 216.683594 86.246094 219.710938 85.019531 222.144531 86.304688 C 222.667969 86.582031 223.296875 86.976562 223.804688 86.664062 C 224.109375 86.480469 224.226562 86.097656 224.304688 85.75 C 224.921875 82.714844 223.464844 79.398438 224.65625 76.535156 C 225.296875 74.992188 226.621094 73.84375 228.023438 72.945312 C 230.730469 71.214844 233.898438 70.21875 237.105469 70.089844 C 237.957031 70.058594 238.84375 70.089844 239.605469 70.46875 C 240.984375 71.160156 241.609375 72.878906 241.425781 74.414062 C 241.242188 75.945312 240.398438 77.316406 239.464844 78.542969 C 236.359375 82.621094 231.804688 86.140625 231.203125 91.234375 C 231.128906 91.875 231.128906 92.558594 231.417969 93.136719 C 231.707031 93.695312 232.238281 94.09375 232.535156 94.640625 C 233.492188 96.40625 231.640625 98.410156 229.839844 99.273438 C 228.1875 100.066406 226.398438 100.558594 224.574219 100.734375 C 223.320312 100.851562 221.90625 100.878906 221.050781 101.808594 C 219.472656 103.523438 221.28125 106.265625 220.953125 108.574219 C 220.746094 110.011719 219.707031 111.175781 218.65625 112.1875 C 216.710938 114.058594 214.589844 115.738281 212.320312 117.199219 C 210.480469 118.382812 208.535156 119.425781 206.90625 120.878906 C 205.277344 122.335938 203.960938 124.304688 203.851562 126.496094 "/>
<path style="fill:none;stroke-width:1;stroke-linecap:round;stroke-linejoin:round;stroke:rgb(0%,67.843137%,62.352941%);stroke-opacity:1;stroke-miterlimit:10;" d="M 418.65625 221.627965 C 419.617188 216.90435 421.8125 212.523704 423.992188 208.2288 C 427.390625 201.494141 430.859375 194.665945 435.992188 189.15506 C 439.890625 184.961488 444.648438 181.640927 448.609375 177.517507 C 451.4375 174.571094 453.84375 171.227148 455.734375 167.610387 C 456.765625 165.646112 457.648438 163.588299 459.023438 161.865661 C 460.671875 159.823437 462.914062 158.358026 464.875 156.604208 C 467.515625 154.242401 469.640625 151.303782 471.070312 148.053374 " transform="matrix(0.5,0,0,0.501139,0,0)"/>
<path style=" stroke:none;fill-rule:nonzero;fill:rgb(31.764706%,57.647059%,95.686275%);fill-opacity:1;" d="M 247.941406 119.210938 C 247.273438 121.785156 246.285156 124.332031 244.582031 126.375 C 243.410156 127.78125 241.945312 128.894531 240.347656 129.800781 C 239.527344 130.273438 238.660156 130.6875 237.789062 131.054688 C 234.398438 132.484375 230.753906 133.292969 227.082031 133.433594 C 221.734375 133.636719 216.230469 132.453125 211.097656 133.984375 C 208.742188 134.683594 206.570312 135.960938 204.789062 137.648438 C 203.671875 138.695312 202.714844 139.90625 201.957031 141.238281 L 202.65625 136.785156 C 203.949219 131.996094 205.269531 127.121094 207.914062 122.921875 C 209.617188 120.203125 211.832031 117.832031 214.1875 115.65625 C 217.953125 112.167969 222.128906 109.101562 226.734375 106.859375 C 230.460938 105.042969 234.597656 103.769531 238.714844 104.273438 C 242.824219 104.773438 246.863281 107.378906 248.148438 111.328125 C 248.96875 113.863281 248.613281 116.632812 247.941406 119.210938 Z M 247.941406 119.210938 "/>
<path style="fill:none;stroke-width:1;stroke-linecap:round;stroke-linejoin:round;stroke:rgb(4.313725%,26.27451%,64.313725%);stroke-opacity:1;stroke-miterlimit:10;" d="M 412.304688 266.190518 C 420.171875 254.54517 431.9375 245.596804 445.265625 241.1538 C 453.554688 238.378871 462.34375 237.334375 470.742188 234.902415 C 479.148438 232.478249 487.539062 228.362624 492.46875 221.121307 " transform="matrix(0.5,0,0,0.501139,0,0)"/>
<path style=" stroke:none;fill-rule:nonzero;fill:rgb(32.156863%,82.352941%,73.72549%);fill-opacity:1;" d="M 208.742188 176.171875 C 208.972656 170.183594 212.0625 164.652344 215.8125 159.984375 C 218.9375 156.089844 222.710938 152.527344 227.375 150.753906 C 228.835938 150.199219 230.441406 149.824219 231.957031 150.199219 C 233.472656 150.574219 234.847656 151.871094 234.875 153.441406 C 234.894531 154.757812 234.011719 155.917969 233.082031 156.851562 C 230.015625 159.929688 226.058594 161.902344 222.34375 164.148438 C 215.964844 168.015625 209.902344 173.175781 207.371094 180.207031 "/>
<path style="fill:none;stroke-width:1;stroke-linecap:round;stroke-linejoin:round;stroke:rgb(0%,67.843137%,62.352941%);stroke-opacity:1;stroke-miterlimit:10;" d="M 422.203125 341.082422 C 430 323.684553 450.1875 308.118448 463.5 306.185352 " transform="matrix(0.5,0,0,0.501139,0,0)"/>
<path style=" stroke:none;fill-rule:nonzero;fill:rgb(0%,67.843137%,62.352941%);fill-opacity:1;" d="M 206.304688 180.933594 C 206.25 179.929688 209.515625 177.304688 210.253906 176.636719 C 214.328125 172.929688 219.171875 170.203125 224.289062 168.597656 C 226.355469 167.945312 228.558594 167.472656 230.628906 167.972656 C 232.703125 168.472656 234.605469 170.175781 234.804688 172.414062 C 235 174.585938 233.546875 176.714844 231.691406 177.761719 C 229.832031 178.816406 227.667969 178.972656 225.597656 178.855469 C 222.402344 178.667969 219.261719 177.871094 216.058594 177.894531 C 212.847656 177.921875 208.339844 178.246094 206.304688 180.933594 Z M 206.304688 180.933594 "/>
<path style="fill:none;stroke-width:1;stroke-linecap:round;stroke-linejoin:round;stroke:rgb(0%,67.843137%,62.352941%);stroke-opacity:1;stroke-miterlimit:10;" d="M 419.257812 354.964862 C 432.375 347.856055 452.203125 343.233771 466.609375 344.979794 " transform="matrix(0.5,0,0,0.501139,0,0)"/>
<use xlink:href="#surface18" mask="url(#mask4)"/>
<path style=" stroke:none;fill-rule:nonzero;fill:rgb(49.411765%,90.980392%,83.137255%);fill-opacity:1;" d="M 150.40625 75.550781 C 155.300781 73.808594 160.390625 72.417969 164.84375 69.726562 C 166.191406 68.910156 167.484375 67.964844 168.445312 66.71875 C 169.398438 65.46875 169.988281 63.871094 169.777344 62.308594 C 169.558594 60.722656 168.546875 59.203125 168.886719 57.632812 C 169.113281 56.601562 169.882812 55.796875 170.472656 54.917969 C 171.875 52.835938 172.292969 50.117188 171.585938 47.707031 C 170.816406 45.121094 168.882812 43.046875 167.78125 40.585938 C 166.882812 38.570312 166.566406 36.308594 166.867188 34.125 C 162.757812 34.179688 159.011719 36.433594 154.972656 37.183594 C 151.878906 37.757812 148.667969 37.441406 145.601562 38.148438 C 140.019531 39.433594 135.449219 44.367188 134.585938 50.046875 C 131.996094 49.601562 129.207031 50.535156 127.402344 52.457031 C 125.492188 54.5 124.414062 57.40625 124.585938 60.199219 C 125.847656 80.527344 137.453125 91.125 137.453125 91.125 C 137.453125 91.125 148.539062 76.222656 150.40625 75.550781 Z M 150.40625 75.550781 "/>
<path style="fill:none;stroke-width:1;stroke-linecap:round;stroke-linejoin:round;stroke:rgb(0%,67.843137%,62.352941%);stroke-opacity:1;stroke-miterlimit:10;" d="M 278.90625 150.477539 C 277.882812 140.476882 281.382812 130.585352 285.390625 121.364169 C 289.296875 112.376829 293.804688 103.568768 299.851562 95.851971 C 305.890625 88.142969 313.570312 81.533026 322.632812 77.799343 " transform="matrix(0.5,0,0,0.501139,0,0)"/>
<path style="fill:none;stroke-width:1;stroke-linecap:round;stroke-linejoin:round;stroke:rgb(0%,67.843137%,62.352941%);stroke-opacity:1;stroke-miterlimit:10;" d="M 287.625 83.949396 C 286.59375 92.866584 287.320312 103.615536 289.632812 112.283292 " transform="matrix(0.5,0,0,0.501139,0,0)"/>
<path style="fill:none;stroke-width:1;stroke-linecap:round;stroke-linejoin:round;stroke:rgb(0%,67.843137%,62.352941%);stroke-opacity:1;stroke-miterlimit:10;" d="M 291.304688 109.087447 C 301.484375 102.555451 317.140625 98.587926 329.21875 99.281658 " transform="matrix(0.5,0,0,0.501139,0,0)"/>
<path style="fill:none;stroke-width:1;stroke-linecap:round;stroke-linejoin:round;stroke:rgb(0%,67.843137%,62.352941%);stroke-opacity:1;stroke-miterlimit:10;" d="M 266.40625 110.755522 C 278.664062 115.923437 279.164062 133.952681 279.5 139.081623 " transform="matrix(0.5,0,0,0.501139,0,0)"/>
<path style="fill:none;stroke-width:1;stroke-linecap:round;stroke-linejoin:round;stroke:rgb(0%,67.843137%,62.352941%);stroke-opacity:1;stroke-miterlimit:10;" d="M 282.835938 127.615554 C 292.210938 120.88869 305.765625 118.862056 315.734375 121.371964 " transform="matrix(0.5,0,0,0.501139,0,0)"/>
<path style="fill:none;stroke-width:1;stroke-linecap:round;stroke-linejoin:round;stroke:rgb(0%,67.843137%,62.352941%);stroke-opacity:1;stroke-miterlimit:10;" d="M 308.429688 79.311523 C 305.609375 82.787979 304.90625 86.926989 305.1875 89.795455 " transform="matrix(0.5,0,0,0.501139,0,0)"/>
<path style="fill:none;stroke-width:1;stroke-linecap:round;stroke-linejoin:round;stroke:rgb(0%,67.843137%,62.352941%);stroke-opacity:1;stroke-miterlimit:10;" d="M 307.851562 87.254368 C 312.171875 85.040661 317.953125 84.534002 324.140625 86.085156 " transform="matrix(0.5,0,0,0.501139,0,0)"/>
<path style=" stroke:none;fill-rule:nonzero;fill:rgb(29.019608%,28.627451%,79.215686%);fill-opacity:1;" d="M 33.355469 53.558594 C 33.929688 53.527344 37.863281 50.609375 39.371094 49.628906 C 39.800781 49.351562 40.226562 49.0625 40.527344 48.652344 C 40.824219 48.238281 40.964844 47.671875 40.746094 47.210938 C 40.476562 46.640625 40.03125 46.070312 38.910156 46.070312 C 36.957031 46.078125 36.273438 46.722656 35.320312 47.707031 C 32.175781 50.96875 33.355469 53.558594 33.355469 53.558594 Z M 33.355469 53.558594 "/>
<path style=" stroke:none;fill-rule:nonzero;fill:rgb(29.019608%,28.627451%,79.215686%);fill-opacity:1;" d="M 50.972656 65.328125 C 52.683594 66.097656 54.507812 66.863281 56.371094 66.625 C 57.089844 66.53125 57.878906 66.203125 58.117188 65.515625 C 58.324219 64.929688 58.042969 64.253906 57.578125 63.839844 C 57.113281 63.425781 56.5 63.226562 55.894531 63.078125 C 53.617188 62.519531 50.417969 62.828125 48.167969 63.46875 C 48.160156 63.46875 49.949219 64.867188 50.972656 65.328125 Z M 50.972656 65.328125 "/>
<path style=" stroke:none;fill-rule:nonzero;fill:rgb(29.019608%,28.627451%,79.215686%);fill-opacity:1;" d="M 62.234375 39.988281 C 61.472656 39.507812 60.625 38.859375 60.632812 37.953125 C 60.632812 37.046875 61.574219 36.355469 62.476562 36.351562 C 63.382812 36.34375 64.222656 36.839844 64.902344 37.441406 C 67.78125 39.976562 67.421875 42.867188 67.421875 42.867188 C 67.421875 42.867188 63.085938 40.527344 62.234375 39.988281 Z M 62.234375 39.988281 "/>
<path style=" stroke:none;fill-rule:nonzero;fill:rgb(29.019608%,28.627451%,79.215686%);fill-opacity:1;" d="M 64.503906 32.261719 C 63.832031 31.972656 63.144531 31.625 62.75 31.007812 C 62.558594 30.707031 62.449219 30.328125 62.566406 29.992188 C 62.757812 29.433594 63.113281 28.925781 64.523438 29.183594 C 68.992188 29.996094 69.96875 33.066406 69.96875 33.066406 C 69.96875 33.066406 65.6875 32.773438 64.503906 32.261719 Z M 64.503906 32.261719 "/>
<path style=" stroke:none;fill-rule:nonzero;fill:rgb(29.019608%,28.627451%,79.215686%);fill-opacity:1;" d="M 77.589844 39.050781 C 79.382812 38.890625 81.234375 38 82.363281 36.59375 C 82.789062 36.0625 83.179688 35.480469 83.320312 34.8125 C 83.460938 34.144531 83.308594 33.386719 82.796875 32.941406 C 82.167969 32.398438 81.171875 32.484375 80.484375 32.941406 C 79.789062 33.398438 79.34375 34.144531 78.988281 34.890625 C 78.511719 35.890625 77.589844 39.050781 77.589844 39.050781 Z M 77.589844 39.050781 "/>
<path style="fill:none;stroke-width:1;stroke-linecap:round;stroke-linejoin:round;stroke:rgb(4.313725%,26.27451%,64.313725%);stroke-opacity:1;stroke-miterlimit:10;" d="M 91.1875 208.665305 C 82.515625 201.018661 73.828125 193.356428 65.15625 185.709783 C 60.53125 181.633132 55.804688 177.431765 52.882812 171.998828 C 46.59375 160.330096 50.21875 145.169318 58.71875 134.997177 C 67.21875 124.817241 79.679688 118.815288 92.195312 114.450231 C 104.703125 110.085174 117.734375 107.014045 129.65625 101.230344 C 137.140625 97.597994 144.65625 92.204031 146.710938 84.144265 C 147.945312 79.295934 146.90625 73.909766 143.960938 69.879883 C 141.015625 65.842205 136.210938 63.215376 131.21875 62.926971 " transform="matrix(0.5,0,0,0.501139,0,0)"/>
<path style="fill:none;stroke-width:1;stroke-linecap:round;stroke-linejoin:round;stroke:rgb(4.313725%,26.27451%,64.313725%);stroke-opacity:1;stroke-miterlimit:10;" d="M 161.25 69.599272 C 158.875 76.879563 149.640625 81.314773 145.421875 87.628516 " transform="matrix(0.5,0,0,0.501139,0,0)"/>
<path style="fill:none;stroke-width:1;stroke-linecap:round;stroke-linejoin:round;stroke:rgb(4.313725%,26.27451%,64.313725%);stroke-opacity:1;stroke-miterlimit:10;" d="M 128.085938 77.978622 C 129.90625 79.896129 132.078125 81.486257 133.671875 83.598633 C 137.03125 88.072816 137.304688 95.345312 132.34375 99.850675 " transform="matrix(0.5,0,0,0.501139,0,0)"/>
<path style="fill:none;stroke-width:1;stroke-linecap:round;stroke-linejoin:round;stroke:rgb(4.313725%,26.27451%,64.313725%);stroke-opacity:1;stroke-miterlimit:10;" d="M 81.351562 118.760724 C 89.007812 124.669141 99.070312 128.605487 108.734375 128.971839 " transform="matrix(0.5,0,0,0.501139,0,0)"/>
<path style="fill:none;stroke-width:1;stroke-linecap:round;stroke-linejoin:round;stroke:rgb(4.313725%,26.27451%,64.313725%);stroke-opacity:1;stroke-miterlimit:10;" d="M 63.828125 129.509677 C 60.304688 119.111488 64.148438 106.647692 72.921875 100.045543 " transform="matrix(0.5,0,0,0.501139,0,0)"/>
<path style=" stroke:none;fill-rule:nonzero;fill:rgb(29.019608%,28.627451%,79.215686%);fill-opacity:1;" d="M 171.84375 42.878906 C 171.636719 42.230469 171.648438 41.4375 172.121094 40.957031 C 172.5 40.574219 173.128906 40.402344 173.621094 40.621094 C 177.425781 42.296875 177.015625 48.253906 177.015625 48.253906 C 177.015625 48.253906 173.410156 47.734375 171.84375 42.878906 Z M 171.84375 42.878906 "/>
<path style=" stroke:none;fill-rule:nonzero;fill:rgb(29.019608%,28.627451%,79.215686%);fill-opacity:1;" d="M 171.753906 54.039062 C 169.289062 58.5 178.039062 58.160156 181.195312 55.53125 C 181.195312 55.53125 173.875 50.191406 171.753906 54.039062 Z M 171.753906 54.039062 "/>
<path style=" stroke:none;fill-rule:nonzero;fill:rgb(29.019608%,28.627451%,79.215686%);fill-opacity:1;" d="M 182.820312 43.21875 C 182.222656 42.40625 182.011719 41.1875 182.664062 40.414062 C 183.144531 39.835938 183.984375 39.65625 184.722656 39.800781 C 185.457031 39.941406 186.5625 40.625 187.03125 41.210938 C 189.914062 44.804688 188.558594 48.320312 188.558594 48.320312 C 188.558594 48.320312 183.789062 44.554688 182.820312 43.21875 Z M 182.820312 43.21875 "/>
<path style=" stroke:none;fill-rule:nonzero;fill:rgb(29.019608%,28.627451%,79.215686%);fill-opacity:1;" d="M 217.574219 54.269531 C 217.363281 53.574219 217.410156 52.730469 217.949219 52.238281 C 218.289062 51.929688 218.769531 51.820312 219.226562 51.855469 C 219.679688 51.886719 220.117188 52.054688 220.535156 52.246094 C 221.429688 52.652344 222.121094 53.371094 222.550781 54.253906 C 223.632812 56.492188 222.898438 59.257812 222.898438 59.257812 C 222.898438 59.257812 218.105469 56.003906 217.574219 54.269531 Z M 217.574219 54.269531 "/>
<path style=" stroke:none;fill-rule:nonzero;fill:rgb(29.019608%,28.627451%,79.215686%);fill-opacity:1;" d="M 206.640625 62.460938 C 205.09375 61.097656 202.726562 60.695312 200.835938 61.527344 C 200.355469 61.738281 199.898438 62.035156 199.597656 62.460938 C 198.902344 63.421875 199.148438 64.824219 199.867188 65.761719 C 200.582031 66.699219 201.671875 67.269531 202.746094 67.761719 C 204.695312 68.644531 207.71875 68.824219 209.792969 69.355469 C 209.785156 69.351562 209.78125 65.222656 206.640625 62.460938 Z M 206.640625 62.460938 "/>
<path style="fill:none;stroke-width:1;stroke-linecap:round;stroke-linejoin:round;stroke:rgb(4.313725%,26.27451%,64.313725%);stroke-opacity:1;stroke-miterlimit:10;" d="M 349.148438 87.480415 C 351.726562 95.906534 359.015625 102.282635 367.125 105.712322 C 375.234375 109.165394 384.171875 110.069585 392.976562 110.638601 C 401.765625 111.207617 410.671875 111.488228 419.171875 113.803267 C 427.460938 116.055948 435.71875 120.732795 439.273438 128.558718 C 443.601562 138.083896 439.773438 149.464222 433.6875 157.976083 C 427.609375 166.487944 419.421875 173.347319 413.539062 181.99169 C 410.84375 185.959215 408.578125 190.620472 409.132812 195.383061 C 409.859375 201.743572 415.21875 206.428214 420.1875 210.458097 " transform="matrix(0.5,0,0,0.501139,0,0)"/>
<path style="fill:none;stroke-width:1;stroke-linecap:round;stroke-linejoin:round;stroke:rgb(4.313725%,26.27451%,64.313725%);stroke-opacity:1;stroke-miterlimit:10;" d="M 369.421875 84.378107 C 375.25 90.824361 379.90625 100.918555 381.039062 109.539542 " transform="matrix(0.5,0,0,0.501139,0,0)"/>
<path style="fill:none;stroke-width:1;stroke-linecap:round;stroke-linejoin:round;stroke:rgb(4.313725%,26.27451%,64.313725%);stroke-opacity:1;stroke-miterlimit:10;" d="M 349.820312 109.3057 C 353.15625 110.1943 356.53125 111.082901 359.976562 111.090696 C 363.421875 111.098491 367.414062 109.180984 369.898438 106.787997 " transform="matrix(0.5,0,0,0.501139,0,0)"/>
<path style="fill:none;stroke-width:1;stroke-linecap:round;stroke-linejoin:round;stroke:rgb(4.313725%,26.27451%,64.313725%);stroke-opacity:1;stroke-miterlimit:10;" d="M 440.851562 108.814631 C 443.976562 111.831197 445.882812 116.087127 446.039062 120.421005 C 446.203125 124.762678 443.796875 130.02413 440.90625 133.258949 " transform="matrix(0.5,0,0,0.501139,0,0)"/>
<path style="fill:none;stroke-width:1;stroke-linecap:round;stroke-linejoin:round;stroke:rgb(4.313725%,26.27451%,64.313725%);stroke-opacity:1;stroke-miterlimit:10;" d="M 408.179688 128.51195 C 414.421875 134.256676 419.84375 138.910138 426.773438 143.781854 C 429.9375 146.018945 436.21875 148.864027 439.015625 148.131321 " transform="matrix(0.5,0,0,0.501139,0,0)"/>
<use xlink:href="#surface21" mask="url(#mask5)"/>
<path style=" stroke:none;fill-rule:nonzero;fill:rgb(32.156863%,82.352941%,73.72549%);fill-opacity:1;" d="M 231.488281 127.726562 C 233.863281 127.917969 236.292969 128.382812 238.246094 129.738281 C 240.203125 131.089844 241.582031 133.503906 241.128906 135.847656 C 240.597656 138.570312 237.789062 140.347656 235.035156 140.679688 C 232.285156 141.015625 229.539062 140.253906 226.828125 139.695312 C 220.824219 138.457031 214.628906 138.171875 208.535156 138.859375 C 207.015625 139.027344 205.574219 139.332031 204.246094 140.113281 C 203.820312 136.480469 212.855469 131.746094 215.601562 130.511719 C 220.558594 128.28125 226.082031 127.292969 231.488281 127.726562 Z M 231.488281 127.726562 "/>
<path style="fill:none;stroke-width:1;stroke-linecap:round;stroke-linejoin:round;stroke:rgb(0%,67.843137%,62.352941%);stroke-opacity:1;stroke-miterlimit:10;" d="M 413.195312 275.014169 C 422.164062 267.133683 445.195312 261.778693 461.484375 263.501332 C 466.390625 264.02358 471.34375 265.481197 475.109375 268.669247 " transform="matrix(0.5,0,0,0.501139,0,0)"/>
<path style="fill:none;stroke-width:1;stroke-linecap:round;stroke-linejoin:round;stroke:rgb(4.313725%,26.27451%,64.313725%);stroke-opacity:1;stroke-dasharray:4,4;stroke-miterlimit:10;" d="M 396.4375 186.380131 L 484.046875 186.193058 C 494.320312 186.177468 502.671875 194.49446 502.695312 204.775728 C 502.71875 215.06479 494.398438 223.420756 484.117188 223.436346 L 424.195312 223.561062 " transform="matrix(0.5,0,0,0.501139,0,0)"/>
<path style="fill:none;stroke-width:1;stroke-linecap:round;stroke-linejoin:round;stroke:rgb(4.313725%,26.27451%,64.313725%);stroke-opacity:1;stroke-dasharray:4,4;stroke-miterlimit:10;" d="M 131.390625 250.73354 L 70.125 250.866051 C 64.320312 250.873846 59.632812 255.589666 59.640625 261.396751 C 59.648438 267.203835 64.359375 271.896271 70.164062 271.888477 L 88.023438 271.857298 " transform="matrix(0.5,0,0,0.501139,0,0)"/>
<path style="fill:none;stroke-width:1;stroke-linecap:round;stroke-linejoin:round;stroke:rgb(78.431373%,85.882353%,98.431373%);stroke-opacity:1;stroke-dasharray:4,4;stroke-miterlimit:10;" d="M 33.601562 298.195739 C 12.617188 298.242507 12.1875 329.569585 38.882812 329.499432 C 65.585938 329.444869 415.898438 328.719957 432.421875 328.688778 C 448.9375 328.657599 450.679688 302.86479 430.265625 302.911559 C 389.617188 302.997301 388.273438 283.603977 410.835938 283.557209 " transform="matrix(0.5,0,0,0.501139,0,0)"/>
<path style=" stroke:none;fill-rule:nonzero;fill:rgb(31.764706%,57.647059%,95.686275%);fill-opacity:1;" d="M 19.253906 149.003906 C 19.492188 150.421875 18.546875 151.761719 17.132812 152.007812 C 15.71875 152.246094 14.382812 151.296875 14.136719 149.878906 C 13.898438 148.460938 14.847656 147.121094 16.261719 146.875 C 17.675781 146.636719 19.015625 147.585938 19.253906 149.003906 Z M 19.253906 149.003906 "/>
<path style=" stroke:none;fill-rule:nonzero;fill:rgb(4.313725%,26.27451%,64.313725%);fill-opacity:1;" d="M 210.453125 142.171875 C 210.691406 143.589844 209.742188 144.929688 208.328125 145.175781 C 206.917969 145.414062 205.578125 144.464844 205.335938 143.046875 C 205.097656 141.628906 206.046875 140.289062 207.457031 140.042969 C 208.871094 139.804688 210.210938 140.761719 210.453125 142.171875 Z M 210.453125 142.171875 "/>
<use xlink:href="#surface24" mask="url(#mask6)"/>
<path style=" stroke:none;fill-rule:nonzero;fill:rgb(100%,100%,100%);fill-opacity:1;" d="M 210.085938 185.488281 L 47.152344 185.828125 C 44.980469 185.832031 43.210938 184.066406 43.210938 181.890625 L 42.988281 73.644531 C 42.984375 71.46875 44.742188 69.691406 46.914062 69.691406 L 209.847656 69.355469 C 212.019531 69.351562 213.789062 71.117188 213.789062 73.292969 L 214.011719 181.535156 C 214.015625 183.714844 212.257812 185.484375 210.085938 185.488281 Z M 210.085938 185.488281 "/>
<path style=" stroke:none;fill-rule:nonzero;fill:rgb(0%,33.72549%,92.54902%);fill-opacity:1;" d="M 209.582031 69.351562 L 47.347656 69.6875 C 44.984375 69.695312 43.070312 71.621094 43.070312 73.996094 L 43.078125 77.730469 L 213.882812 77.378906 L 213.875 73.640625 C 213.871094 71.269531 211.949219 69.34375 209.582031 69.351562 Z M 209.582031 69.351562 "/>
<path style=" stroke:none;fill-rule:nonzero;fill:rgb(78.431373%,85.882353%,98.431373%);fill-opacity:1;" d="M 47.542969 185.828125 L 72.058594 185.777344 L 71.835938 77.671875 L 43.039062 77.730469 L 43.25 181.546875 C 43.253906 183.914062 45.175781 185.832031 47.542969 185.828125 Z M 47.542969 185.828125 "/>
<path style=" stroke:none;fill-rule:nonzero;fill:rgb(0%,33.72549%,92.54902%);fill-opacity:1;" d="M 209.894531 70.4375 C 211.464844 70.4375 212.742188 71.71875 212.75 73.292969 L 212.972656 181.535156 C 212.972656 182.300781 212.679688 183.019531 212.136719 183.5625 C 211.601562 184.105469 210.886719 184.402344 210.121094 184.402344 L 47.1875 184.742188 C 45.617188 184.742188 44.339844 183.457031 44.332031 181.882812 L 44.109375 73.640625 C 44.109375 72.875 44.402344 72.160156 44.945312 71.617188 C 45.480469 71.074219 46.195312 70.773438 46.957031 70.773438 L 209.882812 70.4375 Z M 209.894531 69.351562 C 209.894531 69.351562 209.890625 69.351562 209.882812 69.351562 L 46.953125 69.6875 C 44.78125 69.695312 43.023438 71.464844 43.027344 73.640625 L 43.25 181.882812 C 43.253906 184.0625 45.015625 185.820312 47.1875 185.820312 C 47.1875 185.820312 47.191406 185.820312 47.195312 185.820312 L 210.128906 185.484375 C 212.300781 185.480469 214.058594 183.710938 214.054688 181.53125 L 213.832031 73.289062 C 213.828125 71.109375 212.066406 69.351562 209.894531 69.351562 Z M 209.894531 69.351562 "/>
<path style=" stroke:none;fill-rule:nonzero;fill:rgb(100%,100%,100%);fill-opacity:1;" d="M 67.921875 177.5625 L 49.027344 177.601562 C 48.191406 177.601562 47.515625 176.925781 47.515625 176.089844 L 47.515625 175.898438 C 47.515625 175.0625 48.1875 174.386719 49.023438 174.386719 L 67.914062 174.347656 C 68.75 174.347656 69.425781 175.019531 69.425781 175.855469 L 69.425781 176.046875 C 69.429688 176.882812 68.753906 177.5625 67.921875 177.5625 Z M 67.921875 177.5625 "/>
<path style=" stroke:none;fill-rule:nonzero;fill:rgb(100%,100%,100%);fill-opacity:1;" d="M 65.652344 104.21875 L 49.570312 104.25 C 48.042969 104.257812 46.800781 103.015625 46.796875 101.484375 L 46.765625 85.355469 C 46.757812 83.824219 48 82.578125 49.523438 82.574219 L 65.609375 82.542969 C 67.136719 82.535156 68.375 83.78125 68.378906 85.3125 L 68.414062 101.4375 C 68.414062 102.976562 67.179688 104.21875 65.652344 104.21875 Z M 65.652344 104.21875 "/>
<path style=" stroke:none;fill-rule:nonzero;fill:rgb(78.431373%,85.882353%,98.431373%);fill-opacity:1;" d="M 134.503906 152.53125 L 78.46875 152.648438 C 77.378906 152.648438 76.496094 151.765625 76.492188 150.675781 L 76.492188 150.433594 C 76.492188 149.339844 77.367188 148.453125 78.457031 148.449219 L 134.492188 148.335938 C 135.578125 148.335938 136.464844 149.214844 136.46875 150.308594 L 136.46875 150.550781 C 136.46875 151.648438 135.589844 152.53125 134.503906 152.53125 Z M 134.503906 152.53125 "/>
<path style=" stroke:none;fill-rule:nonzero;fill:rgb(78.431373%,85.882353%,98.431373%);fill-opacity:1;" d="M 131.265625 88.507812 L 86.984375 88.601562 C 85.898438 88.601562 85.015625 87.722656 85.007812 86.628906 L 85.007812 86.386719 C 85.007812 85.292969 85.886719 84.410156 86.976562 84.402344 L 131.253906 84.3125 C 132.34375 84.3125 133.222656 85.191406 133.230469 86.28125 L 133.230469 86.527344 C 133.230469 87.625 132.351562 88.507812 131.265625 88.507812 Z M 131.265625 88.507812 "/>
<path style=" stroke:none;fill-rule:nonzero;fill:rgb(78.431373%,85.882353%,98.431373%);fill-opacity:1;" d="M 201.261719 133.421875 L 142.222656 133.550781 C 141.136719 133.550781 140.253906 132.667969 140.246094 131.578125 L 140.246094 131.332031 C 140.246094 130.242188 141.125 129.355469 142.214844 129.351562 L 201.253906 129.230469 C 202.339844 129.230469 203.222656 130.109375 203.230469 131.203125 L 203.230469 131.445312 C 203.230469 132.535156 202.351562 133.417969 201.261719 133.421875 Z M 201.261719 133.421875 "/>
<path style=" stroke:none;fill-rule:nonzero;fill:rgb(78.431373%,85.882353%,98.431373%);fill-opacity:1;" d="M 134.519531 161.214844 L 78.484375 161.332031 C 77.394531 161.332031 76.511719 160.449219 76.507812 159.359375 L 76.507812 159.113281 C 76.507812 158.023438 77.386719 157.136719 78.472656 157.132812 L 134.507812 157.019531 C 135.597656 157.019531 136.480469 157.898438 136.484375 158.988281 L 136.484375 159.234375 C 136.488281 160.324219 135.605469 161.210938 134.519531 161.214844 Z M 134.519531 161.214844 "/>
<path style=" stroke:none;fill-rule:nonzero;fill:rgb(78.431373%,85.882353%,98.431373%);fill-opacity:1;" d="M 134.535156 169.894531 L 78.5 170.007812 C 77.414062 170.007812 76.53125 169.128906 76.523438 168.035156 L 76.523438 167.792969 C 76.523438 166.699219 77.402344 165.816406 78.488281 165.808594 L 134.523438 165.695312 C 135.613281 165.695312 136.496094 166.574219 136.5 167.667969 L 136.5 167.914062 C 136.507812 169.003906 135.625 169.894531 134.535156 169.894531 Z M 134.535156 169.894531 "/>
<path style=" stroke:none;fill-rule:nonzero;fill:rgb(78.431373%,85.882353%,98.431373%);fill-opacity:1;" d="M 200.0625 175.550781 L 143.589844 175.671875 C 141.789062 175.675781 140.328125 174.21875 140.328125 172.414062 L 140.28125 148.089844 C 140.273438 146.289062 141.730469 144.820312 143.53125 144.820312 L 200.003906 144.703125 C 201.800781 144.699219 203.261719 146.15625 203.261719 147.960938 L 203.308594 172.285156 C 203.316406 174.085938 201.859375 175.550781 200.0625 175.550781 Z M 200.0625 175.550781 "/>
<path style=" stroke:none;fill-rule:nonzero;fill:rgb(78.431373%,85.882353%,98.431373%);fill-opacity:1;" d="M 52.4375 73.621094 C 52.4375 74.386719 51.820312 75.003906 51.0625 75.003906 C 50.304688 75.003906 49.683594 74.386719 49.683594 73.625 C 49.683594 72.859375 50.300781 72.238281 51.058594 72.238281 C 51.816406 72.238281 52.4375 72.859375 52.4375 73.621094 Z M 52.4375 73.621094 "/>
<path style=" stroke:none;fill-rule:nonzero;fill:rgb(78.431373%,85.882353%,98.431373%);fill-opacity:1;" d="M 56.90625 75 C 57.667969 75 58.285156 74.378906 58.285156 73.613281 C 58.285156 72.847656 57.667969 72.230469 56.90625 72.230469 C 56.144531 72.230469 55.523438 72.847656 55.523438 73.613281 C 55.523438 74.378906 56.144531 75 56.90625 75 Z M 56.90625 75 "/>
<path style=" stroke:none;fill-rule:nonzero;fill:rgb(78.431373%,85.882353%,98.431373%);fill-opacity:1;" d="M 64.128906 73.597656 C 64.128906 74.363281 63.511719 74.980469 62.753906 74.980469 C 61.996094 74.980469 61.375 74.363281 61.375 73.601562 C 61.375 72.835938 61.992188 72.21875 62.75 72.21875 C 63.507812 72.214844 64.125 72.832031 64.128906 73.597656 Z M 64.128906 73.597656 "/>
<path style=" stroke:none;fill-rule:nonzero;fill:rgb(78.431373%,85.882353%,98.431373%);fill-opacity:1;" d="M 82.84375 86.925781 C 83.0625 84.726562 81.460938 82.765625 79.269531 82.546875 C 77.078125 82.324219 75.121094 83.929688 74.902344 86.128906 C 74.679688 88.328125 76.28125 90.289062 78.472656 90.507812 C 80.667969 90.730469 82.621094 89.125 82.84375 86.925781 Z M 82.84375 86.925781 "/>
<path style=" stroke:none;fill-rule:nonzero;fill:rgb(100%,100%,100%);fill-opacity:1;" d="M 66.773438 107.601562 L 49.09375 107.640625 C 48.679688 107.640625 48.351562 107.308594 48.34375 106.894531 L 48.34375 106.804688 C 48.34375 106.390625 48.675781 106.058594 49.085938 106.054688 L 66.765625 106.015625 C 67.179688 106.015625 67.507812 106.347656 67.515625 106.761719 L 67.515625 106.851562 C 67.515625 107.265625 67.183594 107.601562 66.773438 107.601562 Z M 66.773438 107.601562 "/>
<path style=" stroke:none;fill-rule:nonzero;fill:rgb(100%,100%,100%);fill-opacity:1;" d="M 66.777344 110.992188 L 49.097656 111.027344 C 48.6875 111.027344 48.355469 110.699219 48.351562 110.285156 L 48.351562 110.191406 C 48.351562 109.78125 48.679688 109.449219 49.09375 109.441406 L 66.773438 109.40625 C 67.183594 109.40625 67.515625 109.738281 67.519531 110.148438 L 67.519531 110.242188 C 67.519531 110.65625 67.1875 110.984375 66.777344 110.992188 Z M 66.777344 110.992188 "/>
<path style=" stroke:none;fill-rule:nonzero;fill:rgb(78.431373%,85.882353%,98.431373%);fill-opacity:1;" d="M 87.019531 118.148438 L 82.019531 118.195312 L 82.058594 139.203125 L 77.742188 139.210938 C 76.222656 139.21875 74.988281 137.980469 74.980469 136.453125 L 74.898438 97.609375 C 74.894531 96.066406 76.140625 94.8125 77.679688 94.8125 L 86.964844 94.792969 Z M 87.019531 118.148438 "/>
<path style=" stroke:none;fill-rule:nonzero;fill:rgb(78.431373%,85.882353%,98.431373%);fill-opacity:1;" d="M 119.449219 94.726562 L 119.449219 95.269531 C 120.945312 95.269531 122.160156 96.488281 122.160156 97.984375 L 122.238281 135.855469 C 122.238281 136.585938 121.957031 137.269531 121.445312 137.785156 C 120.9375 138.300781 120.253906 138.582031 119.53125 138.589844 L 78.230469 138.675781 C 76.734375 138.675781 75.515625 137.457031 75.515625 135.960938 L 75.441406 98.089844 C 75.441406 97.359375 75.722656 96.675781 76.230469 96.160156 C 76.742188 95.644531 77.421875 95.363281 78.148438 95.355469 L 119.445312 95.269531 Z M 119.449219 94.726562 L 119.445312 94.726562 L 78.148438 94.8125 C 76.351562 94.820312 74.894531 96.28125 74.898438 98.082031 L 74.976562 135.953125 C 74.980469 137.757812 76.4375 139.210938 78.230469 139.210938 L 78.234375 139.210938 L 119.53125 139.125 C 121.328125 139.121094 122.785156 137.660156 122.777344 135.855469 L 122.703125 97.984375 C 122.703125 96.183594 121.246094 94.722656 119.449219 94.726562 Z M 119.449219 94.726562 "/>
<path style=" stroke:none;fill-rule:nonzero;fill:rgb(78.431373%,85.882353%,98.431373%);fill-opacity:1;" d="M 188.402344 125.890625 L 133.320312 113.40625 C 131.566406 113.011719 130.46875 111.261719 130.863281 109.503906 L 137.058594 82.007812 C 137.453125 80.25 139.199219 79.148438 140.953125 79.542969 L 196.03125 92.027344 C 197.789062 92.425781 198.886719 94.171875 198.492188 95.933594 L 192.296875 123.425781 C 191.902344 125.1875 190.15625 126.292969 188.402344 125.890625 Z M 188.402344 125.890625 "/>
<path style=" stroke:none;fill-rule:nonzero;fill:rgb(0%,33.72549%,92.54902%);fill-opacity:1;" d="M 81.804688 200.667969 L 74.097656 200.683594 L 72.207031 190.839844 L 83.652344 190.816406 Z M 81.804688 200.667969 "/>
<path style=" stroke:none;fill-rule:nonzero;fill:rgb(78.431373%,85.882353%,98.431373%);fill-opacity:1;" d="M 74.34375 190.832031 C 74.34375 191.636719 74.191406 192.984375 74.726562 193.003906 C 75.261719 193.027344 75.039062 191.722656 75.648438 191.761719 C 76.035156 191.785156 75.46875 196.042969 76.9375 196.144531 C 77.945312 196.214844 77.757812 194.058594 77.863281 192.707031 C 77.933594 191.792969 79.097656 191.972656 79.109375 192.578125 C 79.117188 193.253906 79.074219 193.707031 79.109375 194.476562 C 79.160156 195.765625 81.132812 195.421875 81.0625 193.707031 C 80.992188 191.992188 81.058594 190.828125 81.058594 190.828125 Z M 74.34375 190.832031 "/>
<path style=" stroke:none;fill-rule:nonzero;fill:rgb(4.705882%,13.72549%,25.098039%);fill-opacity:1;" d="M 72.5 196.78125 C 72.34375 196.78125 72.191406 196.765625 72.046875 196.730469 C 71.476562 196.605469 71.082031 196.308594 70.859375 195.839844 C 70.074219 194.167969 72.144531 191.039062 72.226562 190.898438 L 72.332031 191.464844 C 72.316406 191.496094 70.515625 194.183594 71.222656 195.6875 C 71.390625 196.046875 71.6875 196.269531 72.136719 196.367188 C 72.261719 196.394531 72.394531 196.40625 72.523438 196.40625 C 75.300781 196.398438 80.042969 191.214844 80.097656 191.152344 C 80.292969 190.921875 80.65625 191.144531 80.527344 191.339844 C 80.304688 191.589844 75.484375 196.773438 72.5 196.78125 Z M 72.5 196.78125 "/>
<use xlink:href="#surface27" mask="url(#mask7)"/>
<path style=" stroke:none;fill-rule:nonzero;fill:rgb(93.72549%,51.372549%,16.862745%);fill-opacity:1;" d="M 153.488281 60.390625 C 142.53125 59.972656 127.453125 68.097656 132.800781 87.960938 L 134.882812 87 C 136.707031 72.230469 140.117188 69.675781 145.90625 69.730469 L 159.492188 69.703125 C 162.851562 70.199219 169.113281 73.191406 170.03125 85.011719 L 173.246094 85.007812 C 173.515625 76.460938 171.460938 61.082031 153.488281 60.390625 Z M 153.488281 60.390625 "/>
<path style=" stroke:none;fill-rule:nonzero;fill:rgb(100%,72.54902%,63.921569%);fill-opacity:1;" d="M 151.246094 60.71875 L 149.621094 64.300781 C 149.621094 64.300781 149.816406 66.320312 151.792969 66.277344 C 153.769531 66.234375 154.035156 65.320312 154.035156 65.320312 L 154.292969 61.207031 Z M 151.246094 60.71875 "/>
<path style=" stroke:none;fill-rule:nonzero;fill:rgb(100%,72.54902%,63.921569%);fill-opacity:1;" d="M 159.613281 57.726562 C 157.761719 61.011719 156.9375 62.035156 154.511719 62.53125 C 151.371094 63.171875 147.851562 61.046875 149.484375 55.8125 C 150.816406 51.546875 152.84375 52.203125 154.820312 52.363281 C 156.796875 52.523438 161.617188 54.171875 159.613281 57.726562 Z M 159.613281 57.726562 "/>
<path style=" stroke:none;fill-rule:nonzero;fill:rgb(4.705882%,13.72549%,25.098039%);fill-opacity:1;" d="M 152.238281 55.128906 C 151.742188 54.875 151.109375 55.089844 150.726562 55.492188 C 150.332031 55.910156 150.140625 56.53125 150.308594 57.078125 C 149.550781 57.089844 148.882812 57.832031 148.953125 58.59375 C 148.433594 57.382812 148.71875 56.117188 148.613281 54.875 C 148.511719 53.628906 148.648438 52.285156 149.449219 51.332031 C 149.777344 50.941406 150.199219 50.644531 150.648438 50.40625 C 152.355469 49.492188 154.503906 49.464844 156.238281 50.324219 C 156.59375 50.503906 157.496094 51.066406 158.75 50.761719 C 161.144531 50.183594 162.539062 51.804688 161.105469 53.328125 C 161.566406 53.496094 162.074219 53.699219 162.28125 54.144531 C 162.335938 54.261719 162.363281 54.402344 162.292969 54.503906 C 162.242188 54.574219 162.15625 54.613281 162.070312 54.640625 C 161.667969 54.777344 161.230469 54.808594 160.808594 54.738281 C 160.972656 54.875 161.859375 54.929688 162.125 55.449219 C 162.839844 56.828125 160.011719 56.132812 159.578125 55.992188 C 160.070312 56.085938 161.359375 57.117188 160.949219 57.828125 C 160.867188 57.96875 159.125 58.984375 157.292969 56.851562 C 156.867188 56.355469 156.335938 55.894531 155.707031 55.726562 C 155.214844 55.597656 154.695312 55.773438 154.214844 55.960938 C 153.859375 56.089844 152.96875 56.640625 152.714844 56.3125 C 152.449219 55.964844 152.808594 55.417969 152.238281 55.128906 Z M 152.238281 55.128906 "/>
<path style=" stroke:none;fill-rule:nonzero;fill:rgb(100%,72.54902%,63.921569%);fill-opacity:1;" d="M 170.382812 85.007812 C 169.894531 86.683594 169.40625 86.847656 169.992188 87.113281 C 170.582031 87.378906 171.058594 86.441406 171.058594 86.441406 L 173.777344 86.984375 C 173.777344 86.984375 173.164062 85.214844 172.738281 85 C 172.308594 84.789062 170.382812 85.007812 170.382812 85.007812 Z M 170.382812 85.007812 "/>
<path style=" stroke:none;fill-rule:nonzero;fill:rgb(100%,72.54902%,63.921569%);fill-opacity:1;" d="M 134.882812 87 C 135.238281 87.882812 135.335938 87.890625 135.828125 88.953125 C 136.777344 90.984375 134.5625 94.195312 133.1875 90.691406 C 132.808594 89.730469 132.800781 87.964844 132.800781 87.964844 Z M 134.882812 87 "/>
<path style=" stroke:none;fill-rule:nonzero;fill:rgb(4.705882%,13.72549%,25.098039%);fill-opacity:1;" d="M 156.109375 50.609375 C 157.964844 50.714844 160.25 49.398438 161.707031 51.082031 C 161.84375 51.242188 162.113281 51.035156 161.996094 50.859375 C 160.601562 48.855469 158.019531 50.351562 156.113281 50.296875 C 155.90625 50.296875 155.914062 50.601562 156.109375 50.609375 Z M 156.109375 50.609375 "/>
<path style=" stroke:none;fill-rule:nonzero;fill:rgb(4.705882%,13.72549%,25.098039%);fill-opacity:1;" d="M 156.855469 49.585938 C 155.589844 49.808594 154.363281 49.203125 153.09375 49.40625 C 152.058594 49.566406 151.136719 50.101562 150.359375 50.78125 C 150.15625 50.953125 150.417969 51.296875 150.644531 51.148438 C 151.738281 50.425781 152.789062 49.800781 154.152344 49.90625 C 155.144531 49.976562 155.984375 50.273438 156.96875 49.976562 C 157.21875 49.898438 157.109375 49.542969 156.855469 49.585938 Z M 156.855469 49.585938 "/>
<path style=" stroke:none;fill-rule:nonzero;fill:rgb(4.705882%,13.72549%,25.098039%);fill-opacity:1;" d="M 149.632812 51.320312 C 148.738281 51.882812 148.222656 52.625 148.117188 53.695312 C 148.039062 54.464844 148.019531 56.230469 148.792969 56.664062 C 148.976562 56.769531 149.171875 56.523438 149.019531 56.367188 C 148.523438 55.863281 148.476562 54.5 148.515625 53.859375 C 148.570312 52.875 148.980469 52.125 149.761719 51.539062 C 149.886719 51.449219 149.773438 51.234375 149.632812 51.320312 Z M 149.632812 51.320312 "/>
<path style=" stroke:none;fill-rule:nonzero;fill:rgb(4.705882%,13.72549%,25.098039%);fill-opacity:1;" d="M 163.371094 54.378906 C 162.910156 53.582031 161.734375 52.875 160.828125 53.378906 C 160.691406 53.460938 160.753906 53.679688 160.910156 53.679688 C 161.304688 53.683594 161.667969 53.636719 162.054688 53.753906 C 162.492188 53.890625 162.859375 54.144531 163.121094 54.519531 C 163.230469 54.671875 163.460938 54.542969 163.371094 54.378906 Z M 163.371094 54.378906 "/>
<path style=" stroke:none;fill-rule:nonzero;fill:rgb(4.313725%,26.27451%,64.313725%);fill-opacity:1;" d="M 103.113281 137.21875 C 108.855469 139.335938 113.84375 145.941406 112.695312 150.746094 C 111.402344 156.171875 107.671875 158.511719 107.671875 158.511719 L 106.496094 156.335938 C 106.496094 156.335938 109.480469 151.660156 109.21875 149.449219 C 108.804688 145.914062 104.351562 143.546875 104.351562 143.546875 Z M 103.113281 137.21875 "/>
<path style=" stroke:none;fill-rule:nonzero;fill:rgb(4.705882%,13.72549%,25.098039%);fill-opacity:1;" d="M 88.972656 198.429688 C 88.972656 198.429688 85.449219 199.859375 84.566406 200.667969 L 91.550781 200.652344 L 91.546875 198.425781 Z M 88.972656 198.429688 "/>
<path style=" stroke:none;fill-rule:nonzero;fill:rgb(4.705882%,13.72549%,25.098039%);fill-opacity:1;" d="M 104.410156 198.292969 C 104.410156 198.292969 105.414062 199.457031 105.597656 200.625 L 100.832031 200.636719 C 100.914062 199.832031 101.253906 199.054688 101.71875 198.300781 Z M 104.410156 198.292969 "/>
<path style=" stroke:none;fill-rule:nonzero;fill:rgb(1.568627%,49.803922%,46.27451%);fill-opacity:1;" d="M 104.703125 198.398438 L 101.449219 198.402344 C 101.515625 194.558594 100.722656 181.457031 99.960938 171.660156 C 99.511719 165.914062 99.066406 161.296875 98.808594 160.363281 L 100.550781 159.976562 L 107.128906 158.511719 C 108.257812 163.671875 105.65625 187.359375 104.703125 198.398438 Z M 104.703125 198.398438 "/>
<path style=" stroke:none;fill-rule:nonzero;fill:rgb(0%,59.215686%,56.470588%);fill-opacity:1;" d="M 92.742188 160.15625 C 90.203125 164.164062 89.546875 193.140625 88.484375 198.511719 L 91.574219 198.6875 C 91.574219 198.6875 95.121094 180.417969 102.667969 159.878906 Z M 92.742188 160.15625 "/>
<use xlink:href="#surface30" mask="url(#mask8)"/>
<path style=" stroke:none;fill-rule:nonzero;fill:rgb(0%,59.215686%,56.470588%);fill-opacity:1;" d="M 92.742188 160.15625 C 90.203125 164.164062 89.546875 193.140625 88.484375 198.511719 L 91.574219 198.6875 C 91.574219 198.6875 95.121094 180.417969 102.667969 159.878906 Z M 92.742188 160.15625 "/>
<path style=" stroke:none;fill-rule:nonzero;fill:rgb(100%,72.54902%,63.921569%);fill-opacity:1;" d="M 94.679688 127.808594 C 94.679688 127.808594 92.703125 135.355469 97.644531 135.351562 L 97.351562 137.28125 L 101.097656 137.691406 L 100.285156 135.003906 C 100.285156 135.003906 101.027344 130.257812 101.074219 129.398438 C 101.167969 127.796875 96.695312 124.980469 94.679688 127.808594 Z M 94.679688 127.808594 "/>
<path style=" stroke:none;fill-rule:nonzero;fill:rgb(4.705882%,13.72549%,25.098039%);fill-opacity:1;" d="M 82.476562 119.347656 L 81.019531 119.351562 L 81.03125 125.515625 L 82.488281 125.511719 Z M 82.476562 119.347656 "/>
<path style=" stroke:none;fill-rule:nonzero;fill:rgb(0%,33.72549%,92.54902%);fill-opacity:1;" d="M 85.917969 119.335938 L 77.570312 119.355469 C 76.984375 119.355469 76.507812 118.882812 76.507812 118.292969 L 76.507812 118.078125 C 76.507812 117.492188 76.980469 117.011719 77.5625 117.011719 L 85.914062 116.996094 C 86.5 116.996094 86.976562 117.46875 86.976562 118.054688 L 86.976562 118.273438 C 86.980469 118.859375 86.503906 119.335938 85.917969 119.335938 Z M 85.917969 119.335938 "/>
<path style=" stroke:none;fill-rule:nonzero;fill:rgb(100%,72.54902%,63.921569%);fill-opacity:1;" d="M 80.628906 127.121094 C 80.589844 125.722656 79.4375 126.085938 80.070312 123.808594 C 80.460938 122.394531 83.367188 124.035156 83.007812 125.011719 C 82.644531 125.988281 82.226562 127.539062 82.226562 127.539062 Z M 80.628906 127.121094 "/>
<path style=" stroke:none;fill-rule:nonzero;fill:rgb(0%,33.72549%,92.54902%);fill-opacity:1;" d="M 97.675781 136.839844 C 90.292969 137.328125 89.808594 139.828125 86.503906 139.433594 C 81.613281 138.859375 82.46875 129.753906 83.078125 126.488281 L 80.15625 126.496094 C 80.15625 126.496094 74.894531 147.234375 91.519531 143.398438 C 90.878906 147.03125 95.015625 152.96875 91.003906 160.167969 C 97.3125 161.890625 103.203125 162.308594 108.246094 160.136719 C 107.363281 158.941406 110.054688 146.890625 104.785156 138.21875 C 103.757812 136.519531 98.21875 136.800781 97.675781 136.839844 Z M 97.675781 136.839844 "/>
<path style=" stroke:none;fill-rule:nonzero;fill:rgb(0%,33.72549%,92.54902%);fill-opacity:1;" d="M 97.675781 136.839844 C 90.292969 137.328125 89.808594 139.828125 86.503906 139.433594 C 81.613281 138.859375 82.46875 129.753906 83.078125 126.488281 L 80.15625 126.496094 C 80.15625 126.496094 74.894531 147.234375 91.519531 143.398438 C 90.878906 147.03125 95.015625 152.96875 91.003906 160.167969 C 97.3125 161.890625 103.203125 162.308594 108.246094 160.136719 C 107.363281 158.941406 110.054688 146.890625 104.785156 138.21875 C 103.757812 136.519531 98.21875 136.800781 97.675781 136.839844 Z M 97.675781 136.839844 "/>
<path style=" stroke:none;fill-rule:nonzero;fill:rgb(93.72549%,51.372549%,16.862745%);fill-opacity:1;" d="M 96.65625 129.257812 C 97.140625 129.382812 97.695312 129.476562 97.957031 129.882812 C 98.125 130.148438 98.113281 130.480469 98.097656 130.789062 C 98.183594 130.464844 98.546875 130.230469 98.886719 130.273438 C 99.234375 130.3125 99.527344 130.621094 99.53125 130.957031 C 99.539062 131.117188 99.484375 131.269531 99.425781 131.414062 C 99.277344 131.785156 99.09375 132.132812 98.878906 132.460938 C 99.476562 132.6875 99.988281 134.457031 100.285156 135.003906 C 101.296875 134.75 103.554688 133.875 103.75 130.273438 C 103.84375 128.597656 103.335938 126.585938 101.519531 125.472656 C 100.238281 124.6875 98.113281 124.675781 96.648438 125.050781 C 95.453125 125.355469 93.558594 126.550781 94.441406 127.9375 C 94.886719 128.640625 95.863281 129.050781 96.65625 129.257812 Z M 96.65625 129.257812 "/>
<path style=" stroke:none;fill-rule:nonzero;fill:rgb(93.72549%,51.372549%,16.862745%);fill-opacity:1;" d="M 102.980469 126.96875 C 103.667969 126.738281 104.542969 126.859375 104.953125 127.433594 C 105.273438 127.886719 105.246094 128.472656 105.347656 129.007812 C 105.398438 129.269531 105.488281 129.53125 105.691406 129.710938 C 105.925781 129.921875 106.273438 129.976562 106.597656 129.992188 C 107.394531 130.035156 108.195312 129.933594 108.980469 130.066406 C 109.765625 130.203125 110.570312 130.644531 110.789062 131.375 C 110.914062 131.785156 110.84375 132.230469 110.996094 132.625 C 111.21875 133.222656 111.851562 133.566406 112.402344 133.914062 C 113.578125 134.652344 114.582031 135.648438 115.300781 136.808594 C 115.761719 137.539062 116.113281 138.355469 116.167969 139.207031 C 116.222656 140.058594 116.839844 141.1875 116.671875 142.027344 C 116.492188 142.933594 115.605469 144.160156 113.851562 144.722656 C 110.816406 145.703125 109.851562 146.125 106.945312 144.394531 C 106.59375 144.1875 105.910156 143.476562 105.59375 143.21875 C 105.34375 143.019531 105.1875 142.730469 105.097656 142.433594 C 104.855469 141.597656 105.136719 140.695312 105.570312 139.933594 C 106.003906 139.175781 106.59375 138.5 107.039062 137.746094 C 107.304688 137.289062 107.519531 136.785156 107.496094 136.265625 C 107.488281 136.066406 107.4375 135.867188 107.296875 135.726562 C 107.171875 135.605469 107 135.546875 106.828125 135.515625 C 106.1875 135.390625 105.484375 135.519531 104.910156 135.230469 C 104.347656 134.957031 104.039062 134.269531 104.210938 133.683594 C 104.324219 133.292969 104.621094 132.960938 104.703125 132.566406 C 104.824219 131.992188 104.464844 131.402344 103.96875 131.066406 C 103.46875 130.730469 102.859375 130.601562 102.257812 130.503906 C 101.957031 130.453125 101.648438 130.40625 101.410156 130.230469 C 101.113281 130.019531 100.976562 129.644531 100.984375 129.292969 C 101.003906 128.160156 101.921875 127.320312 102.980469 126.96875 Z M 102.980469 126.96875 "/>
<path style=" stroke:none;fill-rule:nonzero;fill:rgb(93.72549%,51.372549%,16.862745%);fill-opacity:1;" d="M 102.433594 130.003906 C 106.085938 130.796875 101.476562 134.265625 103.410156 135.925781 C 103.960938 136.398438 104.601562 136.253906 105.246094 136.339844 C 107.726562 136.683594 106.367188 138.371094 106.199219 139.695312 C 106.171875 139.898438 106.5 139.933594 106.546875 139.746094 C 106.757812 138.832031 107.589844 137.714844 107.164062 136.742188 C 106.785156 135.882812 105.839844 135.988281 105.066406 135.960938 C 104.097656 135.933594 103.03125 135.960938 103.394531 134.03125 C 103.476562 133.601562 103.816406 133.167969 103.984375 132.761719 C 104.171875 132.292969 104.304688 131.832031 104.199219 131.324219 C 104.023438 130.460938 103.308594 129.953125 102.484375 129.816406 C 102.363281 129.789062 102.308594 129.976562 102.433594 130.003906 Z M 102.433594 130.003906 "/>
<path style=" stroke:none;fill-rule:nonzero;fill:rgb(93.72549%,51.372549%,16.862745%);fill-opacity:1;" d="M 94.914062 125.515625 C 97.730469 124.082031 100.535156 124.371094 102.910156 126.472656 C 103.074219 126.613281 103.289062 126.398438 103.148438 126.234375 C 101.066406 123.878906 97.355469 123.464844 94.839844 125.382812 C 94.757812 125.445312 94.820312 125.566406 94.914062 125.515625 Z M 94.914062 125.515625 "/>
<path style=" stroke:none;fill-rule:nonzero;fill:rgb(100%,72.54902%,63.921569%);fill-opacity:1;" d="M 189.492188 134.375 L 188.273438 136.839844 L 191.25 138.0625 L 191.570312 135.226562 Z M 189.492188 134.375 "/>
<path style=" stroke:none;fill-rule:nonzero;fill:rgb(100%,72.54902%,63.921569%);fill-opacity:1;" d="M 191.289062 126.363281 C 184.527344 129.320312 187.296875 136.476562 191.414062 135.632812 C 193.417969 135.226562 194.429688 128.753906 194.429688 128.753906 Z M 191.289062 126.363281 "/>
<path style=" stroke:none;fill-rule:nonzero;fill:rgb(29.019608%,28.627451%,79.215686%);fill-opacity:1;" d="M 193.535156 125.347656 C 193.316406 124.9375 193.101562 124.492188 192.734375 124.199219 C 192.367188 123.90625 191.789062 123.808594 191.445312 124.128906 C 190.992188 124.550781 191.257812 125.34375 191.71875 125.761719 C 191.320312 125.808594 190.851562 125.535156 190.558594 125.808594 C 190.335938 126.015625 190.410156 126.386719 190.542969 126.664062 C 190.839844 127.308594 191.328125 127.875 191.929688 128.253906 C 191.585938 128.449219 191.1875 128.828125 191.390625 129.167969 C 191.453125 129.257812 191.542969 129.324219 191.601562 129.417969 C 191.734375 129.632812 191.609375 129.914062 191.472656 130.132812 C 191.261719 130.484375 191.03125 130.828125 190.785156 131.160156 C 191.019531 130.839844 191.585938 130.96875 191.753906 131.328125 C 191.921875 131.6875 191.777344 132.125 191.511719 132.417969 C 191.363281 132.582031 191.179688 132.71875 190.964844 132.765625 C 190.78125 132.808594 189.957031 135.351562 190.597656 135.851562 C 191.386719 136.464844 194.074219 135.933594 194.460938 135.238281 C 194.851562 135.660156 195.421875 135.980469 195.984375 135.867188 C 196.546875 135.753906 196.976562 135.058594 196.671875 134.570312 C 197.277344 134.792969 198.019531 134.597656 198.4375 134.097656 C 198.855469 133.597656 198.914062 132.832031 198.582031 132.273438 C 198.914062 132.175781 198.984375 131.722656 198.898438 131.386719 C 198.722656 130.707031 198.171875 130.132812 197.496094 129.941406 C 197.835938 129.949219 198.105469 129.601562 198.121094 129.257812 C 198.140625 128.917969 197.960938 128.589844 197.742188 128.324219 C 197.109375 127.539062 196.359375 127.332031 195.421875 127.210938 C 194.480469 127.097656 193.960938 126.128906 193.535156 125.347656 Z M 193.535156 125.347656 "/>
<path style=" stroke:none;fill-rule:nonzero;fill:rgb(4.705882%,13.72549%,25.098039%);fill-opacity:1;" d="M 187.199219 197.964844 C 187.199219 197.964844 183.242188 199.871094 182.710938 200.460938 C 182.710938 200.460938 190.5 200.8125 191.109375 200.445312 C 191.722656 200.078125 189.863281 197.957031 189.863281 197.957031 Z M 187.199219 197.964844 "/>
<path style=" stroke:none;fill-rule:nonzero;fill:rgb(4.705882%,13.72549%,25.098039%);fill-opacity:1;" d="M 201.925781 195.808594 C 201.925781 195.808594 198.449219 198.496094 198.046875 199.183594 C 198.046875 199.183594 206.257812 197.964844 206.257812 197.425781 C 206.257812 196.886719 204.523438 195.25 204.523438 195.25 Z M 201.925781 195.808594 "/>
<path style=" stroke:none;fill-rule:nonzero;fill:rgb(84.705882%,45.490196%,16.470588%);fill-opacity:1;" d="M 191.023438 161.164062 C 190.878906 161.972656 185.457031 183.421875 200.964844 196.285156 L 205.453125 195.253906 C 205.453125 195.253906 200.230469 190.339844 197.765625 181.488281 C 195.4375 173.121094 197.285156 172.300781 198.679688 167.695312 C 200.230469 162.59375 199.074219 158.890625 199.074219 158.890625 Z M 191.023438 161.164062 "/>
<path style=" stroke:none;fill-rule:nonzero;fill:rgb(93.72549%,51.372549%,16.862745%);fill-opacity:1;" d="M 183.617188 161.097656 C 181.15625 166.988281 176.941406 187.066406 186.132812 198.367188 L 190.726562 198.355469 C 190.726562 198.355469 187.109375 194.378906 186.703125 185.152344 C 186.296875 175.925781 188.636719 171.875 190.289062 168.835938 C 191.9375 165.789062 193.464844 160.617188 193.464844 160.617188 Z M 183.617188 161.097656 "/>
<path style=" stroke:none;fill-rule:nonzero;fill:rgb(4.313725%,26.27451%,64.313725%);fill-opacity:1;" d="M 180.378906 124.578125 C 179.160156 128.890625 178.757812 136.859375 184.867188 140.070312 L 188.957031 139.070312 C 188.957031 139.070312 181.582031 135.195312 183.160156 125.398438 Z M 180.378906 124.578125 "/>
<path style=" stroke:none;fill-rule:nonzero;fill:rgb(0%,33.72549%,92.54902%);fill-opacity:1;" d="M 169.109375 122.375 L 172.28125 121.980469 C 172.28125 121.980469 171.898438 135.351562 187.296875 136.480469 C 199.054688 137.339844 199.976562 159.460938 199.976562 159.460938 C 196.183594 162.019531 189.828125 162.796875 181.679688 162.210938 C 181.679688 162.210938 182.199219 146.429688 180.902344 142.105469 C 180.902344 142.101562 168.109375 138.066406 169.109375 122.375 Z M 169.109375 122.375 "/>
<path style=" stroke:none;fill-rule:nonzero;fill:rgb(100%,72.54902%,63.921569%);fill-opacity:1;" d="M 165.226562 119.945312 C 164.691406 120.570312 166.933594 121.363281 169.109375 122.375 L 171.898438 122.03125 C 171.898438 122.03125 171.929688 121.472656 171.898438 120.890625 C 171.867188 120.308594 171.574219 119.976562 171.242188 120.476562 C 170.914062 120.976562 169.503906 121.144531 168.839844 120.691406 C 168.167969 120.226562 165.761719 119.320312 165.226562 119.945312 Z M 165.226562 119.945312 "/>
<path style=" stroke:none;fill-rule:nonzero;fill:rgb(100%,72.54902%,63.921569%);fill-opacity:1;" d="M 180.378906 124.578125 C 179.355469 123.574219 179.632812 123.632812 179.632812 123.632812 L 182.746094 124.339844 C 182.746094 124.339844 183.425781 122.8125 184.011719 122.773438 C 184.589844 122.730469 183.574219 123.824219 183.804688 124.230469 C 184.039062 124.636719 183.167969 125.402344 183.167969 125.402344 Z M 180.378906 124.578125 "/>
<path style=" stroke:none;fill-rule:nonzero;fill:rgb(29.019608%,28.627451%,79.215686%);fill-opacity:1;" d="M 195.285156 126.820312 C 195.925781 126.984375 196.574219 127.046875 197.105469 127.488281 C 197.628906 127.921875 197.867188 128.667969 197.488281 129.269531 C 197.3125 129.550781 197.734375 129.773438 197.921875 129.523438 C 198.40625 128.890625 198.273438 128.019531 197.789062 127.417969 C 197.222656 126.726562 196.179688 126.441406 195.324219 126.53125 C 195.171875 126.550781 195.117188 126.777344 195.285156 126.820312 Z M 195.285156 126.820312 "/>
<path style=" stroke:none;fill-rule:nonzero;fill:rgb(29.019608%,28.627451%,79.215686%);fill-opacity:1;" d="M 198.101562 132.613281 C 198.523438 132.863281 198.875 133.265625 198.695312 133.792969 C 198.527344 134.277344 198.042969 134.5625 197.648438 134.839844 C 197.457031 134.976562 197.621094 135.265625 197.832031 135.15625 C 198.414062 134.847656 199.03125 134.410156 199.125 133.695312 C 199.207031 133.070312 198.789062 132.597656 198.269531 132.316406 C 198.078125 132.21875 197.917969 132.5 198.101562 132.613281 Z M 198.101562 132.613281 "/>
<path style=" stroke:none;fill-rule:nonzero;fill:rgb(29.019608%,28.627451%,79.215686%);fill-opacity:1;" d="M 190.992188 135.851562 C 192.425781 136.746094 194.457031 136.601562 195.644531 135.339844 C 195.789062 135.183594 195.589844 134.890625 195.40625 135.03125 C 194.105469 135.996094 192.632812 136.308594 191.109375 135.648438 C 190.976562 135.589844 190.863281 135.769531 190.992188 135.851562 Z M 190.992188 135.851562 "/>
<path style=" stroke:none;fill-rule:nonzero;fill:rgb(29.019608%,28.627451%,79.215686%);fill-opacity:1;" d="M 198.289062 127.765625 C 199.113281 128.550781 198.289062 129.628906 197.761719 130.300781 C 197.640625 130.449219 197.824219 130.648438 197.972656 130.511719 C 198.441406 130.074219 198.914062 129.585938 198.976562 128.910156 C 199.027344 128.402344 198.816406 127.917969 198.367188 127.667969 C 198.308594 127.636719 198.238281 127.714844 198.289062 127.765625 Z M 198.289062 127.765625 "/>
<path style=" stroke:none;fill-rule:nonzero;fill:rgb(4.313725%,26.27451%,64.313725%);fill-opacity:1;" d="M 106.691406 28.5625 L 105.425781 25.453125 L 117.679688 20.78125 Z M 106.691406 28.5625 "/>
<path style=" stroke:none;fill-rule:nonzero;fill:rgb(31.764706%,57.647059%,95.686275%);fill-opacity:1;" d="M 107.308594 26.640625 L 117.679688 20.78125 L 110.460938 28.132812 Z M 107.308594 26.640625 "/>
<path style=" stroke:none;fill-rule:nonzero;fill:rgb(31.764706%,57.647059%,95.686275%);fill-opacity:1;" d="M 102.617188 24.179688 L 117.679688 20.78125 L 105.425781 25.453125 Z M 102.617188 24.179688 "/>
<path style=" stroke:none;fill-rule:nonzero;fill:rgb(0%,33.72549%,92.54902%);fill-opacity:1;" d="M 107.308594 26.640625 L 106.691406 28.5625 L 108.566406 27.238281 Z M 107.308594 26.640625 "/>
<path style="fill:none;stroke-width:1;stroke-linecap:round;stroke-linejoin:round;stroke:rgb(78.431373%,85.882353%,98.431373%);stroke-opacity:1;stroke-dasharray:4,4;stroke-miterlimit:10;" d="M 210.5 56.161133 C 204.101562 55.077663 195.414062 61.562891 199.148438 68.29755 C 200.421875 70.596999 206.984375 69.599272 206.492188 67.06598 C 206.257812 65.85 204.773438 65.327752 203.546875 65.468058 C 196.398438 66.2943 196.109375 72.288459 196.4375 73.816229 C 198.070312 81.70451 210.15625 79.038707 214.21875 77.924059 " transform="matrix(0.5,0,0,0.501139,0,0)"/>
</g>
</svg>
