<?xml version="1.0" encoding="UTF-8"?>
<svg xmlns="http://www.w3.org/2000/svg" xmlns:xlink="http://www.w3.org/1999/xlink" width="514pt" height="439pt" viewBox="0 0 514 439" version="1.1">
<defs>
<filter id="alpha" filterUnits="objectBoundingBox" x="0%" y="0%" width="100%" height="100%">
  <feColorMatrix type="matrix" in="SourceGraphic" values="0 0 0 0 1 0 0 0 0 1 0 0 0 0 1 0 0 0 1 0"/>
</filter>
<mask id="mask0">
  <g filter="url(#alpha)">
<rect x="0" y="0" width="514" height="439" style="fill:rgb(0%,0%,0%);fill-opacity:0.2;stroke:none;"/>
  </g>
</mask>
<clipPath id="clip1">
  <rect x="0" y="0" width="514" height="439"/>
</clipPath>
<g id="surface5" clip-path="url(#clip1)">
<path style=" stroke:none;fill-rule:nonzero;fill:rgb(32.156863%,45.882353%,62.745098%);fill-opacity:1;" d="M 90.429688 280.835938 C 90.429688 280.835938 59.175781 255.480469 52.578125 228.273438 C 59.316406 232.539062 64.761719 239.109375 68.855469 246.085938 C 72.570312 252.425781 81.734375 262.296875 87.972656 268.722656 C 88.707031 272.125 89.519531 276.125 90.429688 280.835938 Z M 90.429688 280.835938 "/>
</g>
<mask id="mask1">
  <g filter="url(#alpha)">
<rect x="0" y="0" width="514" height="439" style="fill:rgb(0%,0%,0%);fill-opacity:0.2;stroke:none;"/>
  </g>
</mask>
<clipPath id="clip2">
  <rect x="0" y="0" width="514" height="439"/>
</clipPath>
<g id="surface8" clip-path="url(#clip2)">
<path style=" stroke:none;fill-rule:nonzero;fill:rgb(32.156863%,45.882353%,62.745098%);fill-opacity:1;" d="M 91.871094 179.933594 C 89 188.699219 85.035156 197.140625 81.03125 205.472656 C 78.941406 209.828125 70.460938 219.90625 65.910156 221.824219 C 66.441406 210.457031 66.484375 197.183594 65.164062 185.707031 C 63.898438 174.65625 67.871094 166.277344 63.539062 156.027344 C 62.988281 154.71875 62.414062 153.40625 61.839844 152.09375 C 62.238281 152.226562 62.628906 152.363281 63.007812 152.527344 C 70.136719 155.585938 73.425781 163.125 74.035156 170.449219 C 74.542969 176.496094 73.449219 182.554688 72.636719 188.570312 C 72.257812 191.34375 71.953125 194.183594 72.550781 196.902344 C 72.5625 196.933594 72.570312 196.957031 72.570312 196.988281 C 73.320312 200.226562 78.050781 200.042969 78.65625 196.761719 L 80.554688 186.695312 C 81.117188 183.679688 81.734375 180.527344 84.203125 178.425781 C 85.175781 177.59375 86.433594 177.070312 87.710938 177.113281 C 89.746094 177.191406 91.027344 178.382812 91.871094 179.933594 Z M 91.871094 179.933594 "/>
</g>
<mask id="mask2">
  <g filter="url(#alpha)">
<rect x="0" y="0" width="514" height="439" style="fill:rgb(0%,0%,0%);fill-opacity:0.2;stroke:none;"/>
  </g>
</mask>
<clipPath id="clip3">
  <rect x="0" y="0" width="514" height="439"/>
</clipPath>
<g id="surface11" clip-path="url(#clip3)">
<path style=" stroke:none;fill-rule:nonzero;fill:rgb(32.156863%,45.882353%,62.745098%);fill-opacity:1;" d="M 189.449219 156.34375 C 189.328125 157.839844 189.371094 159.332031 189.652344 160.851562 C 186.046875 160.027344 183.546875 154.425781 181.898438 148.324219 C 180.285156 142.394531 179.484375 135.980469 179.234375 133.023438 C 178.746094 126.78125 179.148438 120.453125 180.4375 114.308594 C 185.9375 122.707031 189.785156 132.046875 193.132812 141.5625 C 191.984375 144.976562 190.996094 148.433594 190.183594 151.921875 C 189.839844 153.40625 189.566406 154.867188 189.449219 156.34375 Z M 189.449219 156.34375 "/>
</g>
<mask id="mask3">
  <g filter="url(#alpha)">
<rect x="0" y="0" width="514" height="439" style="fill:rgb(0%,0%,0%);fill-opacity:0.2;stroke:none;"/>
  </g>
</mask>
<clipPath id="clip4">
  <rect x="0" y="0" width="514" height="439"/>
</clipPath>
<g id="surface14" clip-path="url(#clip4)">
<path style=" stroke:none;fill-rule:nonzero;fill:rgb(32.156863%,45.882353%,62.745098%);fill-opacity:1;" d="M 214.453125 104.277344 C 213.230469 109.683594 209.972656 114.351562 207.089844 119.101562 C 205.574219 121.59375 204.15625 124.160156 202.835938 126.761719 C 200.894531 123.488281 199.5625 119.878906 199.195312 116.109375 C 198.601562 109.8125 201.003906 103.074219 206.117188 99.367188 C 208.507812 97.644531 211.3125 96.65625 214.25 96.214844 C 215.007812 98.792969 215.039062 101.664062 214.453125 104.277344 Z M 214.453125 104.277344 "/>
</g>
<mask id="mask4">
  <g filter="url(#alpha)">
<rect x="0" y="0" width="514" height="439" style="fill:rgb(0%,0%,0%);fill-opacity:0.2;stroke:none;"/>
  </g>
</mask>
<clipPath id="clip5">
  <rect x="0" y="0" width="514" height="439"/>
</clipPath>
<g id="surface17" clip-path="url(#clip5)">
<path style=" stroke:none;fill-rule:nonzero;fill:rgb(32.156863%,45.882353%,62.745098%);fill-opacity:1;" d="M 255.445312 151.3125 C 255.109375 153.382812 254.492188 155.378906 253.605469 157.296875 C 249.003906 147.53125 244.953125 134.789062 243.976562 119.140625 C 243.71875 114.90625 244.898438 110.550781 247.148438 106.898438 C 247.378906 107.148438 247.574219 107.417969 247.769531 107.679688 C 251.007812 112.109375 252.675781 117.507812 253.898438 122.882812 C 256.019531 132.1875 256.972656 141.875 255.445312 151.3125 Z M 255.445312 151.3125 "/>
</g>
<mask id="mask5">
  <g filter="url(#alpha)">
<rect x="0" y="0" width="514" height="439" style="fill:rgb(0%,0%,0%);fill-opacity:0.2;stroke:none;"/>
  </g>
</mask>
<clipPath id="clip6">
  <rect x="0" y="0" width="514" height="439"/>
</clipPath>
<g id="surface20" clip-path="url(#clip6)">
<path style=" stroke:none;fill-rule:nonzero;fill:rgb(32.156863%,45.882353%,62.745098%);fill-opacity:1;" d="M 480.695312 259.015625 C 479.050781 259.957031 477.316406 260.78125 475.574219 261.515625 C 468.796875 264.367188 461.507812 265.980469 454.164062 266.261719 C 443.464844 266.664062 432.460938 264.300781 422.195312 267.355469 C 417.484375 268.753906 413.140625 271.300781 409.578125 274.671875 C 409.21875 274.84375 408.863281 275.039062 408.503906 275.246094 C 407.648438 267.996094 425.714844 258.546875 431.203125 256.089844 C 441.113281 251.644531 452.160156 249.671875 462.988281 250.539062 C 467.734375 250.917969 472.597656 251.851562 476.507812 254.550781 C 478.183594 255.710938 479.65625 257.257812 480.695312 259.015625 Z M 480.695312 259.015625 "/>
</g>
<mask id="mask6">
  <g filter="url(#alpha)">
<rect x="0" y="0" width="514" height="439" style="fill:rgb(0%,0%,0%);fill-opacity:0.2;stroke:none;"/>
  </g>
</mask>
<clipPath id="clip7">
  <rect x="0" y="0" width="514" height="439"/>
</clipPath>
<g id="surface23" clip-path="url(#clip7)">
<path style=" stroke:none;fill-rule:nonzero;fill:rgb(32.156863%,45.882353%,62.745098%);fill-opacity:1;" d="M 426.546875 374.265625 L 100.6875 374.9375 C 96.34375 374.949219 92.800781 371.425781 92.800781 367.082031 L 92.359375 151.085938 C 92.347656 146.742188 95.867188 143.199219 100.210938 143.199219 L 426.070312 142.527344 C 430.414062 142.515625 433.957031 146.035156 433.957031 150.382812 L 434.398438 366.378906 C 434.410156 370.722656 430.902344 374.253906 426.546875 374.265625 Z M 426.546875 374.265625 "/>
</g>
<mask id="mask7">
  <g filter="url(#alpha)">
<rect x="0" y="0" width="514" height="439" style="fill:rgb(0%,0%,0%);fill-opacity:0.2;stroke:none;"/>
  </g>
</mask>
<clipPath id="clip8">
  <rect x="0" y="0" width="514" height="439"/>
</clipPath>
<g id="surface26" clip-path="url(#clip8)">
<path style=" stroke:none;fill-rule:nonzero;fill:rgb(32.156863%,45.882353%,62.745098%);fill-opacity:1;" d="M 306.976562 123.964844 C 285.066406 123.128906 254.902344 139.339844 265.605469 178.980469 C 265.378906 182.328125 267.382812 184.722656 269.515625 184.070312 C 271.648438 183.421875 269.761719 177.0625 269.761719 177.0625 C 273.414062 147.585938 280.234375 142.492188 291.8125 142.601562 L 318.984375 142.546875 C 325.699219 143.535156 337.90625 148.238281 339.734375 171.828125 L 346.503906 173.074219 C 347.035156 156.027344 342.917969 125.339844 306.976562 123.964844 Z M 306.976562 123.964844 "/>
</g>
<mask id="mask8">
  <g filter="url(#alpha)">
<rect x="0" y="0" width="514" height="439" style="fill:rgb(0%,0%,0%);fill-opacity:0.2;stroke:none;"/>
  </g>
</mask>
<clipPath id="clip9">
  <rect x="0" y="0" width="514" height="439"/>
</clipPath>
<g id="surface29" clip-path="url(#clip9)">
<path style=" stroke:none;fill-rule:nonzero;fill:rgb(32.156863%,45.882353%,62.745098%);fill-opacity:1;" d="M 207.933594 319.035156 C 204.957031 327.128906 202.28125 335.050781 199.921875 342.539062 C 199.023438 331.074219 198.132812 321.863281 197.613281 320 L 201.101562 319.230469 Z M 207.933594 319.035156 "/>
</g>
</defs>
<g id="surface1">
<path style=" stroke:none;fill-rule:nonzero;fill:rgb(92.54902%,95.294118%,100%);fill-opacity:1;" d="M 107.996094 55.816406 C 124.910156 56.953125 131.996094 45.402344 139.933594 30.558594 C 161.691406 -10.078125 210.15625 -6.164062 226.410156 18.855469 C 237.921875 36.582031 262.757812 32.929688 282.835938 25.996094 C 302.597656 19.167969 336.28125 12.613281 363.117188 20.773438 C 386.554688 27.902344 396.160156 53.605469 417.527344 52.023438 C 464.128906 48.578125 487.617188 94.597656 479.171875 114.679688 C 473.65625 127.777344 470.929688 142.441406 475.402344 155.921875 C 480.328125 170.765625 491.601562 182.523438 500.710938 195.285156 C 509.820312 208.050781 517.152344 224.011719 512.625 238.988281 C 508.746094 251.808594 497.191406 260.671875 490.023438 271.996094 C 467.746094 307.179688 489.785156 361.109375 460.097656 390.445312 C 438.851562 411.433594 404.21875 406.589844 374.488281 410.597656 C 349.699219 413.9375 326.371094 424.359375 301.6875 428.433594 C 251.710938 436.703125 201.242188 418.496094 150.578125 417.976562 C 132.730469 417.792969 114.546875 419.789062 97.261719 415.386719 C 74.195312 409.515625 54.570312 391.753906 46.570312 369.53125 C 35.523438 338.863281 45.984375 303.367188 33.519531 273.242188 C 23.359375 248.699219 -1.496094 228.726562 0.0742188 202.242188 C 1.050781 185.75 12.300781 171.96875 20.046875 157.339844 C 31.546875 135.613281 16.308594 49.683594 107.996094 55.816406 Z M 255.476562 16.003906 C 251.027344 16.003906 247.429688 18.769531 247.429688 22.171875 C 247.429688 25.574219 251.050781 28.042969 255.476562 28.335938 C 269.9375 29.289062 269.9375 23.449219 269.9375 20.035156 C 269.9375 14.597656 259.917969 16.003906 255.476562 16.003906 Z M 402.300781 42.316406 C 406.164062 45.511719 411.09375 47.417969 416.117188 47.679688 C 417.460938 47.742188 418.925781 47.65625 419.953125 46.8125 C 421.230469 45.761719 421.371094 43.605469 420.234375 42.402344 C 419.519531 41.644531 418.480469 41.308594 417.503906 40.90625 C 415.847656 40.234375 414.234375 39.269531 413.292969 37.765625 C 413.019531 37.332031 412.78125 36.820312 412.339844 36.570312 C 409.554688 35 397.210938 38.109375 402.300781 42.316406 Z M 426.925781 47.765625 C 428.203125 48.210938 429.589844 47.796875 430.878906 47.386719 C 431.703125 47.113281 432.710938 46.53125 432.492188 45.707031 C 432.386719 45.304688 432.015625 45.046875 431.648438 44.851562 C 429.960938 43.949219 427.773438 43.277344 426.082031 44.4375 C 424.382812 45.585938 425.660156 47.332031 426.925781 47.765625 Z M 485.722656 164.003906 C 485.9375 165.921875 487.132812 167.578125 488.269531 169.140625 C 490.476562 172.152344 492.71875 175.207031 495.632812 177.558594 C 496.867188 178.554688 498.296875 179.445312 499.886719 179.5 C 501.339844 179.554688 502.726562 178.890625 503.894531 178.046875 C 506.753906 176 508.683594 172.714844 509.082031 169.238281 C 509.625 164.46875 507.402344 159.820312 504.828125 155.757812 C 503.222656 153.242188 501.359375 150.730469 498.695312 149.386719 C 494.214844 147.121094 491.257812 149.09375 490 153.070312 C 488.863281 156.730469 485.257812 159.929688 485.722656 164.003906 Z M 8.792969 275.074219 C 6.433594 277.152344 8.566406 283.242188 9.257812 287.261719 C 9.464844 288.464844 9.746094 289.710938 10.503906 290.675781 C 11.542969 291.988281 13.277344 292.53125 14.890625 293.007812 C 17.761719 293.839844 21.246094 294.546875 23.445312 292.53125 C 25.070312 291.035156 25.308594 288.585938 25.296875 286.386719 C 25.296875 284.371094 25.191406 282.363281 24.972656 280.359375 C 24.875 279.394531 24.734375 278.410156 24.214844 277.585938 C 23.554688 276.535156 22.386719 275.929688 21.246094 275.441406 C 17.144531 273.707031 11.15625 273.003906 8.792969 275.074219 Z M 153.070312 427.609375 C 151.671875 427.894531 150.003906 428.5 149.800781 429.898438 C 149.636719 431.058594 150.601562 432.042969 151.542969 432.738281 C 159.242188 438.492188 169.617188 438.859375 179.257812 438.988281 C 180.382812 439 181.554688 439.011719 182.582031 438.578125 C 184.640625 437.710938 185.636719 434.992188 184.671875 432.984375 C 184.324219 432.25 183.773438 431.632812 183.1875 431.066406 C 175.457031 423.515625 162.71875 425.683594 153.070312 427.609375 Z M 345.476562 423.722656 C 336.777344 430.082031 345.570312 435.769531 356.554688 431.554688 C 362.46875 429.28125 368.140625 427.035156 374.207031 425.519531 C 376.167969 425.03125 388.003906 422.464844 388.003906 419.808594 C 388.003906 412.753906 374.671875 414.425781 366.277344 415.59375 C 359.511719 416.535156 352.644531 418.476562 345.476562 423.722656 Z M 345.476562 423.722656 "/>
<path style=" stroke:none;fill-rule:nonzero;fill:rgb(78.431373%,85.882353%,98.431373%);fill-opacity:1;" d="M 182.0625 405.332031 C 205.179688 405.332031 223.921875 403.582031 223.921875 401.421875 C 223.921875 399.261719 205.179688 397.507812 182.0625 397.507812 C 158.945312 397.507812 140.203125 399.261719 140.203125 401.421875 C 140.203125 403.582031 158.945312 405.332031 182.0625 405.332031 Z M 182.0625 405.332031 "/>
<path style=" stroke:none;fill-rule:nonzero;fill:rgb(78.431373%,85.882353%,98.431373%);fill-opacity:1;" d="M 397.089844 405.332031 C 420.207031 405.332031 438.949219 403.582031 438.949219 401.421875 C 438.949219 399.261719 420.207031 397.507812 397.089844 397.507812 C 373.972656 397.507812 355.234375 399.261719 355.234375 401.421875 C 355.234375 403.582031 373.972656 405.332031 397.089844 405.332031 Z M 397.089844 405.332031 "/>
<path style="fill:none;stroke-width:1;stroke-linecap:round;stroke-linejoin:round;stroke:rgb(78.431373%,85.882353%,98.431373%);stroke-opacity:1;stroke-miterlimit:4;" d="M 485.527344 125.945312 C 485.410156 125.222656 485.277344 124.507812 485.136719 123.8125 "/>
<path style="fill:none;stroke-width:1;stroke-linecap:round;stroke-linejoin:round;stroke:rgb(78.431373%,85.882353%,98.431373%);stroke-opacity:1;stroke-dasharray:3.99,3.99;stroke-miterlimit:4;" d="M 484.109375 119.617188 C 476.648438 94.175781 452.832031 96.636719 431.3125 96.679688 C 408.148438 96.722656 49.546875 97.46875 49.546875 97.46875 C 13.503906 97.546875 17.003906 149.601562 45.214844 149.535156 C 61.4375 149.503906 67.609375 179.984375 39.5625 180.039062 C 22.730469 180.074219 22.191406 201.421875 33.507812 205.699219 "/>
<path style="fill:none;stroke-width:1;stroke-linecap:round;stroke-linejoin:round;stroke:rgb(78.431373%,85.882353%,98.431373%);stroke-opacity:1;stroke-miterlimit:4;" d="M 35.585938 206.253906 C 36.269531 206.371094 36.996094 206.4375 37.753906 206.425781 "/>
<path style=" stroke:none;fill-rule:nonzero;fill:rgb(31.764706%,57.647059%,95.686275%);fill-opacity:1;" d="M 42.171875 205.441406 C 42.648438 208.269531 40.753906 210.945312 37.925781 211.433594 C 35.101562 211.910156 32.425781 210.011719 31.9375 207.183594 C 31.460938 204.355469 33.355469 201.679688 36.183594 201.191406 C 39.007812 200.714844 41.695312 202.621094 42.171875 205.441406 Z M 42.171875 205.441406 "/>
<path style=" stroke:none;fill-rule:nonzero;fill:rgb(31.764706%,57.647059%,95.686275%);fill-opacity:1;" d="M 490.628906 128.289062 C 490.121094 131.105469 487.414062 132.980469 484.597656 132.460938 C 481.78125 131.949219 479.90625 129.242188 480.425781 126.425781 C 480.9375 123.605469 483.644531 121.730469 486.460938 122.253906 C 489.273438 122.761719 491.136719 125.460938 490.628906 128.289062 Z M 490.628906 128.289062 "/>
<path style=" stroke:none;fill-rule:nonzero;fill:rgb(31.764706%,57.647059%,95.686275%);fill-opacity:1;" d="M 95.042969 167.535156 C 94.296875 171.75 93.203125 175.867188 91.871094 179.933594 C 89 188.699219 85.035156 197.140625 81.03125 205.472656 C 78.941406 209.828125 70.460938 219.90625 65.910156 221.824219 C 66.441406 210.457031 66.484375 197.183594 65.164062 185.707031 C 63.898438 174.65625 67.871094 166.277344 63.539062 156.027344 C 62.988281 154.71875 62.414062 153.40625 61.839844 152.09375 C 59.683594 147.21875 57.550781 142.320312 56.878906 137.066406 C 56.011719 130.402344 58.082031 122.804688 63.84375 119.335938 C 67.992188 116.84375 73.394531 116.976562 77.824219 118.9375 C 82.253906 120.898438 85.804688 124.484375 88.503906 128.503906 C 96.050781 139.730469 97.414062 154.230469 95.042969 167.535156 Z M 95.042969 167.535156 "/>
<path style="fill:none;stroke-width:1;stroke-linecap:round;stroke-linejoin:round;stroke:rgb(4.313725%,26.27451%,64.313725%);stroke-opacity:1;stroke-miterlimit:10;" d="M 74.898438 130.726562 C 83.378906 142.710938 84.117188 156.667969 84.851562 171.328125 C 85.589844 185.988281 82.070312 200.847656 74.824219 213.609375 "/>
<path style=" stroke:none;fill-rule:nonzero;fill:rgb(0%,67.843137%,62.352941%);fill-opacity:1;" d="M 74.542969 351.757812 C 68.597656 346.503906 62.585938 341.171875 58.1875 334.5625 C 54.367188 328.808594 51.898438 322.273438 48.5625 316.21875 C 46.40625 312.304688 43.851562 308.523438 42.605469 304.230469 C 41.359375 299.941406 41.652344 294.847656 44.707031 291.585938 C 47.890625 288.171875 53.359375 287.652344 57.679688 289.410156 C 62 291.164062 65.304688 294.804688 67.816406 298.726562 C 71.164062 303.941406 73.40625 309.867188 74.335938 315.988281 C 75.179688 321.539062 74.964844 327.214844 75.832031 332.765625 C 76.632812 337.933594 78.375 342.894531 80.5625 347.632812 C 82.546875 351.921875 87.582031 359.582031 88.859375 363.980469 C 85.296875 365.75 77.078125 354.003906 74.542969 351.757812 Z M 74.542969 351.757812 "/>
<path style="fill:none;stroke-width:1;stroke-linecap:round;stroke-linejoin:round;stroke:rgb(0%,67.843137%,62.352941%);stroke-opacity:1;stroke-miterlimit:10;" d="M 53.761719 297.253906 C 59.414062 299.726562 61.65625 306.476562 62.835938 312.53125 C 64.179688 319.425781 63.875 326.890625 67.039062 333.164062 C 72.992188 344.988281 80.738281 358.433594 86.5 362.453125 "/>
<path style=" stroke:none;fill-rule:nonzero;fill:rgb(0%,33.72549%,92.54902%);fill-opacity:1;" d="M 45.289062 335.59375 C 40.363281 333.640625 33.769531 332.839844 30.605469 337.097656 C 27.964844 340.664062 29.328125 345.722656 31.15625 349.765625 C 32.707031 353.179688 34.667969 356.65625 37.914062 358.511719 C 40.136719 359.777344 42.746094 360.15625 45.289062 360.460938 C 52.382812 361.304688 59.519531 361.71875 66.667969 361.695312 C 74.941406 361.675781 84.972656 365.054688 91.828125 370.222656 C 83.03125 353.882812 61.894531 342.148438 45.289062 335.59375 Z M 45.289062 335.59375 "/>
<path style="fill:none;stroke-width:1;stroke-linecap:round;stroke-linejoin:round;stroke:rgb(4.313725%,26.27451%,64.313725%);stroke-opacity:1;stroke-miterlimit:10;" d="M 36.636719 346.210938 C 42.917969 346.480469 49.253906 346.914062 55.277344 348.703125 C 61.4375 350.523438 85.144531 361.414062 88.847656 366.039062 "/>
<path style=" stroke:none;fill-rule:nonzero;fill:rgb(32.156863%,82.352941%,73.72549%);fill-opacity:1;" d="M 99.09375 302.042969 C 92.671875 291.988281 81.691406 284.964844 69.875 283.371094 C 61.144531 282.203125 52.167969 283.828125 43.546875 282.019531 C 34.492188 280.121094 26.328125 274.28125 21.605469 266.316406 C 16.882812 258.351562 15.648438 248.40625 18.300781 239.53125 C 20.328125 232.789062 24.953125 226.398438 31.644531 224.242188 C 35.292969 223.070312 39.28125 223.234375 43.003906 224.121094 C 46.449219 224.945312 49.644531 226.386719 52.589844 228.261719 C 59.328125 232.53125 64.773438 239.097656 68.867188 246.074219 C 72.582031 252.414062 81.746094 262.285156 87.984375 268.710938 C 91.644531 272.460938 94.296875 275.027344 94.296875 275.027344 C 98.5625 280.359375 96.558594 295.703125 99.09375 302.042969 Z M 99.09375 302.042969 "/>
<path style="fill:none;stroke-width:1;stroke-linecap:round;stroke-linejoin:round;stroke:rgb(0%,67.843137%,62.352941%);stroke-opacity:1;stroke-miterlimit:10;" d="M 29.683594 243.734375 C 50.664062 253.203125 73.535156 265.625 88.414062 283.199219 "/>
<use xlink:href="#surface5" mask="url(#mask0)"/>
<use xlink:href="#surface8" mask="url(#mask1)"/>
<path style=" stroke:none;fill-rule:nonzero;fill:rgb(49.411765%,90.980392%,83.137255%);fill-opacity:1;" d="M 90.429688 274.488281 C 85.492188 248.6875 82.890625 244.710938 85.070312 238.242188 C 87.84375 229.996094 86.28125 221.714844 88.890625 213.414062 C 91.503906 205.125 93.277344 196.207031 91.175781 187.765625 C 90.515625 185.101562 89.164062 182.195312 85.957031 182.078125 C 84.667969 182.035156 83.421875 182.554688 82.449219 183.390625 C 79.980469 185.492188 79.363281 188.644531 78.796875 191.65625 L 76.914062 201.722656 C 76.296875 204.996094 71.574219 205.191406 70.828125 201.941406 C 70.816406 201.90625 70.816406 201.886719 70.804688 201.855469 C 70.199219 199.132812 70.515625 196.296875 70.882812 193.519531 C 71.695312 187.496094 72.789062 181.449219 72.289062 175.390625 C 71.683594 168.066406 68.390625 160.523438 61.253906 157.480469 C 58.730469 156.394531 55.871094 156.15625 53.207031 156.839844 C 45.765625 158.746094 43.839844 166.03125 44.933594 172.238281 C 45.703125 176.617188 47.75 180.636719 49.601562 184.667969 C 54.128906 194.519531 50.804688 203.554688 51.429688 214.378906 C 53.164062 244.277344 90.429688 274.488281 90.429688 274.488281 Z M 90.429688 274.488281 "/>
<path style="fill:none;stroke-width:1;stroke-linecap:round;stroke-linejoin:round;stroke:rgb(0%,67.843137%,62.352941%);stroke-opacity:1;stroke-miterlimit:10;" d="M 57.226562 164.664062 C 60.898438 183.019531 64.613281 201.507812 71.738281 218.824219 C 73.828125 223.894531 74.847656 230.578125 86.941406 244.386719 "/>
<path style=" stroke:none;fill-rule:nonzero;fill:rgb(31.764706%,57.647059%,95.686275%);fill-opacity:1;" d="M 200.453125 169.367188 C 196.648438 165.023438 193.140625 160.601562 189.449219 156.34375 C 187.054688 153.578125 184.585938 150.882812 181.898438 148.324219 C 180.566406 147.046875 179.191406 145.808594 177.742188 144.605469 C 169.164062 137.519531 159.589844 131.636719 149.355469 127.257812 C 143.183594 124.613281 136.664062 122.4375 131.421875 118.222656 C 126.179688 114.015625 122.410156 107.101562 124.15625 100.613281 C 125.421875 95.929688 129.394531 92.289062 133.957031 90.621094 C 138.503906 88.964844 143.550781 89.09375 148.285156 90.113281 C 161.496094 92.960938 172.53125 102.464844 180.035156 113.703125 C 180.167969 113.898438 180.308594 114.101562 180.4375 114.308594 C 185.9375 122.707031 189.785156 132.046875 193.132812 141.5625 C 194.203125 144.617188 195.222656 147.695312 196.226562 150.761719 C 197.742188 155.34375 202.402344 164.828125 200.453125 169.367188 Z M 200.453125 169.367188 "/>
<path style="fill:none;stroke-width:1;stroke-linecap:round;stroke-linejoin:round;stroke:rgb(4.313725%,26.27451%,64.313725%);stroke-opacity:1;stroke-miterlimit:10;" d="M 140.011719 101.152344 C 154.425781 103.90625 164.625 113.453125 175.316406 123.507812 C 186.003906 133.566406 193.757812 146.710938 197.386719 160.9375 "/>
<use xlink:href="#surface11" mask="url(#mask2)"/>
<path style=" stroke:none;fill-rule:nonzero;fill:rgb(32.156863%,82.352941%,73.72549%);fill-opacity:1;" d="M 214.453125 104.273438 C 213.230469 109.683594 209.972656 114.351562 207.089844 119.097656 C 205.574219 121.589844 204.15625 124.160156 202.835938 126.761719 C 198.601562 135.082031 195.371094 143.914062 193.238281 153.003906 C 192.535156 155.984375 192.144531 158.910156 192.707031 161.933594 C 185.605469 160.308594 182.765625 140.097656 182.289062 134.097656 C 181.433594 123.28125 183.273438 112.195312 187.726562 102.292969 C 189.664062 97.945312 192.179688 93.675781 196.042969 90.894531 C 199.898438 88.109375 205.359375 87.132812 209.441406 89.558594 C 211.898438 91.023438 213.480469 93.449219 214.25 96.214844 C 215.007812 98.792969 215.039062 101.664062 214.453125 104.273438 Z M 214.453125 104.273438 "/>
<path style="fill:none;stroke-width:1;stroke-linecap:round;stroke-linejoin:round;stroke:rgb(0%,67.843137%,62.352941%);stroke-opacity:1;stroke-miterlimit:10;" d="M 190 155.972656 C 185.582031 144.867188 188.269531 121.363281 195.351562 106.59375 C 197.484375 102.140625 200.527344 97.96875 204.785156 95.488281 "/>
<use xlink:href="#surface14" mask="url(#mask3)"/>
<path style=" stroke:none;fill-rule:nonzero;fill:rgb(0%,67.843137%,62.352941%);fill-opacity:1;" d="M 255.445312 151.3125 C 255.109375 153.382812 254.492188 155.378906 253.605469 157.296875 C 250.453125 164.121094 243.835938 169.972656 233.925781 174.742188 C 233.925781 174.742188 233.375 163.949219 233.253906 161.054688 C 232.769531 148.679688 219.351562 141.84375 210.859375 132.816406 C 206.539062 128.210938 203.257812 122.402344 202.648438 116.109375 C 202.054688 109.8125 204.460938 103.070312 209.570312 99.367188 C 213.859375 96.265625 219.46875 95.59375 224.753906 95.996094 C 233.265625 96.679688 241.855469 100.242188 247.148438 106.898438 C 247.378906 107.148438 247.574219 107.417969 247.769531 107.679688 C 251.007812 112.109375 252.675781 117.507812 253.898438 122.882812 C 256.019531 132.1875 256.972656 141.875 255.445312 151.3125 Z M 255.445312 151.3125 "/>
<path style="fill:none;stroke-width:1;stroke-linecap:round;stroke-linejoin:round;stroke:rgb(0%,67.843137%,62.352941%);stroke-opacity:1;stroke-miterlimit:10;" d="M 213.230469 105.996094 C 222.523438 110.808594 231.824219 116.617188 237.230469 125.566406 C 244.777344 138.0625 243.132812 154.316406 237.316406 167.699219 "/>
<path style=" stroke:none;fill-rule:nonzero;fill:rgb(32.156863%,82.352941%,73.72549%);fill-opacity:1;" d="M 410.855469 231.121094 C 416.78125 221.367188 413.746094 208.820312 415.816406 197.605469 C 417.398438 188.980469 422.195312 180.984375 429.0625 175.523438 C 433.371094 172.097656 439.425781 169.648438 444.289062 172.21875 C 445.339844 172.769531 446.59375 173.5625 447.613281 172.933594 C 448.21875 172.5625 448.457031 171.804688 448.609375 171.113281 C 449.84375 165.054688 446.929688 158.433594 449.3125 152.722656 C 450.589844 149.644531 453.242188 147.347656 456.050781 145.558594 C 461.464844 142.105469 467.800781 140.121094 474.210938 139.859375 C 475.910156 139.796875 477.6875 139.859375 479.214844 140.617188 C 481.964844 141.996094 483.222656 145.429688 482.851562 148.484375 C 482.484375 151.542969 480.796875 154.28125 478.933594 156.730469 C 472.714844 164.871094 463.609375 171.890625 462.40625 182.054688 C 462.253906 183.335938 462.253906 184.699219 462.839844 185.847656 C 463.414062 186.964844 464.476562 187.757812 465.070312 188.851562 C 466.988281 192.371094 463.28125 196.371094 459.675781 198.09375 C 456.375 199.675781 452.800781 200.660156 449.148438 201.007812 C 446.636719 201.246094 443.8125 201.300781 442.101562 203.152344 C 438.949219 206.578125 442.566406 212.050781 441.90625 216.65625 C 441.492188 219.527344 439.414062 221.847656 437.3125 223.863281 C 433.425781 227.601562 429.179688 230.949219 424.640625 233.863281 C 420.960938 236.226562 417.070312 238.304688 413.8125 241.210938 C 410.550781 244.113281 407.921875 248.046875 407.703125 252.414062 "/>
<path style="fill:none;stroke-width:1;stroke-linecap:round;stroke-linejoin:round;stroke:rgb(0%,67.843137%,62.352941%);stroke-opacity:1;stroke-miterlimit:10;" d="M 418.652344 221.628906 C 419.617188 216.90625 421.816406 212.527344 423.992188 208.226562 C 427.394531 201.496094 430.859375 194.667969 435.992188 189.152344 C 439.890625 184.960938 444.644531 181.644531 448.609375 177.515625 C 451.433594 174.566406 453.839844 171.230469 455.734375 167.613281 C 456.765625 165.648438 457.652344 163.59375 459.027344 161.867188 C 460.671875 159.820312 462.914062 158.359375 464.875 156.601562 C 467.519531 154.238281 469.640625 151.304688 471.070312 148.054688 "/>
<path style=" stroke:none;fill-rule:nonzero;fill:rgb(31.764706%,57.647059%,95.686275%);fill-opacity:1;" d="M 495.882812 237.882812 C 494.550781 243.019531 492.566406 248.101562 489.167969 252.175781 C 486.816406 254.984375 483.894531 257.203125 480.699219 259.015625 C 479.050781 259.957031 477.320312 260.78125 475.574219 261.515625 C 468.796875 264.367188 461.507812 265.980469 454.164062 266.261719 C 443.464844 266.664062 432.460938 264.300781 422.195312 267.355469 C 417.484375 268.753906 413.140625 271.300781 409.578125 274.671875 C 407.347656 276.761719 405.429688 279.179688 403.914062 281.835938 L 405.3125 272.949219 C 407.898438 263.390625 410.539062 253.660156 415.828125 245.285156 C 419.238281 239.855469 423.667969 235.132812 428.378906 230.785156 C 435.90625 223.828125 444.253906 217.707031 453.472656 213.230469 C 460.921875 209.613281 469.195312 207.066406 477.425781 208.074219 C 485.648438 209.070312 493.726562 214.273438 496.292969 222.148438 C 497.9375 227.210938 497.222656 232.734375 495.882812 237.882812 Z M 495.882812 237.882812 "/>
<path style="fill:none;stroke-width:1;stroke-linecap:round;stroke-linejoin:round;stroke:rgb(4.313725%,26.27451%,64.313725%);stroke-opacity:1;stroke-miterlimit:10;" d="M 412.308594 266.1875 C 420.167969 254.550781 431.941406 245.597656 445.261719 241.15625 C 453.558594 238.382812 462.339844 237.332031 470.746094 234.902344 C 479.148438 232.476562 487.542969 228.359375 492.46875 221.121094 "/>
<path style=" stroke:none;fill-rule:nonzero;fill:rgb(32.156863%,82.352941%,73.72549%);fill-opacity:1;" d="M 417.484375 351.542969 C 417.949219 339.589844 424.121094 328.558594 431.628906 319.238281 C 437.875 311.472656 445.425781 304.363281 454.75 300.820312 C 457.675781 299.714844 460.878906 298.964844 463.910156 299.714844 C 466.945312 300.460938 469.695312 303.050781 469.75 306.183594 C 469.792969 308.816406 468.027344 311.125 466.164062 312.988281 C 460.035156 319.132812 452.117188 323.066406 444.6875 327.550781 C 431.929688 335.265625 419.800781 345.5625 414.742188 359.59375 "/>
<path style="fill:none;stroke-width:1;stroke-linecap:round;stroke-linejoin:round;stroke:rgb(0%,67.843137%,62.352941%);stroke-opacity:1;stroke-miterlimit:10;" d="M 422.207031 341.085938 C 430.003906 323.683594 450.191406 308.121094 463.5 306.183594 "/>
<path style=" stroke:none;fill-rule:nonzero;fill:rgb(0%,67.843137%,62.352941%);fill-opacity:1;" d="M 412.609375 361.046875 C 412.503906 359.039062 419.03125 353.808594 420.503906 352.472656 C 428.660156 345.074219 438.34375 339.632812 448.574219 336.425781 C 452.714844 335.125 457.121094 334.183594 461.257812 335.179688 C 465.40625 336.175781 469.207031 339.578125 469.609375 344.042969 C 469.996094 348.378906 467.097656 352.625 463.382812 354.71875 C 459.664062 356.820312 455.335938 357.132812 451.195312 356.894531 C 444.808594 356.527344 438.527344 354.933594 432.113281 354.976562 C 425.691406 355.03125 416.683594 355.683594 412.609375 361.046875 Z M 412.609375 361.046875 "/>
<path style="fill:none;stroke-width:1;stroke-linecap:round;stroke-linejoin:round;stroke:rgb(0%,67.843137%,62.352941%);stroke-opacity:1;stroke-miterlimit:10;" d="M 419.261719 354.96875 C 432.375 347.859375 452.203125 343.230469 466.609375 344.976562 "/>
<use xlink:href="#surface17" mask="url(#mask4)"/>
<path style=" stroke:none;fill-rule:nonzero;fill:rgb(49.411765%,90.980392%,83.137255%);fill-opacity:1;" d="M 300.8125 150.761719 C 310.601562 147.28125 320.78125 144.507812 329.683594 139.136719 C 332.382812 137.507812 334.96875 135.625 336.886719 133.132812 C 338.792969 130.640625 339.972656 127.453125 339.550781 124.332031 C 339.117188 121.167969 337.09375 118.132812 337.773438 115.003906 C 338.230469 112.945312 339.769531 111.339844 340.949219 109.585938 C 343.753906 105.433594 344.585938 100.007812 343.167969 95.195312 C 341.632812 90.035156 337.765625 85.898438 335.566406 80.988281 C 333.769531 76.96875 333.128906 72.449219 333.734375 68.09375 C 325.515625 68.203125 318.019531 72.699219 309.941406 74.195312 C 303.757812 75.34375 297.335938 74.714844 291.207031 76.125 C 280.039062 78.691406 270.898438 88.53125 269.167969 99.863281 C 263.992188 98.976562 258.414062 100.839844 254.808594 104.675781 C 250.984375 108.75 248.828125 114.546875 249.175781 120.128906 C 251.699219 160.6875 274.90625 181.839844 274.90625 181.839844 C 274.90625 181.839844 297.074219 152.09375 300.8125 150.761719 Z M 300.8125 150.761719 "/>
<path style="fill:none;stroke-width:1;stroke-linecap:round;stroke-linejoin:round;stroke:rgb(0%,67.843137%,62.352941%);stroke-opacity:1;stroke-miterlimit:10;" d="M 278.902344 150.480469 C 277.886719 140.476562 281.382812 130.585938 285.390625 121.363281 C 289.300781 112.378906 293.804688 103.570312 299.847656 95.855469 C 305.890625 88.140625 313.570312 81.53125 322.636719 77.800781 "/>
<path style="fill:none;stroke-width:1;stroke-linecap:round;stroke-linejoin:round;stroke:rgb(0%,67.843137%,62.352941%);stroke-opacity:1;stroke-miterlimit:10;" d="M 287.621094 83.945312 C 286.59375 92.863281 287.316406 103.613281 289.636719 112.28125 "/>
<path style="fill:none;stroke-width:1;stroke-linecap:round;stroke-linejoin:round;stroke:rgb(0%,67.843137%,62.352941%);stroke-opacity:1;stroke-miterlimit:10;" d="M 291.304688 109.085938 C 301.484375 102.550781 317.144531 98.585938 329.21875 99.28125 "/>
<path style="fill:none;stroke-width:1;stroke-linecap:round;stroke-linejoin:round;stroke:rgb(0%,67.843137%,62.352941%);stroke-opacity:1;stroke-miterlimit:10;" d="M 266.40625 110.753906 C 278.664062 115.925781 279.164062 133.953125 279.5 139.082031 "/>
<path style="fill:none;stroke-width:1;stroke-linecap:round;stroke-linejoin:round;stroke:rgb(0%,67.843137%,62.352941%);stroke-opacity:1;stroke-miterlimit:10;" d="M 282.835938 127.617188 C 292.214844 120.886719 305.761719 118.859375 315.734375 121.375 "/>
<path style="fill:none;stroke-width:1;stroke-linecap:round;stroke-linejoin:round;stroke:rgb(0%,67.843137%,62.352941%);stroke-opacity:1;stroke-miterlimit:10;" d="M 308.425781 79.308594 C 305.609375 82.789062 304.90625 86.925781 305.1875 89.796875 "/>
<path style="fill:none;stroke-width:1;stroke-linecap:round;stroke-linejoin:round;stroke:rgb(0%,67.843137%,62.352941%);stroke-opacity:1;stroke-miterlimit:10;" d="M 307.851562 87.25 C 312.171875 85.042969 317.957031 84.53125 324.140625 86.082031 "/>
<path style=" stroke:none;fill-rule:nonzero;fill:rgb(29.019608%,28.627451%,79.215686%);fill-opacity:1;" d="M 66.710938 106.875 C 67.859375 106.8125 75.722656 100.992188 78.746094 99.03125 C 79.601562 98.476562 80.457031 97.902344 81.050781 97.078125 C 81.648438 96.257812 81.929688 95.128906 81.496094 94.207031 C 80.953125 93.070312 80.066406 91.933594 77.824219 91.933594 C 73.914062 91.945312 72.550781 93.234375 70.644531 95.195312 C 64.351562 101.707031 66.710938 106.875 66.710938 106.875 Z M 66.710938 106.875 "/>
<path style=" stroke:none;fill-rule:nonzero;fill:rgb(29.019608%,28.627451%,79.215686%);fill-opacity:1;" d="M 101.941406 130.355469 C 105.363281 131.894531 109.015625 133.425781 112.738281 132.945312 C 114.179688 132.761719 115.761719 132.101562 116.238281 130.738281 C 116.648438 129.566406 116.085938 128.210938 115.15625 127.386719 C 114.222656 126.566406 113 126.164062 111.785156 125.871094 C 107.238281 124.753906 100.839844 125.371094 96.332031 126.652344 C 96.320312 126.652344 99.894531 129.4375 101.941406 130.355469 Z M 101.941406 130.355469 "/>
<path style=" stroke:none;fill-rule:nonzero;fill:rgb(29.019608%,28.627451%,79.215686%);fill-opacity:1;" d="M 124.46875 79.796875 C 122.941406 78.832031 121.253906 77.542969 121.261719 75.734375 C 121.261719 73.921875 123.148438 72.546875 124.957031 72.535156 C 126.765625 72.527344 128.441406 73.511719 129.808594 74.714844 C 135.558594 79.773438 134.84375 85.539062 134.84375 85.539062 C 134.84375 85.539062 126.167969 80.871094 124.46875 79.796875 Z M 124.46875 79.796875 "/>
<path style=" stroke:none;fill-rule:nonzero;fill:rgb(29.019608%,28.627451%,79.215686%);fill-opacity:1;" d="M 129.007812 64.375 C 127.664062 63.800781 126.289062 63.109375 125.496094 61.875 C 125.117188 61.277344 124.902344 60.519531 125.128906 59.847656 C 125.519531 58.730469 126.222656 57.722656 129.050781 58.234375 C 137.984375 59.859375 139.933594 65.980469 139.933594 65.980469 C 139.933594 65.980469 131.378906 65.394531 129.007812 64.375 Z M 129.007812 64.375 "/>
<path style=" stroke:none;fill-rule:nonzero;fill:rgb(29.019608%,28.627451%,79.215686%);fill-opacity:1;" d="M 155.183594 77.921875 C 158.765625 77.609375 162.472656 75.832031 164.722656 73.023438 C 165.578125 71.960938 166.359375 70.800781 166.640625 69.46875 C 166.921875 68.136719 166.617188 66.621094 165.589844 65.730469 C 164.335938 64.648438 162.339844 64.820312 160.964844 65.730469 C 159.578125 66.640625 158.691406 68.136719 157.976562 69.621094 C 157.023438 71.617188 155.183594 77.921875 155.183594 77.921875 Z M 155.183594 77.921875 "/>
<path style="fill:none;stroke-width:1;stroke-linecap:round;stroke-linejoin:round;stroke:rgb(4.313725%,26.27451%,64.313725%);stroke-opacity:1;stroke-miterlimit:10;" d="M 91.1875 208.667969 C 82.511719 201.019531 73.828125 193.359375 65.152344 185.707031 C 60.527344 181.632812 55.808594 177.429688 52.882812 172 C 46.589844 160.328125 50.21875 145.171875 58.71875 134.996094 C 67.222656 124.820312 79.675781 118.816406 92.195312 114.449219 C 104.703125 110.082031 117.730469 107.015625 129.65625 101.230469 C 137.140625 97.601562 144.65625 92.203125 146.714844 84.140625 C 147.949219 79.296875 146.90625 73.914062 143.964844 69.882812 C 141.015625 65.839844 136.207031 63.21875 131.214844 62.925781 "/>
<path style="fill:none;stroke-width:1;stroke-linecap:round;stroke-linejoin:round;stroke:rgb(4.313725%,26.27451%,64.313725%);stroke-opacity:1;stroke-miterlimit:10;" d="M 161.246094 69.601562 C 158.875 76.882812 149.636719 81.3125 145.425781 87.632812 "/>
<path style="fill:none;stroke-width:1;stroke-linecap:round;stroke-linejoin:round;stroke:rgb(4.313725%,26.27451%,64.313725%);stroke-opacity:1;stroke-miterlimit:10;" d="M 128.085938 77.976562 C 129.90625 79.894531 132.082031 81.488281 133.675781 83.601562 C 137.03125 88.074219 137.300781 95.347656 132.34375 99.855469 "/>
<path style="fill:none;stroke-width:1;stroke-linecap:round;stroke-linejoin:round;stroke:rgb(4.313725%,26.27451%,64.313725%);stroke-opacity:1;stroke-miterlimit:10;" d="M 81.355469 118.761719 C 89.011719 124.667969 99.074219 128.601562 108.734375 128.96875 "/>
<path style="fill:none;stroke-width:1;stroke-linecap:round;stroke-linejoin:round;stroke:rgb(4.313725%,26.27451%,64.313725%);stroke-opacity:1;stroke-miterlimit:10;" d="M 63.832031 129.511719 C 60.300781 119.109375 64.144531 106.648438 72.917969 100.050781 "/>
<path style=" stroke:none;fill-rule:nonzero;fill:rgb(29.019608%,28.627451%,79.215686%);fill-opacity:1;" d="M 343.6875 85.5625 C 343.277344 84.273438 343.296875 82.691406 344.242188 81.726562 C 345 80.96875 346.253906 80.621094 347.242188 81.054688 C 354.855469 84.402344 354.03125 96.289062 354.03125 96.289062 C 354.03125 96.289062 346.816406 95.25 343.6875 85.5625 Z M 343.6875 85.5625 "/>
<path style=" stroke:none;fill-rule:nonzero;fill:rgb(29.019608%,28.627451%,79.215686%);fill-opacity:1;" d="M 343.503906 107.828125 C 338.578125 116.738281 356.078125 116.054688 362.390625 110.808594 C 362.390625 110.808594 347.75 100.15625 343.503906 107.828125 Z M 343.503906 107.828125 "/>
<path style=" stroke:none;fill-rule:nonzero;fill:rgb(29.019608%,28.627451%,79.215686%);fill-opacity:1;" d="M 365.640625 86.242188 C 364.449219 84.617188 364.027344 82.191406 365.328125 80.640625 C 366.289062 79.492188 367.96875 79.136719 369.441406 79.417969 C 370.914062 79.699219 373.125 81.0625 374.066406 82.234375 C 379.828125 89.40625 377.121094 96.417969 377.121094 96.417969 C 377.121094 96.417969 367.578125 88.910156 365.640625 86.242188 Z M 365.640625 86.242188 "/>
<path style=" stroke:none;fill-rule:nonzero;fill:rgb(29.019608%,28.627451%,79.215686%);fill-opacity:1;" d="M 435.148438 108.296875 C 434.726562 106.90625 434.820312 105.21875 435.894531 104.242188 C 436.578125 103.625 437.539062 103.40625 438.449219 103.472656 C 439.359375 103.539062 440.238281 103.875 441.070312 104.253906 C 442.859375 105.066406 444.242188 106.496094 445.101562 108.261719 C 447.265625 112.726562 445.792969 118.242188 445.792969 118.242188 C 445.792969 118.242188 436.210938 111.753906 435.148438 108.296875 Z M 435.148438 108.296875 "/>
<path style=" stroke:none;fill-rule:nonzero;fill:rgb(29.019608%,28.627451%,79.215686%);fill-opacity:1;" d="M 413.28125 124.636719 C 410.183594 121.914062 405.453125 121.113281 401.671875 122.773438 C 400.707031 123.195312 399.796875 123.789062 399.191406 124.636719 C 397.804688 126.554688 398.292969 129.351562 399.734375 131.222656 C 401.164062 133.097656 403.339844 134.238281 405.496094 135.210938 C 409.394531 136.976562 415.4375 137.335938 419.585938 138.398438 C 419.574219 138.386719 419.5625 130.152344 413.28125 124.636719 Z M 413.28125 124.636719 "/>
<path style="fill:none;stroke-width:1;stroke-linecap:round;stroke-linejoin:round;stroke:rgb(4.313725%,26.27451%,64.313725%);stroke-opacity:1;stroke-miterlimit:10;" d="M 349.148438 87.480469 C 351.722656 95.910156 359.011719 102.28125 367.125 105.714844 C 375.234375 109.160156 384.171875 110.070312 392.976562 110.636719 C 401.769531 111.210938 410.671875 111.492188 419.171875 113.800781 C 427.457031 116.054688 435.722656 120.734375 439.273438 128.558594 C 443.605469 138.085938 439.773438 149.460938 433.683594 157.980469 C 427.609375 166.484375 419.421875 173.34375 413.542969 181.992188 C 410.84375 185.957031 408.582031 190.617188 409.132812 195.386719 C 409.859375 201.746094 415.21875 206.425781 420.191406 210.457031 "/>
<path style="fill:none;stroke-width:1;stroke-linecap:round;stroke-linejoin:round;stroke:rgb(4.313725%,26.27451%,64.313725%);stroke-opacity:1;stroke-miterlimit:10;" d="M 369.421875 84.378906 C 375.246094 90.828125 379.902344 100.914062 381.039062 109.542969 "/>
<path style="fill:none;stroke-width:1;stroke-linecap:round;stroke-linejoin:round;stroke:rgb(4.313725%,26.27451%,64.313725%);stroke-opacity:1;stroke-miterlimit:10;" d="M 349.816406 109.304688 C 353.152344 110.191406 356.53125 111.078125 359.976562 111.089844 C 363.421875 111.101562 367.417969 109.183594 369.898438 106.789062 "/>
<path style="fill:none;stroke-width:1;stroke-linecap:round;stroke-linejoin:round;stroke:rgb(4.313725%,26.27451%,64.313725%);stroke-opacity:1;stroke-miterlimit:10;" d="M 440.855469 108.816406 C 443.972656 111.828125 445.878906 116.085938 446.042969 120.421875 C 446.203125 124.765625 443.800781 130.023438 440.910156 133.261719 "/>
<path style="fill:none;stroke-width:1;stroke-linecap:round;stroke-linejoin:round;stroke:rgb(4.313725%,26.27451%,64.313725%);stroke-opacity:1;stroke-miterlimit:10;" d="M 408.179688 128.515625 C 414.417969 134.257812 419.84375 138.90625 426.777344 143.78125 C 429.9375 146.015625 436.21875 148.863281 439.015625 148.128906 "/>
<use xlink:href="#surface20" mask="url(#mask5)"/>
<path style=" stroke:none;fill-rule:nonzero;fill:rgb(32.156863%,82.352941%,73.72549%);fill-opacity:1;" d="M 462.980469 254.875 C 467.722656 255.253906 472.585938 256.183594 476.496094 258.882812 C 480.40625 261.582031 483.167969 266.402344 482.257812 271.074219 C 481.195312 276.515625 475.574219 280.058594 470.074219 280.71875 C 464.570312 281.390625 459.082031 279.871094 453.65625 278.757812 C 441.644531 276.285156 429.257812 275.710938 417.070312 277.089844 C 414.027344 277.425781 411.148438 278.03125 408.496094 279.589844 C 407.640625 272.34375 425.714844 262.894531 431.203125 260.433594 C 441.113281 255.980469 452.160156 254.007812 462.980469 254.875 Z M 462.980469 254.875 "/>
<path style="fill:none;stroke-width:1;stroke-linecap:round;stroke-linejoin:round;stroke:rgb(0%,67.843137%,62.352941%);stroke-opacity:1;stroke-miterlimit:10;" d="M 413.195312 275.019531 C 422.160156 267.128906 445.195312 261.777344 461.484375 263.5 C 466.390625 264.019531 471.339844 265.484375 475.109375 268.667969 "/>
<path style="fill:none;stroke-width:1;stroke-linecap:round;stroke-linejoin:round;stroke:rgb(4.313725%,26.27451%,64.313725%);stroke-opacity:1;stroke-dasharray:4,4;stroke-miterlimit:10;" d="M 396.441406 186.378906 L 484.042969 186.195312 C 494.320312 186.175781 502.671875 194.496094 502.691406 204.777344 C 502.714844 215.0625 494.398438 223.417969 484.121094 223.4375 L 424.199219 223.558594 "/>
<path style="fill:none;stroke-width:1;stroke-linecap:round;stroke-linejoin:round;stroke:rgb(4.313725%,26.27451%,64.313725%);stroke-opacity:1;stroke-dasharray:4,4;stroke-miterlimit:10;" d="M 131.390625 250.734375 L 70.125 250.863281 C 64.320312 250.875 59.628906 255.589844 59.640625 261.398438 C 59.652344 267.207031 64.363281 271.898438 70.167969 271.886719 L 88.027344 271.855469 "/>
<path style="fill:none;stroke-width:1;stroke-linecap:round;stroke-linejoin:round;stroke:rgb(78.431373%,85.882353%,98.431373%);stroke-opacity:1;stroke-dasharray:4,4;stroke-miterlimit:10;" d="M 33.605469 298.195312 C 12.617188 298.238281 12.183594 329.566406 38.878906 329.503906 C 65.585938 329.449219 415.902344 328.722656 432.417969 328.6875 C 448.933594 328.65625 450.675781 302.867188 430.261719 302.910156 C 389.617188 302.996094 388.273438 283.601562 410.835938 283.558594 "/>
<path style=" stroke:none;fill-rule:nonzero;fill:rgb(31.764706%,57.647059%,95.686275%);fill-opacity:1;" d="M 38.511719 297.328125 C 38.988281 300.15625 37.09375 302.835938 34.265625 303.320312 C 31.4375 303.800781 28.765625 301.902344 28.277344 299.074219 C 27.800781 296.246094 29.695312 293.570312 32.523438 293.082031 C 35.347656 292.605469 38.035156 294.503906 38.511719 297.328125 Z M 38.511719 297.328125 "/>
<path style=" stroke:none;fill-rule:nonzero;fill:rgb(4.313725%,26.27451%,64.313725%);fill-opacity:1;" d="M 420.90625 283.699219 C 421.382812 286.527344 419.488281 289.203125 416.660156 289.691406 C 413.835938 290.167969 411.160156 288.269531 410.671875 285.441406 C 410.195312 282.613281 412.089844 279.9375 414.917969 279.449219 C 417.742188 278.972656 420.417969 280.882812 420.90625 283.699219 Z M 420.90625 283.699219 "/>
<use xlink:href="#surface23" mask="url(#mask6)"/>
<path style=" stroke:none;fill-rule:nonzero;fill:rgb(100%,100%,100%);fill-opacity:1;" d="M 420.167969 370.136719 L 94.308594 370.808594 C 89.964844 370.820312 86.421875 367.296875 86.421875 362.953125 L 85.980469 146.957031 C 85.96875 142.613281 89.488281 139.070312 93.832031 139.070312 L 419.691406 138.398438 C 424.035156 138.386719 427.578125 141.90625 427.578125 146.253906 L 428.019531 362.246094 C 428.03125 366.59375 424.511719 370.125 420.167969 370.136719 Z M 420.167969 370.136719 "/>
<path style=" stroke:none;fill-rule:nonzero;fill:rgb(0%,33.72549%,92.54902%);fill-opacity:1;" d="M 419.164062 138.386719 L 94.699219 139.058594 C 89.964844 139.070312 86.140625 142.914062 86.140625 147.652344 L 86.152344 155.105469 L 427.761719 154.402344 L 427.75 146.945312 C 427.738281 142.210938 423.894531 138.375 419.164062 138.386719 Z M 419.164062 138.386719 "/>
<path style=" stroke:none;fill-rule:nonzero;fill:rgb(78.431373%,85.882353%,98.431373%);fill-opacity:1;" d="M 95.085938 370.808594 L 144.113281 370.710938 L 143.671875 154.988281 L 86.078125 155.105469 L 86.5 362.269531 C 86.507812 366.996094 90.355469 370.820312 95.085938 370.808594 Z M 95.085938 370.808594 "/>
<path style=" stroke:none;fill-rule:nonzero;fill:rgb(0%,33.72549%,92.54902%);fill-opacity:1;" d="M 419.789062 140.554688 C 422.933594 140.554688 425.488281 143.109375 425.496094 146.253906 L 425.941406 362.246094 C 425.941406 363.777344 425.355469 365.207031 424.273438 366.289062 C 423.203125 367.375 421.773438 367.96875 420.246094 367.96875 L 94.371094 368.640625 C 91.230469 368.640625 88.675781 366.085938 88.664062 362.941406 L 88.222656 146.945312 C 88.222656 145.421875 88.804688 143.988281 89.890625 142.90625 C 90.960938 141.820312 92.390625 141.226562 93.917969 141.226562 L 419.769531 140.554688 Z M 419.789062 138.386719 C 419.789062 138.386719 419.78125 138.386719 419.769531 138.386719 L 93.90625 139.058594 C 89.5625 139.070312 86.042969 142.601562 86.054688 146.945312 L 86.5 362.941406 C 86.511719 367.285156 90.03125 370.796875 94.371094 370.796875 C 94.371094 370.796875 94.382812 370.796875 94.394531 370.796875 L 420.257812 370.125 C 424.597656 370.113281 428.117188 366.582031 428.109375 362.238281 L 427.664062 146.242188 C 427.652344 141.898438 424.132812 138.386719 419.789062 138.386719 Z M 419.789062 138.386719 "/>
<path style=" stroke:none;fill-rule:nonzero;fill:rgb(100%,100%,100%);fill-opacity:1;" d="M 135.839844 354.316406 L 98.054688 354.390625 C 96.386719 354.390625 95.03125 353.050781 95.03125 351.378906 L 95.03125 351 C 95.03125 349.332031 96.375 347.976562 98.042969 347.976562 L 135.828125 347.902344 C 137.496094 347.902344 138.851562 349.246094 138.851562 350.914062 L 138.851562 351.292969 C 138.863281 352.960938 137.507812 354.316406 135.839844 354.316406 Z M 135.839844 354.316406 "/>
<path style=" stroke:none;fill-rule:nonzero;fill:rgb(100%,100%,100%);fill-opacity:1;" d="M 131.300781 207.964844 L 99.136719 208.03125 C 96.082031 208.039062 93.601562 205.558594 93.59375 202.503906 L 93.527344 170.320312 C 93.515625 167.265625 95.996094 164.785156 99.050781 164.773438 L 131.214844 164.707031 C 134.269531 164.695312 136.75 167.179688 136.761719 170.234375 L 136.824219 202.417969 C 136.824219 205.484375 134.355469 207.964844 131.300781 207.964844 Z M 131.300781 207.964844 "/>
<path style=" stroke:none;fill-rule:nonzero;fill:rgb(78.431373%,85.882353%,98.431373%);fill-opacity:1;" d="M 269.003906 304.371094 L 156.9375 304.601562 C 154.761719 304.601562 152.996094 302.84375 152.984375 300.667969 L 152.984375 300.179688 C 152.984375 298.003906 154.738281 296.234375 156.914062 296.226562 L 268.984375 295.996094 C 271.160156 295.996094 272.925781 297.753906 272.9375 299.929688 L 272.9375 300.417969 C 272.9375 302.605469 271.183594 304.371094 269.003906 304.371094 Z M 269.003906 304.371094 "/>
<path style=" stroke:none;fill-rule:nonzero;fill:rgb(78.431373%,85.882353%,98.431373%);fill-opacity:1;" d="M 262.527344 176.617188 L 173.972656 176.800781 C 171.796875 176.800781 170.03125 175.046875 170.019531 172.867188 L 170.019531 172.378906 C 170.019531 170.203125 171.773438 168.433594 173.949219 168.425781 L 262.507812 168.238281 C 264.683594 168.238281 266.449219 169.996094 266.460938 172.175781 L 266.460938 172.660156 C 266.460938 174.851562 264.703125 176.617188 262.527344 176.617188 Z M 262.527344 176.617188 "/>
<path style=" stroke:none;fill-rule:nonzero;fill:rgb(78.431373%,85.882353%,98.431373%);fill-opacity:1;" d="M 402.527344 266.242188 L 284.449219 266.492188 C 282.273438 266.492188 280.507812 264.734375 280.496094 262.558594 L 280.496094 262.070312 C 280.496094 259.890625 282.25 258.125 284.425781 258.113281 L 402.507812 257.875 C 404.683594 257.875 406.449219 259.632812 406.460938 261.808594 L 406.460938 262.296875 C 406.460938 264.464844 404.703125 266.230469 402.527344 266.242188 Z M 402.527344 266.242188 "/>
<path style=" stroke:none;fill-rule:nonzero;fill:rgb(78.431373%,85.882353%,98.431373%);fill-opacity:1;" d="M 269.039062 321.699219 L 156.96875 321.929688 C 154.792969 321.929688 153.027344 320.171875 153.015625 317.992188 L 153.015625 317.507812 C 153.015625 315.328125 154.769531 313.5625 156.949219 313.550781 L 269.015625 313.324219 C 271.191406 313.324219 272.957031 315.078125 272.96875 317.257812 L 272.96875 317.746094 C 272.980469 319.921875 271.214844 321.6875 269.039062 321.699219 Z M 269.039062 321.699219 "/>
<path style=" stroke:none;fill-rule:nonzero;fill:rgb(78.431373%,85.882353%,98.431373%);fill-opacity:1;" d="M 269.070312 339.015625 L 157.003906 339.242188 C 154.824219 339.242188 153.058594 337.488281 153.050781 335.308594 L 153.050781 334.820312 C 153.050781 332.644531 154.804688 330.878906 156.980469 330.867188 L 269.046875 330.640625 C 271.226562 330.640625 272.988281 332.394531 273 334.574219 L 273 335.0625 C 273.011719 337.238281 271.246094 339.015625 269.070312 339.015625 Z M 269.070312 339.015625 "/>
<path style=" stroke:none;fill-rule:nonzero;fill:rgb(78.431373%,85.882353%,98.431373%);fill-opacity:1;" d="M 400.121094 350.308594 L 287.179688 350.546875 C 283.582031 350.554688 280.65625 347.640625 280.65625 344.042969 L 280.5625 295.507812 C 280.550781 291.910156 283.464844 288.984375 287.058594 288.984375 L 400.003906 288.746094 C 403.601562 288.738281 406.523438 291.652344 406.523438 295.25 L 406.621094 343.785156 C 406.632812 347.382812 403.71875 350.308594 400.121094 350.308594 Z M 400.121094 350.308594 "/>
<path style=" stroke:none;fill-rule:nonzero;fill:rgb(78.431373%,85.882353%,98.431373%);fill-opacity:1;" d="M 104.878906 146.902344 C 104.878906 148.433594 103.644531 149.667969 102.125 149.667969 C 100.609375 149.667969 99.363281 148.433594 99.363281 146.914062 C 99.363281 145.386719 100.597656 144.152344 102.117188 144.152344 C 103.632812 144.152344 104.878906 145.386719 104.878906 146.902344 Z M 104.878906 146.902344 "/>
<path style=" stroke:none;fill-rule:nonzero;fill:rgb(78.431373%,85.882353%,98.431373%);fill-opacity:1;" d="M 113.8125 149.65625 C 115.335938 149.65625 116.574219 148.417969 116.574219 146.894531 C 116.574219 145.367188 115.335938 144.128906 113.8125 144.128906 C 112.285156 144.128906 111.050781 145.367188 111.050781 146.894531 C 111.050781 148.417969 112.285156 149.65625 113.8125 149.65625 Z M 113.8125 149.65625 "/>
<path style=" stroke:none;fill-rule:nonzero;fill:rgb(78.431373%,85.882353%,98.431373%);fill-opacity:1;" d="M 128.257812 146.859375 C 128.257812 148.390625 127.023438 149.625 125.507812 149.625 C 123.992188 149.625 122.746094 148.390625 122.746094 146.871094 C 122.746094 145.34375 123.980469 144.109375 125.496094 144.109375 C 127.015625 144.097656 128.246094 145.332031 128.257812 146.859375 Z M 128.257812 146.859375 "/>
<path style=" stroke:none;fill-rule:nonzero;fill:rgb(78.431373%,85.882353%,98.431373%);fill-opacity:1;" d="M 165.683594 173.457031 C 166.125 169.070312 162.925781 165.15625 158.539062 164.714844 C 154.152344 164.273438 150.242188 167.476562 149.800781 171.863281 C 149.363281 176.253906 152.5625 180.167969 156.949219 180.605469 C 161.335938 181.046875 165.246094 177.847656 165.683594 173.457031 Z M 165.683594 173.457031 "/>
<path style=" stroke:none;fill-rule:nonzero;fill:rgb(100%,100%,100%);fill-opacity:1;" d="M 133.542969 214.714844 L 98.183594 214.792969 C 97.363281 214.792969 96.699219 214.132812 96.691406 213.308594 L 96.691406 213.121094 C 96.691406 212.300781 97.351562 211.640625 98.171875 211.628906 L 133.53125 211.550781 C 134.355469 211.550781 135.015625 212.214844 135.027344 213.035156 L 135.027344 213.222656 C 135.027344 214.042969 134.367188 214.714844 133.542969 214.714844 Z M 133.542969 214.714844 "/>
<path style=" stroke:none;fill-rule:nonzero;fill:rgb(100%,100%,100%);fill-opacity:1;" d="M 133.554688 221.476562 L 98.195312 221.554688 C 97.371094 221.554688 96.710938 220.890625 96.699219 220.070312 L 96.699219 219.886719 C 96.699219 219.0625 97.359375 218.398438 98.183594 218.390625 L 133.542969 218.3125 C 134.367188 218.3125 135.027344 218.972656 135.039062 219.796875 L 135.039062 219.980469 C 135.039062 220.804688 134.378906 221.46875 133.554688 221.476562 Z M 133.554688 221.476562 "/>
<path style=" stroke:none;fill-rule:nonzero;fill:rgb(78.431373%,85.882353%,98.431373%);fill-opacity:1;" d="M 174.035156 235.761719 L 164.039062 235.855469 L 164.117188 277.769531 L 155.484375 277.792969 C 152.441406 277.804688 149.972656 275.332031 149.960938 272.289062 L 149.800781 194.777344 C 149.789062 191.699219 152.28125 189.195312 155.355469 189.195312 L 173.929688 189.152344 Z M 174.035156 235.761719 "/>
<path style=" stroke:none;fill-rule:nonzero;fill:rgb(78.431373%,85.882353%,98.431373%);fill-opacity:1;" d="M 238.898438 189.023438 L 238.898438 190.105469 C 241.886719 190.105469 244.324219 192.535156 244.324219 195.523438 L 244.476562 271.097656 C 244.476562 272.546875 243.910156 273.914062 242.894531 274.941406 C 241.875 275.972656 240.511719 276.535156 239.058594 276.546875 L 156.460938 276.71875 C 153.472656 276.71875 151.035156 274.292969 151.035156 271.300781 L 150.882812 195.730469 C 150.882812 194.277344 151.445312 192.914062 152.464844 191.882812 C 153.480469 190.855469 154.847656 190.292969 156.296875 190.28125 L 238.886719 190.105469 Z M 238.898438 189.023438 L 238.886719 189.023438 L 156.296875 189.195312 C 152.703125 189.207031 149.789062 192.121094 149.800781 195.71875 L 149.949219 271.289062 C 149.960938 274.886719 152.875 277.792969 156.460938 277.792969 L 156.472656 277.792969 L 239.058594 277.617188 C 242.65625 277.609375 245.570312 274.691406 245.558594 271.097656 L 245.40625 195.523438 C 245.40625 191.929688 242.492188 189.011719 238.898438 189.023438 Z M 238.898438 189.023438 "/>
<path style=" stroke:none;fill-rule:nonzero;fill:rgb(78.431373%,85.882353%,98.431373%);fill-opacity:1;" d="M 376.804688 251.210938 L 266.644531 226.300781 C 263.136719 225.507812 260.9375 222.019531 261.726562 218.507812 L 274.117188 163.644531 C 274.90625 160.136719 278.394531 157.933594 281.902344 158.726562 L 392.066406 183.636719 C 395.574219 184.429688 397.773438 187.917969 396.984375 191.429688 L 384.59375 246.292969 C 383.800781 249.804688 380.316406 252.015625 376.804688 251.210938 Z M 376.804688 251.210938 "/>
<path style=" stroke:none;fill-rule:nonzero;fill:rgb(0%,33.72549%,92.54902%);fill-opacity:1;" d="M 163.609375 400.425781 L 148.195312 400.457031 L 144.417969 380.8125 L 167.300781 380.765625 Z M 163.609375 400.425781 "/>
<path style=" stroke:none;fill-rule:nonzero;fill:rgb(78.431373%,85.882353%,98.431373%);fill-opacity:1;" d="M 148.683594 380.800781 C 148.683594 382.402344 148.382812 385.089844 149.453125 385.132812 C 150.527344 385.175781 150.082031 382.578125 151.296875 382.652344 C 152.074219 382.695312 150.9375 391.191406 153.871094 391.398438 C 155.886719 391.539062 155.519531 387.234375 155.722656 384.539062 C 155.863281 382.71875 158.191406 383.074219 158.214844 384.277344 C 158.238281 385.632812 158.148438 386.53125 158.214844 388.070312 C 158.324219 390.640625 162.265625 389.957031 162.125 386.53125 C 161.984375 383.109375 162.113281 380.789062 162.113281 380.789062 Z M 148.683594 380.800781 "/>
<path style=" stroke:none;fill-rule:nonzero;fill:rgb(4.705882%,13.72549%,25.098039%);fill-opacity:1;" d="M 145.003906 392.664062 C 144.6875 392.664062 144.386719 392.632812 144.09375 392.566406 C 142.953125 392.320312 142.164062 391.722656 141.722656 390.789062 C 140.148438 387.453125 144.289062 381.210938 144.449219 380.929688 L 144.667969 382.058594 C 144.632812 382.121094 141.027344 387.484375 142.445312 390.488281 C 142.78125 391.203125 143.378906 391.648438 144.277344 391.84375 C 144.527344 391.894531 144.785156 391.917969 145.046875 391.917969 C 150.601562 391.90625 160.089844 381.558594 160.195312 381.4375 C 160.585938 380.972656 161.3125 381.417969 161.050781 381.808594 C 160.609375 382.304688 150.96875 392.65625 145.003906 392.664062 Z M 145.003906 392.664062 "/>
<use xlink:href="#surface26" mask="url(#mask7)"/>
<path style=" stroke:none;fill-rule:nonzero;fill:rgb(93.72549%,51.372549%,16.862745%);fill-opacity:1;" d="M 306.976562 120.507812 C 285.066406 119.671875 254.902344 135.882812 265.605469 175.523438 L 269.761719 173.605469 C 273.414062 144.128906 280.234375 139.035156 291.8125 139.144531 L 318.984375 139.089844 C 325.699219 140.078125 338.230469 146.046875 340.058594 169.636719 L 346.492188 169.628906 C 347.035156 152.570312 342.917969 121.882812 306.976562 120.507812 Z M 306.976562 120.507812 "/>
<path style=" stroke:none;fill-rule:nonzero;fill:rgb(100%,72.54902%,63.921569%);fill-opacity:1;" d="M 302.492188 121.15625 L 299.242188 128.308594 C 299.242188 128.308594 299.632812 132.339844 303.585938 132.253906 C 307.539062 132.167969 308.070312 130.347656 308.070312 130.347656 L 308.589844 122.132812 Z M 302.492188 121.15625 "/>
<path style=" stroke:none;fill-rule:nonzero;fill:rgb(100%,72.54902%,63.921569%);fill-opacity:1;" d="M 319.222656 115.1875 C 315.519531 121.742188 313.871094 123.789062 309.023438 124.777344 C 302.738281 126.054688 295.699219 121.820312 298.972656 111.371094 C 301.636719 102.855469 305.6875 104.167969 309.640625 104.492188 C 313.59375 104.804688 323.230469 108.101562 319.222656 115.1875 Z M 319.222656 115.1875 "/>
<path style=" stroke:none;fill-rule:nonzero;fill:rgb(4.705882%,13.72549%,25.098039%);fill-opacity:1;" d="M 304.472656 110.007812 C 303.488281 109.496094 302.21875 109.933594 301.453125 110.734375 C 300.660156 111.566406 300.28125 112.804688 300.617188 113.898438 C 299.101562 113.917969 297.769531 115.402344 297.910156 116.921875 C 296.871094 114.503906 297.433594 111.980469 297.226562 109.496094 C 297.023438 107.015625 297.292969 104.328125 298.894531 102.433594 C 299.554688 101.652344 300.402344 101.058594 301.300781 100.578125 C 304.710938 98.757812 309.011719 98.707031 312.476562 100.417969 C 313.191406 100.773438 314.988281 101.902344 317.5 101.296875 C 322.289062 100.136719 325.082031 103.375 322.210938 106.410156 C 323.132812 106.746094 324.152344 107.15625 324.5625 108.046875 C 324.671875 108.273438 324.726562 108.554688 324.585938 108.761719 C 324.488281 108.902344 324.3125 108.976562 324.140625 109.03125 C 323.339844 109.304688 322.460938 109.367188 321.617188 109.226562 C 321.941406 109.496094 323.71875 109.605469 324.25 110.648438 C 325.679688 113.398438 320.023438 112.011719 319.15625 111.730469 C 320.144531 111.914062 322.722656 113.972656 321.898438 115.394531 C 321.734375 115.675781 318.25 117.699219 314.589844 113.441406 C 313.734375 112.457031 312.671875 111.535156 311.414062 111.199219 C 310.429688 110.9375 309.390625 111.296875 308.425781 111.664062 C 307.722656 111.925781 305.933594 113.019531 305.425781 112.371094 C 304.894531 111.675781 305.621094 110.582031 304.472656 110.007812 Z M 304.472656 110.007812 "/>
<path style=" stroke:none;fill-rule:nonzero;fill:rgb(100%,72.54902%,63.921569%);fill-opacity:1;" d="M 340.765625 169.628906 C 339.789062 172.976562 338.816406 173.300781 339.984375 173.832031 C 341.164062 174.363281 342.117188 172.488281 342.117188 172.488281 L 347.554688 173.570312 C 347.554688 173.570312 346.332031 170.039062 345.476562 169.617188 C 344.621094 169.195312 340.765625 169.628906 340.765625 169.628906 Z M 340.765625 169.628906 "/>
<path style=" stroke:none;fill-rule:nonzero;fill:rgb(100%,72.54902%,63.921569%);fill-opacity:1;" d="M 269.761719 173.605469 C 270.476562 175.371094 270.671875 175.382812 271.65625 177.503906 C 273.554688 181.558594 269.125 187.960938 266.371094 180.972656 C 265.613281 179.054688 265.605469 175.53125 265.605469 175.53125 Z M 269.761719 173.605469 "/>
<path style=" stroke:none;fill-rule:nonzero;fill:rgb(4.705882%,13.72549%,25.098039%);fill-opacity:1;" d="M 312.21875 100.992188 C 315.929688 101.199219 320.503906 98.574219 323.414062 101.933594 C 323.6875 102.25 324.226562 101.835938 323.988281 101.488281 C 321.207031 97.492188 316.039062 100.472656 312.226562 100.363281 C 311.816406 100.363281 311.828125 100.96875 312.21875 100.992188 Z M 312.21875 100.992188 "/>
<path style=" stroke:none;fill-rule:nonzero;fill:rgb(4.705882%,13.72549%,25.098039%);fill-opacity:1;" d="M 313.710938 98.945312 C 311.175781 99.386719 308.730469 98.183594 306.183594 98.585938 C 304.117188 98.910156 302.273438 99.972656 300.714844 101.328125 C 300.316406 101.675781 300.835938 102.355469 301.289062 102.066406 C 303.476562 100.621094 305.578125 99.378906 308.308594 99.582031 C 310.289062 99.722656 311.96875 100.320312 313.9375 99.722656 C 314.4375 99.574219 314.21875 98.855469 313.710938 98.945312 Z M 313.710938 98.945312 "/>
<path style=" stroke:none;fill-rule:nonzero;fill:rgb(4.705882%,13.72549%,25.098039%);fill-opacity:1;" d="M 299.265625 102.410156 C 297.476562 103.527344 296.449219 105.011719 296.230469 107.148438 C 296.078125 108.683594 296.035156 112.207031 297.585938 113.074219 C 297.953125 113.28125 298.34375 112.792969 298.039062 112.476562 C 297.042969 111.46875 296.957031 108.75 297.03125 107.472656 C 297.140625 105.511719 297.964844 104.015625 299.523438 102.84375 C 299.773438 102.660156 299.546875 102.238281 299.265625 102.410156 Z M 299.265625 102.410156 "/>
<path style=" stroke:none;fill-rule:nonzero;fill:rgb(4.705882%,13.72549%,25.098039%);fill-opacity:1;" d="M 326.738281 108.511719 C 325.820312 106.917969 323.46875 105.511719 321.660156 106.519531 C 321.378906 106.679688 321.507812 107.113281 321.824219 107.113281 C 322.613281 107.125 323.339844 107.027344 324.109375 107.265625 C 324.984375 107.535156 325.722656 108.046875 326.242188 108.792969 C 326.457031 109.097656 326.925781 108.835938 326.738281 108.511719 Z M 326.738281 108.511719 "/>
<path style=" stroke:none;fill-rule:nonzero;fill:rgb(4.313725%,26.27451%,64.313725%);fill-opacity:1;" d="M 206.222656 273.816406 C 217.714844 278.042969 227.6875 291.21875 225.394531 300.808594 C 222.804688 311.632812 215.34375 316.304688 215.34375 316.304688 L 212.992188 311.957031 C 212.992188 311.957031 218.960938 302.628906 218.441406 298.21875 C 217.605469 291.164062 208.703125 286.441406 208.703125 286.441406 Z M 206.222656 273.816406 "/>
<path style=" stroke:none;fill-rule:nonzero;fill:rgb(4.705882%,13.72549%,25.098039%);fill-opacity:1;" d="M 177.945312 395.960938 C 177.945312 395.960938 170.898438 398.808594 169.132812 400.425781 L 183.101562 400.390625 L 183.089844 395.949219 Z M 177.945312 395.960938 "/>
<path style=" stroke:none;fill-rule:nonzero;fill:rgb(4.705882%,13.72549%,25.098039%);fill-opacity:1;" d="M 208.824219 395.6875 C 208.824219 395.6875 210.828125 398.007812 211.195312 400.335938 L 201.664062 400.359375 C 201.828125 398.753906 202.507812 397.207031 203.441406 395.699219 Z M 208.824219 395.6875 "/>
<path style=" stroke:none;fill-rule:nonzero;fill:rgb(1.568627%,49.803922%,46.27451%);fill-opacity:1;" d="M 209.40625 395.894531 L 202.898438 395.90625 C 203.027344 388.234375 201.449219 362.085938 199.921875 342.539062 C 199.023438 331.074219 198.132812 321.863281 197.613281 320 L 201.101562 319.230469 L 214.261719 316.304688 C 216.511719 326.597656 211.3125 373.863281 209.40625 395.894531 Z M 209.40625 395.894531 "/>
<path style=" stroke:none;fill-rule:nonzero;fill:rgb(0%,59.215686%,56.470588%);fill-opacity:1;" d="M 185.484375 319.585938 C 180.40625 327.585938 179.09375 385.40625 176.972656 396.121094 L 183.144531 396.46875 C 183.144531 396.46875 190.238281 360.015625 205.335938 319.035156 Z M 185.484375 319.585938 "/>
<use xlink:href="#surface29" mask="url(#mask8)"/>
<path style=" stroke:none;fill-rule:nonzero;fill:rgb(0%,59.215686%,56.470588%);fill-opacity:1;" d="M 185.484375 319.585938 C 180.40625 327.585938 179.09375 385.40625 176.972656 396.121094 L 183.144531 396.46875 C 183.144531 396.46875 190.238281 360.015625 205.335938 319.035156 Z M 185.484375 319.585938 "/>
<path style=" stroke:none;fill-rule:nonzero;fill:rgb(100%,72.54902%,63.921569%);fill-opacity:1;" d="M 189.363281 255.035156 C 189.363281 255.035156 185.410156 270.097656 195.285156 270.089844 L 194.699219 273.933594 L 202.195312 274.757812 L 200.570312 269.394531 C 200.570312 269.394531 202.054688 259.925781 202.152344 258.210938 C 202.335938 255.015625 193.390625 249.390625 189.363281 255.035156 Z M 189.363281 255.035156 "/>
<path style=" stroke:none;fill-rule:nonzero;fill:rgb(4.705882%,13.72549%,25.098039%);fill-opacity:1;" d="M 164.949219 238.152344 L 162.035156 238.15625 L 162.0625 250.457031 L 164.972656 250.449219 Z M 164.949219 238.152344 "/>
<path style=" stroke:none;fill-rule:nonzero;fill:rgb(0%,33.72549%,92.54902%);fill-opacity:1;" d="M 171.839844 238.132812 L 155.140625 238.164062 C 153.96875 238.164062 153.015625 237.222656 153.015625 236.050781 L 153.015625 235.617188 C 153.015625 234.449219 153.960938 233.496094 155.128906 233.496094 L 171.828125 233.460938 C 172.996094 233.460938 173.949219 234.40625 173.949219 235.574219 L 173.949219 236.007812 C 173.960938 237.179688 173.007812 238.132812 171.839844 238.132812 Z M 171.839844 238.132812 "/>
<path style=" stroke:none;fill-rule:nonzero;fill:rgb(100%,72.54902%,63.921569%);fill-opacity:1;" d="M 161.257812 253.660156 C 161.183594 250.875 158.875 251.601562 160.144531 247.050781 C 160.921875 244.234375 166.738281 247.507812 166.011719 249.457031 C 165.285156 251.40625 164.453125 254.496094 164.453125 254.496094 Z M 161.257812 253.660156 "/>
<path style=" stroke:none;fill-rule:nonzero;fill:rgb(0%,33.72549%,92.54902%);fill-opacity:1;" d="M 195.351562 273.058594 C 180.589844 274.03125 179.613281 279.015625 173.007812 278.238281 C 163.230469 277.089844 164.941406 258.914062 166.152344 252.402344 L 160.316406 252.414062 C 160.316406 252.414062 149.789062 293.796875 183.035156 286.148438 C 181.757812 293.394531 190.03125 305.238281 182.007812 319.609375 C 194.625 323.042969 206.40625 323.878906 216.492188 319.542969 C 214.726562 317.160156 220.109375 293.113281 209.570312 275.808594 C 207.511719 272.417969 196.433594 272.980469 195.351562 273.058594 Z M 195.351562 273.058594 "/>
<path style=" stroke:none;fill-rule:nonzero;fill:rgb(0%,33.72549%,92.54902%);fill-opacity:1;" d="M 195.351562 273.058594 C 180.589844 274.03125 179.613281 279.015625 173.007812 278.238281 C 163.230469 277.089844 164.941406 258.914062 166.152344 252.402344 L 160.316406 252.414062 C 160.316406 252.414062 149.789062 293.796875 183.035156 286.148438 C 181.757812 293.394531 190.03125 305.238281 182.007812 319.609375 C 194.625 323.042969 206.40625 323.878906 216.492188 319.542969 C 214.726562 317.160156 220.109375 293.113281 209.570312 275.808594 C 207.511719 272.417969 196.433594 272.980469 195.351562 273.058594 Z M 195.351562 273.058594 "/>
<path style=" stroke:none;fill-rule:nonzero;fill:rgb(93.72549%,51.372549%,16.862745%);fill-opacity:1;" d="M 193.316406 257.929688 C 194.277344 258.179688 195.394531 258.363281 195.914062 259.175781 C 196.25 259.707031 196.226562 260.367188 196.195312 260.984375 C 196.367188 260.335938 197.09375 259.871094 197.777344 259.957031 C 198.46875 260.03125 199.054688 260.648438 199.066406 261.320312 C 199.074219 261.636719 198.96875 261.9375 198.847656 262.230469 C 198.554688 262.96875 198.1875 263.660156 197.753906 264.324219 C 198.957031 264.769531 199.976562 268.300781 200.570312 269.394531 C 202.597656 268.886719 207.113281 267.140625 207.503906 259.957031 C 207.6875 256.609375 206.667969 252.597656 203.039062 250.378906 C 200.472656 248.804688 196.226562 248.785156 193.292969 249.53125 C 190.910156 250.140625 187.121094 252.523438 188.886719 255.296875 C 189.773438 256.695312 191.722656 257.519531 193.316406 257.929688 Z M 193.316406 257.929688 "/>
<path style=" stroke:none;fill-rule:nonzero;fill:rgb(93.72549%,51.372549%,16.862745%);fill-opacity:1;" d="M 205.964844 253.355469 C 207.339844 252.902344 209.082031 253.140625 209.90625 254.289062 C 210.546875 255.1875 210.492188 256.359375 210.695312 257.433594 C 210.792969 257.953125 210.976562 258.472656 211.378906 258.828125 C 211.855469 259.253906 212.546875 259.359375 213.199219 259.394531 C 214.789062 259.480469 216.394531 259.273438 217.964844 259.546875 C 219.535156 259.816406 221.136719 260.691406 221.582031 262.15625 C 221.828125 262.96875 221.6875 263.855469 221.992188 264.648438 C 222.4375 265.839844 223.703125 266.523438 224.808594 267.21875 C 227.15625 268.691406 229.160156 270.683594 230.601562 272.992188 C 231.523438 274.453125 232.226562 276.078125 232.335938 277.78125 C 232.441406 279.484375 233.679688 281.738281 233.34375 283.40625 C 232.984375 285.214844 231.207031 287.664062 227.699219 288.789062 C 221.636719 290.742188 219.707031 291.585938 213.890625 288.128906 C 213.1875 287.71875 211.824219 286.300781 211.183594 285.789062 C 210.6875 285.390625 210.371094 284.8125 210.199219 284.21875 C 209.710938 282.550781 210.273438 280.75 211.140625 279.234375 C 212.007812 277.71875 213.1875 276.371094 214.074219 274.867188 C 214.605469 273.957031 215.039062 272.949219 214.996094 271.910156 C 214.972656 271.519531 214.878906 271.117188 214.59375 270.835938 C 214.347656 270.597656 214 270.476562 213.652344 270.414062 C 212.375 270.164062 210.96875 270.425781 209.820312 269.851562 C 208.691406 269.296875 208.074219 267.933594 208.421875 266.761719 C 208.648438 265.980469 209.246094 265.320312 209.40625 264.527344 C 209.644531 263.382812 208.929688 262.210938 207.933594 261.539062 C 206.9375 260.867188 205.714844 260.605469 204.511719 260.410156 C 203.917969 260.3125 203.300781 260.214844 202.824219 259.871094 C 202.226562 259.445312 201.957031 258.699219 201.96875 257.996094 C 202.011719 255.742188 203.839844 254.0625 205.964844 253.355469 Z M 205.964844 253.355469 "/>
<path style=" stroke:none;fill-rule:nonzero;fill:rgb(93.72549%,51.372549%,16.862745%);fill-opacity:1;" d="M 204.871094 259.414062 C 212.171875 260.996094 202.953125 267.921875 206.820312 271.238281 C 207.925781 272.179688 209.203125 271.886719 210.492188 272.058594 C 215.449219 272.742188 212.734375 276.113281 212.398438 278.757812 C 212.34375 279.15625 213.003906 279.234375 213.089844 278.855469 C 213.511719 277.035156 215.179688 274.800781 214.324219 272.863281 C 213.566406 271.148438 211.683594 271.355469 210.132812 271.300781 C 208.195312 271.246094 206.0625 271.300781 206.785156 267.453125 C 206.949219 266.597656 207.632812 265.730469 207.96875 264.917969 C 208.347656 263.988281 208.605469 263.066406 208.402344 262.046875 C 208.042969 260.324219 206.613281 259.316406 204.96875 259.046875 C 204.730469 258.992188 204.621094 259.359375 204.871094 259.414062 Z M 204.871094 259.414062 "/>
<path style=" stroke:none;fill-rule:nonzero;fill:rgb(93.72549%,51.372549%,16.862745%);fill-opacity:1;" d="M 189.828125 250.464844 C 195.460938 247.601562 201.070312 248.179688 205.824219 252.371094 C 206.148438 252.652344 206.582031 252.21875 206.300781 251.894531 C 202.128906 247.191406 194.710938 246.367188 189.675781 250.191406 C 189.511719 250.324219 189.644531 250.5625 189.828125 250.464844 Z M 189.828125 250.464844 "/>
<path style=" stroke:none;fill-rule:nonzero;fill:rgb(100%,72.54902%,63.921569%);fill-opacity:1;" d="M 378.984375 268.136719 L 376.546875 273.058594 L 382.503906 275.496094 L 383.140625 269.839844 Z M 378.984375 268.136719 "/>
<path style=" stroke:none;fill-rule:nonzero;fill:rgb(100%,72.54902%,63.921569%);fill-opacity:1;" d="M 382.578125 252.152344 C 369.050781 258.050781 374.597656 272.332031 382.828125 270.652344 C 386.835938 269.839844 388.859375 256.921875 388.859375 256.921875 Z M 382.578125 252.152344 "/>
<path style=" stroke:none;fill-rule:nonzero;fill:rgb(29.019608%,28.627451%,79.215686%);fill-opacity:1;" d="M 387.074219 250.128906 C 386.628906 249.304688 386.207031 248.414062 385.46875 247.832031 C 384.734375 247.246094 383.574219 247.050781 382.894531 247.691406 C 381.984375 248.535156 382.515625 250.117188 383.433594 250.953125 C 382.644531 251.050781 381.699219 250.496094 381.117188 251.050781 C 380.671875 251.460938 380.824219 252.199219 381.085938 252.75 C 381.679688 254.039062 382.652344 255.167969 383.855469 255.925781 C 383.175781 256.316406 382.371094 257.074219 382.785156 257.746094 C 382.902344 257.929688 383.089844 258.058594 383.207031 258.242188 C 383.46875 258.679688 383.21875 259.242188 382.945312 259.675781 C 382.523438 260.378906 382.058594 261.0625 381.570312 261.722656 C 382.035156 261.082031 383.175781 261.34375 383.511719 262.058594 C 383.847656 262.773438 383.554688 263.652344 383.023438 264.238281 C 382.730469 264.5625 382.363281 264.832031 381.929688 264.929688 C 381.5625 265.015625 379.914062 270.089844 381.191406 271.085938 C 382.773438 272.308594 388.144531 271.246094 388.925781 269.859375 C 389.703125 270.707031 390.84375 271.34375 391.96875 271.117188 C 393.09375 270.890625 393.949219 269.503906 393.34375 268.527344 C 394.558594 268.972656 396.039062 268.582031 396.875 267.585938 C 397.707031 266.589844 397.828125 265.058594 397.167969 263.945312 C 397.828125 263.75 397.96875 262.851562 397.796875 262.179688 C 397.449219 260.824219 396.34375 259.675781 394.988281 259.296875 C 395.671875 259.304688 396.214844 258.613281 396.246094 257.929688 C 396.277344 257.246094 395.921875 256.597656 395.488281 256.066406 C 394.222656 254.496094 392.714844 254.082031 390.84375 253.84375 C 388.957031 253.617188 387.917969 251.6875 387.074219 250.128906 Z M 387.074219 250.128906 "/>
<path style=" stroke:none;fill-rule:nonzero;fill:rgb(4.705882%,13.72549%,25.098039%);fill-opacity:1;" d="M 374.402344 395.027344 C 374.402344 395.027344 366.484375 398.832031 365.425781 400.011719 C 365.425781 400.011719 380.996094 400.714844 382.222656 399.980469 C 383.445312 399.242188 379.730469 395.015625 379.730469 395.015625 Z M 374.402344 395.027344 "/>
<path style=" stroke:none;fill-rule:nonzero;fill:rgb(4.705882%,13.72549%,25.098039%);fill-opacity:1;" d="M 403.847656 390.726562 C 403.847656 390.726562 396.894531 396.089844 396.09375 397.464844 C 396.09375 397.464844 412.511719 395.027344 412.511719 393.953125 C 412.511719 392.882812 409.046875 389.609375 409.046875 389.609375 Z M 403.847656 390.726562 "/>
<path style=" stroke:none;fill-rule:nonzero;fill:rgb(84.705882%,45.490196%,16.470588%);fill-opacity:1;" d="M 382.046875 321.59375 C 381.757812 323.207031 370.914062 366.007812 401.933594 391.679688 L 410.910156 389.621094 C 410.910156 389.621094 400.460938 379.8125 395.53125 362.152344 C 390.875 345.453125 394.566406 343.816406 397.363281 334.628906 C 400.460938 324.453125 398.152344 317.0625 398.152344 317.0625 Z M 382.046875 321.59375 "/>
<path style=" stroke:none;fill-rule:nonzero;fill:rgb(93.72549%,51.372549%,16.862745%);fill-opacity:1;" d="M 367.234375 321.460938 C 362.316406 333.21875 353.878906 373.28125 372.269531 395.828125 L 381.453125 395.808594 C 381.453125 395.808594 374.21875 387.875 373.40625 369.464844 C 372.59375 351.054688 377.273438 342.972656 380.574219 336.902344 C 383.878906 330.824219 386.933594 320.507812 386.933594 320.507812 Z M 367.234375 321.460938 "/>
<path style=" stroke:none;fill-rule:nonzero;fill:rgb(4.313725%,26.27451%,64.313725%);fill-opacity:1;" d="M 360.757812 248.589844 C 358.320312 257.191406 357.519531 273.101562 369.734375 279.503906 L 377.910156 277.511719 C 377.910156 277.511719 363.160156 269.773438 366.324219 250.226562 Z M 360.757812 248.589844 "/>
<path style=" stroke:none;fill-rule:nonzero;fill:rgb(0%,33.72549%,92.54902%);fill-opacity:1;" d="M 338.21875 244.191406 L 344.566406 243.410156 C 344.566406 243.410156 343.796875 270.089844 374.597656 272.34375 C 398.109375 274.054688 399.949219 318.199219 399.949219 318.199219 C 392.367188 323.304688 379.65625 324.851562 363.355469 323.683594 C 363.355469 323.683594 364.394531 292.191406 361.808594 283.566406 C 361.808594 283.558594 336.214844 275.507812 338.21875 244.191406 Z M 338.21875 244.191406 "/>
<path style=" stroke:none;fill-rule:nonzero;fill:rgb(100%,72.54902%,63.921569%);fill-opacity:1;" d="M 330.453125 239.347656 C 329.382812 240.59375 333.867188 242.175781 338.21875 244.191406 L 343.796875 243.507812 C 343.796875 243.507812 343.863281 242.390625 343.796875 241.230469 C 343.730469 240.070312 343.148438 239.410156 342.484375 240.40625 C 341.824219 241.40625 339.011719 241.742188 337.679688 240.832031 C 336.335938 239.910156 331.527344 238.101562 330.453125 239.347656 Z M 330.453125 239.347656 "/>
<path style=" stroke:none;fill-rule:nonzero;fill:rgb(100%,72.54902%,63.921569%);fill-opacity:1;" d="M 360.757812 248.589844 C 358.710938 246.585938 359.261719 246.703125 359.261719 246.703125 L 365.488281 248.113281 C 365.488281 248.113281 366.855469 245.066406 368.023438 244.992188 C 369.183594 244.90625 367.144531 247.082031 367.613281 247.894531 C 368.078125 248.710938 366.335938 250.234375 366.335938 250.234375 Z M 360.757812 248.589844 "/>
<path style=" stroke:none;fill-rule:nonzero;fill:rgb(29.019608%,28.627451%,79.215686%);fill-opacity:1;" d="M 390.570312 253.066406 C 391.847656 253.390625 393.148438 253.519531 394.210938 254.398438 C 395.261719 255.265625 395.738281 256.75 394.980469 257.953125 C 394.621094 258.515625 395.464844 258.960938 395.847656 258.460938 C 396.808594 257.191406 396.550781 255.460938 395.574219 254.257812 C 394.449219 252.878906 392.359375 252.304688 390.648438 252.488281 C 390.34375 252.523438 390.234375 252.976562 390.570312 253.066406 Z M 390.570312 253.066406 "/>
<path style=" stroke:none;fill-rule:nonzero;fill:rgb(29.019608%,28.627451%,79.215686%);fill-opacity:1;" d="M 396.203125 264.628906 C 397.046875 265.125 397.753906 265.925781 397.394531 266.976562 C 397.058594 267.941406 396.085938 268.515625 395.292969 269.070312 C 394.914062 269.339844 395.238281 269.914062 395.660156 269.699219 C 396.832031 269.078125 398.066406 268.214844 398.25 266.78125 C 398.410156 265.535156 397.578125 264.59375 396.539062 264.03125 C 396.160156 263.835938 395.835938 264.398438 396.203125 264.628906 Z M 396.203125 264.628906 "/>
<path style=" stroke:none;fill-rule:nonzero;fill:rgb(29.019608%,28.627451%,79.215686%);fill-opacity:1;" d="M 381.984375 271.085938 C 384.851562 272.871094 388.914062 272.578125 391.285156 270.066406 C 391.578125 269.753906 391.179688 269.167969 390.808594 269.449219 C 388.210938 271.378906 385.265625 271.996094 382.222656 270.683594 C 381.949219 270.566406 381.722656 270.921875 381.984375 271.085938 Z M 381.984375 271.085938 "/>
<path style=" stroke:none;fill-rule:nonzero;fill:rgb(29.019608%,28.627451%,79.215686%);fill-opacity:1;" d="M 396.582031 254.949219 C 398.226562 256.519531 396.582031 258.667969 395.519531 260.011719 C 395.28125 260.304688 395.652344 260.703125 395.941406 260.433594 C 396.886719 259.554688 397.828125 258.578125 397.957031 257.234375 C 398.054688 256.21875 397.632812 255.253906 396.734375 254.753906 C 396.613281 254.691406 396.472656 254.851562 396.582031 254.949219 Z M 396.582031 254.949219 "/>
<path style=" stroke:none;fill-rule:nonzero;fill:rgb(4.313725%,26.27451%,64.313725%);fill-opacity:1;" d="M 213.382812 56.996094 L 210.847656 50.789062 L 235.355469 41.46875 Z M 213.382812 56.996094 "/>
<path style=" stroke:none;fill-rule:nonzero;fill:rgb(31.764706%,57.647059%,95.686275%);fill-opacity:1;" d="M 214.617188 53.160156 L 235.355469 41.46875 L 220.921875 56.140625 Z M 214.617188 53.160156 "/>
<path style=" stroke:none;fill-rule:nonzero;fill:rgb(31.764706%,57.647059%,95.686275%);fill-opacity:1;" d="M 205.238281 48.253906 L 235.355469 41.46875 L 210.847656 50.789062 Z M 205.238281 48.253906 "/>
<path style=" stroke:none;fill-rule:nonzero;fill:rgb(0%,33.72549%,92.54902%);fill-opacity:1;" d="M 214.617188 53.160156 L 213.382812 56.996094 L 217.128906 54.355469 Z M 214.617188 53.160156 "/>
<path style="fill:none;stroke-width:1;stroke-linecap:round;stroke-linejoin:round;stroke:rgb(78.431373%,85.882353%,98.431373%);stroke-opacity:1;stroke-dasharray:4,4;stroke-miterlimit:10;" d="M 210.503906 56.164062 C 204.101562 55.078125 195.414062 61.558594 199.152344 68.300781 C 200.417969 70.597656 206.980469 69.601562 206.496094 67.0625 C 206.257812 65.851562 204.773438 65.332031 203.550781 65.472656 C 196.402344 66.292969 196.109375 72.285156 196.433594 73.816406 C 198.070312 81.703125 210.15625 79.039062 214.214844 77.921875 "/>
</g>
</svg>
